<svg width="168" height="80" viewBox="0 0 168 80" fill="none" xmlns="http://www.w3.org/2000/svg">
<path fill-rule="evenodd" clip-rule="evenodd" d="M100.346 51.2803C92.6322 56.9657 81.4522 59.9991 71.8262 59.9991C58.3292 59.9991 46.1787 55.007 36.9862 46.7043C36.2639 46.0514 36.911 45.1616 37.7777 45.67C47.6983 51.4421 59.9642 54.9146 72.6352 54.9146C81.1812 54.9146 90.5812 53.1465 99.2252 49.4776C100.531 48.9229 101.623 50.3327 100.346 51.2803Z" fill="#05060F" fill-opacity="0.32"/>
<path fill-rule="evenodd" clip-rule="evenodd" d="M103.552 47.612C102.57 46.3525 97.0354 47.0169 94.5514 47.3116C93.7944 47.404 93.6784 46.7454 94.3604 46.2716C98.7684 43.1689 106.002 44.0644 106.846 45.1044C107.689 46.1502 106.626 53.4014 102.484 56.8623C101.848 57.3939 101.241 57.1108 101.524 56.4059C102.455 54.0832 104.54 48.8774 103.552 47.612Z" fill="#05060F" fill-opacity="0.32"/>
<path fill-rule="evenodd" clip-rule="evenodd" d="M94.7241 24.3685V21.3524C94.7241 20.896 95.0711 20.5898 95.4871 20.5898H108.989C109.423 20.5898 109.769 20.9018 109.769 21.3524V23.9351C109.764 24.3685 109.4 24.9347 108.752 25.8303L101.756 35.8201C104.356 35.7566 107.1 36.1437 109.457 37.4726C109.989 37.7731 110.133 38.2122 110.174 38.6455V41.8638C110.174 42.3029 109.688 42.8171 109.18 42.5513C105.026 40.3731 99.5081 40.1362 94.9151 42.5744C94.4471 42.8287 93.9551 42.3202 93.9551 41.8811V38.8246C93.9551 38.3335 93.9611 37.4957 94.4521 36.7504L102.559 25.1254H95.5041C95.0711 25.1254 94.7241 24.8191 94.7241 24.3685Z" fill="#05060F" fill-opacity="0.32"/>
<path fill-rule="evenodd" clip-rule="evenodd" d="M45.4679 43.1874H41.3598C40.9669 43.1585 40.6549 42.8638 40.626 42.4882V21.4049C40.626 20.9832 40.9785 20.648 41.4176 20.648H45.2483C45.647 20.6654 45.9648 20.9716 45.9937 21.3529V24.109H46.0688C47.0683 21.4454 48.9461 20.2031 51.4768 20.2031C54.048 20.2031 55.654 21.4454 56.81 24.109C57.804 21.4454 60.063 20.2031 62.484 20.2031C64.205 20.2031 66.089 20.9138 67.239 22.5085C68.539 24.2823 68.273 26.8592 68.273 29.1183L68.267 42.4247C68.267 42.8465 67.915 43.1874 67.476 43.1874H63.373C62.963 43.1585 62.634 42.8291 62.634 42.4247V31.2504C62.634 30.3606 62.715 28.1419 62.518 27.2983C62.212 25.8828 61.293 25.4841 60.103 25.4841C59.109 25.4841 58.069 26.1485 57.648 27.2117C57.226 28.2748 57.266 30.0544 57.266 31.2504V42.4247C57.266 42.8465 56.914 43.1874 56.475 43.1874H52.3724C51.9564 43.1585 51.6328 42.8291 51.6328 42.4247L51.627 31.2504C51.627 28.8988 52.0142 25.4379 49.0964 25.4379C46.1439 25.4379 46.2594 28.8121 46.2594 31.2504V42.4247C46.2594 42.8465 45.907 43.1874 45.4679 43.1874Z" fill="#05060F" fill-opacity="0.32"/>
<path fill-rule="evenodd" clip-rule="evenodd" d="M121.394 20.2031C127.49 20.2031 130.789 25.4379 130.789 32.0939C130.789 38.5247 127.143 43.6265 121.394 43.6265C115.409 43.6265 112.15 38.3918 112.15 31.8686C112.15 25.305 115.449 20.2031 121.394 20.2031ZM121.429 24.5076C118.401 24.5076 118.211 28.633 118.211 31.2042C118.211 33.7811 118.17 39.2816 121.394 39.2816C124.578 39.2816 124.728 34.8442 124.728 32.1402C124.728 30.3606 124.653 28.2343 124.116 26.5472C123.654 25.0796 122.735 24.5076 121.429 24.5076Z" fill="#05060F" fill-opacity="0.32"/>
<path fill-rule="evenodd" clip-rule="evenodd" d="M138.693 43.1874H134.603C134.192 43.1585 133.863 42.8291 133.863 42.4247L133.857 21.3356C133.892 20.9485 134.233 20.648 134.649 20.648H138.456C138.815 20.6654 139.109 20.908 139.19 21.2374V24.4614H139.265C140.415 21.5783 142.027 20.2031 144.864 20.2031C146.707 20.2031 148.504 20.8676 149.66 22.6876C150.734 24.3747 150.734 27.2117 150.734 29.2512V42.5229C150.688 42.8927 150.347 43.1874 149.943 43.1874H145.823C145.448 43.1585 145.136 42.8811 145.095 42.5229V31.0713C145.095 28.7659 145.361 25.3916 142.524 25.3916C141.524 25.3916 140.606 26.0619 140.149 27.0788C139.571 28.3672 139.496 29.6499 139.496 31.0713V42.4247C139.491 42.8465 139.132 43.1874 138.693 43.1874Z" fill="#05060F" fill-opacity="0.32"/>
<path fill-rule="evenodd" clip-rule="evenodd" d="M83.9605 33.1157C83.9605 34.7162 84.0005 36.0508 83.1915 37.4722C82.5385 38.6278 81.4985 39.3384 80.3495 39.3384C78.7715 39.3384 77.8475 38.1366 77.8475 36.3628C77.8475 32.8615 80.9845 32.2259 83.9605 32.2259V33.1157ZM88.1035 43.1287C87.8315 43.3714 87.4385 43.3887 87.1325 43.2269C85.7685 42.0945 85.5205 41.5687 84.7745 40.4882C82.5215 42.7878 80.9215 43.4754 78.0035 43.4754C74.5425 43.4754 71.8555 41.3433 71.8555 37.0735C71.8555 33.7397 73.6585 31.469 76.2355 30.3597C78.4655 29.3774 81.5795 29.2041 83.9605 28.9325V28.401C83.9605 27.4245 84.0355 26.269 83.4575 25.4254C82.9605 24.6685 82.0015 24.3565 81.1525 24.3565C79.5865 24.3565 78.1945 25.1596 77.8535 26.8236C77.7835 27.1934 77.5125 27.5574 77.1365 27.5747L73.1555 27.1472C72.8205 27.0721 72.4455 26.8005 72.5435 26.2863C73.4565 21.456 77.8245 20 81.7305 20C83.7295 20 86.3405 20.5316 87.9185 22.0454C89.9175 23.9116 89.7265 26.4018 89.7265 29.1117V35.5135C89.7265 37.4375 90.5235 38.2811 91.2755 39.3211C91.5355 39.6909 91.5925 40.1358 91.2575 40.4131C90.4195 41.1122 88.9295 42.4122 88.1085 43.1402L88.1035 43.1287Z" fill="#05060F" fill-opacity="0.32"/>
<path fill-rule="evenodd" clip-rule="evenodd" d="M30.1046 33.1157C30.1046 34.7162 30.145 36.0508 29.3361 37.4722C28.6832 38.6278 27.649 39.3384 26.4934 39.3384C24.9161 39.3384 23.9974 38.1366 23.9974 36.3628C23.9974 32.8615 27.1348 32.2259 30.1046 32.2259V33.1157ZM34.2473 43.1287C33.9757 43.3714 33.5828 43.3887 33.2766 43.2269C31.913 42.0945 31.6704 41.5687 30.9192 40.4882C28.6659 42.7878 27.0712 43.4754 24.1476 43.4754C20.6925 43.4754 18 41.3433 18 37.0735C18 33.7397 19.8085 31.469 22.3796 30.3597C24.6098 29.3774 27.7241 29.2041 30.1046 28.9325V28.401C30.1046 27.4245 30.1797 26.269 29.6077 25.4254C29.105 24.6685 28.1459 24.3565 27.3023 24.3565C25.7365 24.3565 24.3383 25.1596 23.9974 26.8236C23.9281 27.1934 23.6565 27.5574 23.2867 27.5747L19.3 27.1472C18.9649 27.0721 18.5951 26.8005 18.6876 26.2863C19.6062 21.456 23.9685 20 27.8743 20C29.8735 20 32.485 20.5316 34.0624 22.0454C36.0615 23.9116 35.8708 26.4018 35.8708 29.1117V35.5135C35.8708 37.4375 36.6682 38.2811 37.4193 39.3211C37.6851 39.6909 37.7429 40.1358 37.4077 40.4131C36.57 41.1122 35.0793 42.4122 34.2588 43.1402L34.2473 43.1287Z" fill="#05060F" fill-opacity="0.32"/>
</svg>
