<svg width="168" height="80" viewBox="0 0 168 80" fill="none" xmlns="http://www.w3.org/2000/svg">
<g clip-path="url(#clip0_2031_69427)">
<path d="M51.6794 41.4027C51.6303 36.3062 55.8875 33.8575 56.079 33.7409C53.6828 30.2768 49.9609 29.8007 48.6351 29.7472C45.468 29.4266 42.4531 31.5934 40.8425 31.5934C39.232 31.5934 36.7523 29.7909 34.1253 29.8444C30.6685 29.893 27.4817 31.8315 25.6993 34.8924C22.1148 41.0432 24.786 50.1772 28.287 55.1766C30.0007 57.6204 32.0335 60.3752 34.7145 60.2731C37.2973 60.1711 38.2695 58.6213 41.3826 58.6213C44.4957 58.6213 45.3747 60.2731 48.0999 60.2246C50.8742 60.1711 52.632 57.7273 54.331 55.2738C56.2853 52.4315 57.0955 49.6865 57.1446 49.5407C57.0807 49.5164 51.7384 47.4904 51.6794 41.4027Z" fill="#05060F" fill-opacity="0.32"/>
<path d="M46.5576 26.4326C47.9815 24.7273 48.939 22.3612 48.6788 20C46.6312 20.0826 44.1515 21.3507 42.6834 23.056C41.3674 24.5621 40.2135 26.9719 40.5278 29.2846C42.8012 29.4595 45.1385 28.1331 46.5576 26.4326ZM69.6357 46.4108L67.2788 53.4799H64.2492L71.9632 31.0142H75.4986L83.2421 53.4799H80.1093L77.6837 46.4108H69.6357ZM77.0797 44.1419L74.8603 37.6752C74.3545 36.2079 74.0206 34.8767 73.6818 33.5746H73.618C73.2792 34.9059 72.9109 36.2711 72.4739 37.6412L70.2544 44.137L77.0797 44.1419ZM85.5401 42.6114C85.5401 40.5466 85.4762 38.8753 85.4026 37.3448H88.0639L88.2014 40.1142H88.2653C89.4781 38.1465 91.398 36.9804 94.0594 36.9804C98.0023 36.9804 100.963 40.2794 100.963 45.1816C100.963 50.9826 97.3934 53.8443 93.5536 53.8443C91.398 53.8443 89.5125 52.9114 88.5353 51.313H88.4715V60.0777H85.5401V42.6114V42.6114ZM88.4666 46.9112C88.4666 47.3485 88.5304 47.742 88.6041 48.1113C89.1442 50.1421 90.9266 51.5462 93.0528 51.5462C96.1855 51.5462 98.0072 49.0149 98.0072 45.3128C98.0072 42.077 96.2886 39.3174 93.1559 39.3174C91.1378 39.3174 89.2522 40.7506 88.6728 42.9515C88.5697 43.3159 88.4715 43.7532 88.4715 44.1516L88.4666 46.9112ZM104.027 42.6114C104.027 40.5466 103.963 38.8753 103.89 37.3448H106.551L106.689 40.1142H106.752C107.965 38.1465 109.885 36.9804 112.546 36.9804C116.489 36.9804 119.45 40.2794 119.45 45.1816C119.45 50.9826 115.881 53.8443 112.041 53.8443C109.885 53.8443 108 52.9114 107.022 51.313H106.959V60.0777H104.027V42.6114V42.6114ZM106.959 46.9112C106.959 47.3485 107.022 47.742 107.096 48.1113C107.636 50.1421 109.419 51.5462 111.545 51.5462C114.678 51.5462 116.499 49.0149 116.499 45.3128C116.499 42.077 114.781 39.3174 111.648 39.3174C109.63 39.3174 107.744 40.7506 107.165 42.9515C107.062 43.3159 106.963 43.7532 106.963 44.1516L106.959 46.9112ZM122.519 29.8142H125.485V53.475H122.519V29.8142ZM131.446 45.9444C131.51 49.9089 134.073 51.5462 137.034 51.5462C139.155 51.5462 140.437 51.1818 141.546 50.7154L142.052 52.8143C141.011 53.2807 139.224 53.8151 136.631 53.8151C131.613 53.8151 128.613 50.5502 128.613 45.682C128.613 40.8138 131.51 36.9804 136.258 36.9804C141.581 36.9804 142.995 41.6106 142.995 44.5791C142.995 45.1816 142.931 45.6431 142.892 45.9444H131.446ZM140.137 43.8455C140.172 41.9798 139.361 39.0793 136.027 39.0793C133.027 39.0793 131.716 41.8146 131.48 43.8455H140.137V43.8455Z" fill="#05060F" fill-opacity="0.32"/>
</g>
<defs>
<clipPath id="clip0_2031_69427">
<rect width="119" height="40.2769" fill="white" transform="translate(24 20)"/>
</clipPath>
</defs>
</svg>
