<svg xmlns="http://www.w3.org/2000/svg" width="640" height="433" fill="none" xmlns:v="https://vecta.io/nano"><style><![CDATA[.B{stroke:#05060f}.C{stroke-width:3}.D{fill:#fff}.E{fill:#eaeaeb}.F{fill:#05060f}.G{fill:#5627ff}.H{fill:#ede8ff}.I{stroke:#fff}.J{fill-rule:evenodd}.K{stroke-linecap:round}.L{stroke-linejoin:round}]]></style><path d="M0 .461h640v432H0z" class="D"/><rect x="149" y="72.461" width="324" height="14" rx="7" class="E"/><g class="C"><rect x="322" y="72.947" width="71.542" height="14" rx="7" class="B H"/><rect x="422.161" y="65.447" width="13" height="29" rx="6.5" class="G I"/></g><rect x="149" y="118.461" width="324" height="14" rx="7" class="E"/><g class="C"><rect x="279.271" y="118.947" width="63.042" height="14" rx="7" class="B H"/><rect x="318.147" y="111.447" width="13" height="29" rx="6.5" class="G I"/></g><rect x="149" y="164.461" width="324" height="14" rx="7" class="E"/><g class="C"><rect x="342" y="164.947" width="83.583" height="14" rx="7" class="B H"/><rect x="442.5" y="157.447" width="13" height="29" rx="6.5" class="G I"/></g><rect x="149" y="210.461" width="324" height="14" rx="7" class="E"/><g class="C"><rect x="304" y="210.947" width="64.458" height="14" rx="7" class="B H"/><rect x="339.333" y="203.447" width="13" height="29" rx="6.5" class="G I"/></g><rect x="149" y="256.461" width="324" height="14" rx="7" class="E"/><g class="C"><rect x="251.165" y="256.947" width="46.75" height="14" rx="7" class="B H"/><rect x="273.5" y="249.447" width="13" height="29" rx="6.5" class="G I"/></g><rect x="149" y="302.461" width="324" height="14" rx="7" class="E"/><g class="C"><rect x="317" y="302.947" width="37.542" height="14" rx="7" class="B H"/><rect x="362.5" y="295.447" width="13" height="29" rx="6.5" class="G I"/><path d="M173.031 311.365c2.668-1.579 5.985-1.579 8.654 0l23.559 13.935a8.5 8.5 0 0 1 4.172 7.316v28.292a8.5 8.5 0 0 1-4.172 7.316l-23.559 13.935c-2.669 1.579-5.986 1.579-8.654 0l-23.559-13.935a8.5 8.5 0 0 1-4.173-7.316v-28.292a8.5 8.5 0 0 1 4.173-7.316l23.559-13.935z" fill="#4353ff" class="B"/></g><path d="M188.405 342.183l-3.065 9.535c-.082-.746-2.159-16.541-2.159-16.541-4.861 0-7.448 3.389-8.816 7.006l-3.74 9.567c-.017-.697-.528-9.47-.528-9.47-.296-4.411-4.383-7.087-7.695-7.087l3.988 23.936c5.092-.016 7.827-3.406 9.261-7.006l3.18-8.14c.033.34 2.192 15.146 2.192 15.146 5.092 0 7.844-3.179 9.327-6.649l7.119-17.303c-5.043 0-7.696 3.389-9.064 7.006z" class="D"/><path d="M94.868 176.365a8.5 8.5 0 0 1 8.655 0l23.559 13.935a8.5 8.5 0 0 1 4.172 7.316v28.292a8.5 8.5 0 0 1-4.172 7.316l-23.559 13.935a8.5 8.5 0 0 1-8.655 0L71.31 233.224a8.5 8.5 0 0 1-4.173-7.316v-28.292a8.5 8.5 0 0 1 4.173-7.316l23.558-13.935z" fill="#2187ff" class="B C"/><g class="J"><path d="M104.468 196.199c0 2.535-2.073 4.59-4.63 4.59s-4.631-2.055-4.631-4.59 2.073-4.591 4.631-4.591 4.63 2.055 4.63 4.591zm-4.66 6.707l15.952-1.106a1.92 1.92 0 0 1 1.353.556 1.89 1.89 0 0 1 .561 1.341c0 .837-.355 1.898-1.914 2.301l-9.951 1.828v20.062a2.27 2.27 0 0 1-.672 1.61 2.31 2.31 0 0 1-3.248 0c-.431-.427-.673-1.006-.673-1.61l-.792-11.064h-1.145l-.971 11.064c0 .604-.242 1.183-.673 1.61s-1.015.667-1.624.667-1.193-.24-1.624-.667-.673-1.006-.673-1.61v-20.062l-9.798-1.828c-1.736-.336-1.914-1.464-1.914-2.301a1.89 1.89 0 0 1 .561-1.341 1.92 1.92 0 0 1 1.353-.556l15.891 1.106z" class="D"/><path d="M99.837 192.27c-2.19 0-3.964 1.759-3.964 3.929s1.774 3.929 3.964 3.929 3.964-1.76 3.964-3.929-1.774-3.929-3.964-3.929zm-5.297 3.929c0-2.902 2.372-5.253 5.297-5.253s5.297 2.351 5.297 5.253-2.372 5.252-5.297 5.252-5.297-2.351-5.297-5.252zm-10.644 6.263a1.25 1.25 0 0 0-.861.362 1.23 1.23 0 0 0-.365.873c0 .387.045.727.21.996.145.238.442.515 1.163.655l9.796 1.828c.315.058.544.332.544.65v20.062a1.61 1.61 0 0 0 .477 1.142l-.471.468.471-.468c.306.303.72.473 1.153.473s.847-.17 1.153-.473l.471.468-.471-.468a1.61 1.61 0 0 0 .477-1.142l.002-.058.971-11.064c.03-.341.318-.604.664-.604h1.145c.35 0 .64.269.665.615l.793 11.064.002.047c0 .428.171.839.477 1.142l-.471.468.471-.468c.305.303.72.473 1.152.473s.847-.17 1.153-.473l.471.468-.471-.468c.306-.303.477-.714.477-1.142v-20.062c0-.319.229-.593.545-.651l9.927-1.823c.629-.167.955-.445 1.133-.71.189-.279.26-.613.26-.945a1.23 1.23 0 0 0-.365-.873 1.25 1.25 0 0 0-.861-.362l-15.927 1.104c-.031.002-.062.002-.093 0l-15.865-1.104zm-1.803-.574a2.59 2.59 0 0 1 1.824-.75l.047.002 15.844 1.103 15.905-1.103.047-.002a2.59 2.59 0 0 1 1.824.75c.484.48.756 1.13.756 1.809 0 .506-.107 1.121-.485 1.682-.387.572-1.013 1.023-1.927 1.259-.015.004-.031.008-.047.01l-9.406 1.728v19.512c0 .779-.312 1.527-.868 2.078s-1.309.86-2.095.86-1.539-.309-2.095-.86a2.93 2.93 0 0 1-.868-2.053l-.708-9.88-.867 9.885c-.008.769-.319 1.504-.868 2.048-.556.551-1.309.86-2.095.86s-1.539-.309-2.095-.86-.868-1.299-.868-2.078v-19.513l-9.255-1.727-.004-.001c-1.013-.196-1.673-.65-2.05-1.269-.359-.588-.403-1.23-.403-1.681 0-.679.272-1.329.756-1.809z" class="F"/></g><path d="M134.031 243.85a8.5 8.5 0 0 1 8.654 0l23.559 13.935a8.5 8.5 0 0 1 4.172 7.316v28.293a8.5 8.5 0 0 1-4.172 7.316l-23.559 13.934c-2.669 1.579-5.986 1.579-8.654 0l-23.559-13.934a8.5 8.5 0 0 1-4.173-7.316v-28.293a8.5 8.5 0 0 1 4.173-7.316l23.559-13.935z" fill="#12b823" class="B C"/><g class="J"><path d="M125.546 266.418c0-2.017 1.704-3.652 3.806-3.652h20.135c2.101 0 3.805 1.635 3.805 3.652v12.958c-2.752 3.005-8.43 8.609-9.358 9.507-.439.424-2.753 2.677-3.909 4.043-.11.382-.606 1.803-.606 2.076h-10.067c-2.102 0-3.806-1.635-3.806-3.653v-24.931zm4.381 3.627c0-.807.681-1.461 1.522-1.461h15.94c.84 0 1.522.654 1.522 1.461s-.682 1.461-1.522 1.461h-15.94c-.841 0-1.522-.654-1.522-1.461zm1.522 4.459c-.841 0-1.522.654-1.522 1.461s.681 1.461 1.522 1.461h15.94c.84 0 1.522-.654 1.522-1.461s-.682-1.461-1.522-1.461h-15.94zm-1.522 7.381c0-.807.681-1.461 1.522-1.461h7.95c.84 0 1.522.654 1.522 1.461s-.682 1.461-1.522 1.461h-7.95c-.841 0-1.522-.654-1.522-1.461z" class="D"/><path d="M124.901 266.418c0-2.39 2.013-4.292 4.451-4.292h20.135c2.437 0 4.45 1.902 4.45 4.292v13.205l-.168.183c-2.766 3.021-8.456 8.636-9.385 9.535-.434.42-2.623 2.552-3.78 3.897l-.138.43-.17.528-.175.587a5.47 5.47 0 0 0-.049.197l-.008.043v.619h-10.712c-2.438 0-4.451-1.902-4.451-4.293v-24.931zm4.451-3.012c-1.766 0-3.161 1.369-3.161 3.012v24.931c0 1.644 1.395 3.013 3.161 3.013h9.548a20.42 20.42 0 0 1 .165-.548l.186-.578.154-.486.037-.131.089-.105c1.181-1.395 3.52-3.671 3.952-4.09.909-.878 6.369-6.267 9.164-9.297v-12.709c0-1.643-1.394-3.012-3.16-3.012h-20.135zm-.07 6.639c0-1.181.991-2.101 2.167-2.101h15.94c1.176 0 2.167.92 2.167 2.101s-.991 2.101-2.167 2.101h-15.94c-1.176 0-2.167-.921-2.167-2.101zm2.167-.821c-.505 0-.877.388-.877.821s.372.821.877.821h15.94c.505 0 .877-.388.877-.821s-.372-.821-.877-.821h-15.94zm0 5.92c-.505 0-.877.388-.877.821s.372.821.877.821h15.94c.505 0 .877-.388.877-.821s-.372-.821-.877-.821h-15.94zm-2.167.821c0-1.181.991-2.101 2.167-2.101h15.94c1.176 0 2.167.92 2.167 2.101s-.991 2.101-2.167 2.101h-15.94c-1.176 0-2.167-.921-2.167-2.101zm0 5.92c0-1.181.991-2.101 2.167-2.101h7.95c1.176 0 2.167.92 2.167 2.101s-.991 2.101-2.167 2.101h-7.95c-1.176 0-2.167-.921-2.167-2.101zm2.167-.821c-.505 0-.877.388-.877.821s.372.821.877.821h7.95c.505 0 .877-.388.877-.821s-.372-.821-.877-.821h-7.95z" class="F"/></g><g class="D"><path d="M157.586 278.612a2.65 2.65 0 0 0-3.726 0l-2.882 2.863 3.725 3.701 2.883-2.863c1.028-1.022 1.028-2.679 0-3.701z"/><path d="M154.703 285.176l-3.725-3.701-10.648 10.576c-.497.494-.849 1.113-1.019 1.79l-.634 2.532c-.171.685.466 1.299 1.15 1.107l2.496-.701c.638-.179 1.219-.518 1.688-.984l10.692-10.619z"/></g><path d="M157.13 279.065a2 2 0 0 0-2.813 0l-2.427 2.41 2.813 2.795 2.427-2.41c.777-.772.777-2.023 0-2.795zm-3.338 6.111l-2.814-2.795-10.191 10.122c-.415.412-.708.928-.85 1.493l-.634 2.532a.28.28 0 0 0 .348.336l2.496-.701a3.24 3.24 0 0 0 1.408-.82l10.237-10.167zm-.388-7.016c1.281-1.272 3.357-1.272 4.638 0a3.24 3.24 0 0 1 0 4.605l-13.574 13.483c-.547.543-1.225.938-1.97 1.147l-2.495.701c-1.162.326-2.242-.716-1.952-1.877l.634-2.532c.198-.791.609-1.513 1.189-2.089l13.53-13.438z" class="F J"/><path d="M96.531 312.057c2.669-1.578 5.986-1.578 8.654 0l23.559 13.935a8.5 8.5 0 0 1 4.172 7.316v28.293a8.5 8.5 0 0 1-4.172 7.316l-23.559 13.934a8.5 8.5 0 0 1-8.654 0l-23.558-13.934a8.5 8.5 0 0 1-4.173-7.316v-28.293a8.5 8.5 0 0 1 4.173-7.316l23.558-13.935z" fill="#f8db46" class="B C"/><path d="M89.204 332.693c-.487 0-.954.193-1.298.537a1.83 1.83 0 0 0-.537 1.296v6.711c0 1.012 1.264 1.924 2.278 1.924s2.391-.82 2.391-1.832v-3.567c0-.136.111-.247.248-.247h6.151a.25.25 0 0 1 .248.25v20.344a.25.25 0 0 1-.248.25H95.57c-1.014 0-1.835.912-1.835 1.82 0 1.012.822 1.76 1.835 1.76h11.747c1.013 0 1.835-.748 1.835-1.76s-.822-1.82-1.835-1.82l-2.818-.056c-.135-.002-.243-.121-.243-.255v-20.335c0-.137.112-.257.25-.256l6.341.056c.136.001.245.111.245.247v3.569c0 1.012 1.282 1.832 2.296 1.832s2.247-.82 2.247-1.832v-6.711c0-1.013-.821-1.925-1.835-1.925H89.204z" class="D"/><g class="F J"><path d="M87.051 332.386a3.02 3.02 0 0 1 2.135-.884h24.632c1.745 0 3.017 1.52 3.017 3.102v6.589c0 1.006-.602 1.774-1.207 2.235-.611.466-1.418.776-2.215.776s-1.606-.307-2.226-.767c-.608-.451-1.242-1.22-1.242-2.244v-2.543l-4.525-.038v18.676l1.801.036c1.653.007 3.003 1.333 3.003 2.999 0 1.723-1.413 2.939-3.017 2.939H95.681c-1.604 0-3.017-1.216-3.017-2.939 0-1.523 1.314-2.999 3.017-2.999h1.84V338.66h-4.338v2.533c0 1.061-.701 1.829-1.314 2.262-.635.447-1.463.749-2.249.749-.829 0-1.649-.355-2.253-.839-.593-.476-1.199-1.261-1.199-2.262v-6.589c0-.798.317-1.563.882-2.128zm2.135.328c-.478 0-.936.19-1.273.527a1.8 1.8 0 0 0-.527 1.273v6.589c0 .994 1.241 1.89 2.235 1.89s2.346-.806 2.346-1.8v-3.502c0-.134.109-.242.243-.242h6.284c.134 0 .243.111.243.245v20.596c0 .133-.109.245-.243.245h-2.813c-.995 0-1.801.896-1.801 1.788 0 .994.806 1.727 1.801 1.727h11.526c.995 0 1.801-.733 1.801-1.727a1.79 1.79 0 0 0-1.801-1.788l-2.765-.054c-.132-.003-.238-.119-.238-.251v-20.587a.25.25 0 0 1 .245-.251l6.471.055c.133.001.241.109.241.242v3.504c0 .994 1.258 1.8 2.252 1.8s2.206-.806 2.206-1.8v-6.589c0-.994-.807-1.89-1.801-1.89H89.186z"/><path d="M87.502 348.772c0-.366.298-.662.667-.662h26.666c.368 0 .667.296.667.662s-.299.661-.667.661H88.169c-.368 0-.667-.296-.667-.661z"/></g><path d="M58.029 244.543c2.669-1.578 5.986-1.578 8.655 0l23.558 13.935a8.5 8.5 0 0 1 4.173 7.316v28.293a8.5 8.5 0 0 1-4.173 7.315l-23.558 13.935a8.5 8.5 0 0 1-8.655 0L34.47 301.402a8.5 8.5 0 0 1-4.173-7.316v-28.292a8.5 8.5 0 0 1 4.173-7.316l23.558-13.935z" class="B C F"/><g clip-path="url(#A)"><path d="M63 279.868c0-3.303 2.659-5.982 5.939-5.982s5.939 2.679 5.939 5.982-2.659 5.982-5.939 5.982S63 283.172 63 279.868z" fill="#1abcfe"/><path d="M51.123 291.831c0-3.303 2.659-5.981 5.939-5.981H63v5.981c0 3.304-2.659 5.982-5.939 5.982s-5.939-2.678-5.939-5.982z" fill="#0acf83"/><path d="M63 261.923v11.963h5.939c3.28 0 5.939-2.678 5.939-5.981s-2.659-5.982-5.939-5.982H63z" fill="#ff7262"/><path d="M51.123 267.905c0 3.303 2.659 5.981 5.939 5.981H63v-11.963h-5.939c-3.28 0-5.939 2.678-5.939 5.982z" fill="#f24e1e"/><path d="M51.123 279.868c0 3.304 2.659 5.982 5.939 5.982H63v-11.964h-5.939c-3.28 0-5.939 2.679-5.939 5.982z" fill="#a259ff"/></g><path d="M434.288 38.189c-.094.246-.204.612-.328 1.096l-.33 1.507-.282 1.513-.165 1.141c-.056.46-.338.66-.847.597-.174-.021-.335-.089-.482-.204-.132-.113-.181-.304-.147-.574l.337-2.159.486-2.383-1.204-3.194-.881-2.865a3.8 3.8 0 0 1-.111-.473 2.69 2.69 0 0 1 .011-.482c.033-.141.087-.255.163-.343.077-.103.197-.161.36-.174.176.006.341.042.494.109.171.053.309.175.414.365l.337 1.202.434 1.383.462 1.362.422 1.092 2.384-2.681 2.162-2.636c.245-.292.481-.441.707-.445s.403.066.53.21c.116.111.168.278.156.503.005.226-.043.422-.144.587l-1.146 1.455-1.304 1.557-1.303 1.557-1.185 1.378zm11.656-1.616c.455.233.82.544 1.094.932.291.39.496.819.617 1.285.122.45.162.907.122 1.369-.025.464-.126.887-.301 1.269a7.99 7.99 0 0 1-.828 1.228c-.323.396-.679.739-1.07 1.029s-.82.512-1.29.664a3.49 3.49 0 0 1-1.515.128c-.651-.08-1.18-.298-1.588-.654s-.709-.788-.905-1.296a4.74 4.74 0 0 1-.301-1.681 6.92 6.92 0 0 1 .27-1.805 7 7 0 0 1 .467-1.248c.212-.409.456-.758.733-1.047.279-.304.583-.541.91-.71a1.94 1.94 0 0 1 1.11-.178c.222.027.494.109.816.245.324.12.619.278.885.471.23-.165.488-.166.774-.002zm-1.119 1.628l-.566-.505c-.199-.218-.386-.338-.561-.359-.19-.023-.392.04-.604.192-.196.153-.38.34-.552.561a5.55 5.55 0 0 0-.419.65 3.99 3.99 0 0 0-.26.548c-.077.232-.144.514-.201.846a4.25 4.25 0 0 0-.051 1.009c.024.325.107.634.249.925.159.278.415.494.766.65.215.091.477.123.786.096a2.95 2.95 0 0 0 .931-.297c.326-.154.635-.373.928-.66.309-.285.56-.624.754-1.02.215-.441.274-.917.175-1.429-.08-.526-.337-.928-.77-1.207-.121.066-.237.092-.349.078a.6.6 0 0 1-.256-.08zm7.164.396l-.461 1.394-.396 1.451c-.09.472-.143.901-.158 1.286.001.387.071.67.211.848.264.081.587.008.97-.219.384-.243.769-.558 1.156-.946s.744-.811 1.074-1.27c.333-.475.578-.896.736-1.264l.24-.575c.073-.201.123-.412.15-.634.016-.127.11-.236.282-.328.191-.106.342-.16.455-.162a.41.41 0 0 1 .257.08c.105.061.191.144.259.25.086.091.152.204.2.339a.61.61 0 0 1 .076.372l-.051 1.59.004 1.741.081 1.703.108 1.488c.026.181-.046.373-.216.578s-.346.32-.526.346c-.147.014-.296-.02-.447-.103-.135-.081-.231-.222-.287-.422-.052-.232-.098-.512-.139-.839l-.064-1.048-.018-1.042.008-.846c-.291.4-.631.801-1.019 1.205-.37.39-.768.744-1.194 1.062a4.83 4.83 0 0 1-1.27.69c-.42.142-.842.163-1.265.062-.625-.157-1.037-.812-1.234-1.965-.072-.46-.075-.96-.009-1.5l.315-1.581.449-1.492.43-1.132a.71.71 0 0 1 .231-.31c.109-.1.225-.126.348-.078.233.077.429.246.591.508.177.264.218.519.123.765z" class="G"/><path d="M420.486 36.503c-3.43 1.612-7.308 2.908-8.07 7.096-.274 1.502-.342 4.352 1.051 7.315 1.193 2.538 3.639 6.338 5.854 8.098.834.662 2.341 1.291.681 1.051-1.12-.162-2.635-.76-3.637-.288-.617.29 1.401.465 2.092.631.531.128 1.802-.019 2.261-.314.637-.409-.447-3.423-.764-4.097" stroke="#5627ff" stroke-width="1.4" class="K L"/><path d="M251.099 358.252a3.44 3.44 0 0 1-.219.777c-.101.222-.222.357-.361.407-.292.116-.528.097-.708-.058s-.271-.37-.272-.644c.01-.968.093-1.994.25-3.077l.612-3.291.861-3.226 1.072-2.888c.064-.136.143-.219.236-.246.107-.046.203-.057.286-.035a1.2 1.2 0 0 1 .265-.202c.106-.061.214-.099.325-.113a.48.48 0 0 1 .146.007c.065.008.135.048.208.119s.159.182.258.331c.113.131.25.332.413.602l1.069 2.408 1.245 2.459c.046-.022.084-.035.116-.039l.137-.065a2.6 2.6 0 0 1 .599-.049c.226.004.39.097.493.278.125.226.134.435.029.625s-.315.393-.627.609l.804 1.424.815 1.327.119.372a2.63 2.63 0 0 1 .109.495c.035.156.046.308.032.455s-.066.25-.156.309c-.105.062-.225.068-.36.02a2.1 2.1 0 0 1-.363-.197l-.351-.295-.231-.31-.979-1.476-.89-1.535-2.15.603-2.288.474-.304 1.851-.24 1.794zm2.155-10.42c-.53 1.725-.964 3.439-1.304 5.141 1.061-.162 2.179-.437 3.357-.823-.749-1.375-1.433-2.814-2.053-4.318zm14.717-.453l-.607 1.356-.658 1.532-.776 1.957-1.021 2.713c-.097.253-.201.46-.311.618s-.251.249-.426.27c-.238.029-.436-.011-.595-.12-.145-.128-.274-.265-.389-.412-.631-.809-1.266-1.714-1.905-2.716s-1.18-1.991-1.622-2.969a.37.37 0 0 1-.032-.262c.034-.117.089-.196.164-.237.149-.099.355-.133.616-.1.201.056.409.175.625.358a2.79 2.79 0 0 1 .531.588l.427.721.52.88.593.894.582.799.67-1.63.748-1.784.751-1.761.804-1.525c.066-.121.169-.198.31-.232s.307.003.497.108c.434.253.602.571.504.954zm7.742 2.145a8.7 8.7 0 0 1-1.895 1.103c-.692.278-1.45.468-2.276.569.1.552.314.977.64 1.276a1.76 1.76 0 0 0 1.143.44c.258 0 .511-.039.759-.118a3.32 3.32 0 0 0 .712-.305c.225-.14.424-.285.599-.436s.326-.298.454-.442.268-.243.423-.294c.153-.067.271-.09.354-.068.233.052.341.281.326.685a3.78 3.78 0 0 1-.934 1.445c-.434.408-.939.696-1.515.863-.496.158-1.023.198-1.581.122s-1.076-.295-1.555-.656c-.41-.32-.741-.715-.992-1.184a5.64 5.64 0 0 1-.544-1.48c-.108-.487-.126-.96-.054-1.42a3.38 3.38 0 0 1 .5-1.247c.243-.384.565-.714.967-.989s.886-.463 1.454-.565c.677-.132 1.312-.081 1.905.153s1.033.606 1.322 1.119c.164.286.228.544.192.774-.021.229-.155.447-.404.655zm-2.938-1.284a2.81 2.81 0 0 0-.504.231c-.164.101-.319.225-.462.371-.129.129-.247.281-.355.455a.92.92 0 0 0-.129.524c.27-.034.561-.093.872-.18l.933-.284a7.95 7.95 0 0 0 .825-.367c.259-.129.468-.259.629-.392a.9.9 0 0 0-.782-.46c-.343-.038-.685-.004-1.027.102zm12.326-2.529l-.844.611a9.58 9.58 0 0 0-.853.734c-.274.259-.535.565-.782.918-.233.335-.434.73-.604 1.186-.243.643-.382 1.289-.415 1.937-.035.633-.031 1.254.011 1.861.035.286 0 .588-.106.908-.092.301-.257.467-.495.496-.302.037-.567-.084-.794-.362-.214-.296-.37-.583-.469-.861l-1.076-3.254-.86-3.255c-.027-.222.019-.373.138-.452a.95.95 0 0 1 .468-.13 1.64 1.64 0 0 1 .565.075c.185.058.304.173.357.344l.466 1.828.488 1.609c-.003-.548.108-1.093.331-1.637a6.39 6.39 0 0 1 .878-1.51c.379-.466.812-.873 1.301-1.224.505-.352 1.029-.61 1.574-.773.234-.061.432-.086.595-.073s.281.054.354.126.097.197.071.378c-.011.178-.11.352-.299.52zm7.32-1.503l.319 1.411.279 1.489.229 1.472.134 1.289c.551.287.891.559 1.02.818.144.256.189.492.135.708-.06.298-.216.47-.469.517-.238.03-.526-.024-.866-.159l-.697.617-.841.636-.9.545a4.6 4.6 0 0 1-.85.371c-.498.141-.97.103-1.416-.117-.431-.221-.75-.593-.96-1.115a2.97 2.97 0 0 1-.208-1.111c-.002-.403.072-.791.219-1.163.146-.389.36-.746.643-1.071.298-.326.66-.596 1.085-.81.105-.061.251-.119.438-.175a2.7 2.7 0 0 1 .617-.099 1.97 1.97 0 0 1 .681.037c.232.052.455.162.669.329l-.132-.879-.147-.997-.185-.921-.165-.753c-.061-.234-.174-.366-.339-.394-.15-.046-.332-.015-.545.091-.365.174-.78.475-1.243.903a17.48 17.48 0 0 0-1.31 1.345c-.125.161-.284.245-.476.252-.177.006-.337-.047-.479-.159s-.232-.245-.267-.402c-.038-.173.003-.363.123-.571l.797-.993c.296-.343.612-.655.949-.938a6 6 0 0 1 1.043-.757c.362-.206.732-.34 1.111-.403.554-.084.999-.009 1.333.224.333.217.557.528.671.933zm-2.134 5.461c-.201.073-.411.203-.629.391a2.84 2.84 0 0 0-.552.624c-.15.228-.255.483-.318.764a1.26 1.26 0 0 0 .094.763c.044.091.116.155.217.191.117.034.237.027.36-.02.372-.127.782-.33 1.231-.611.463-.299.821-.6 1.074-.906-.012-.095-.074-.208-.187-.339a3.08 3.08 0 0 0-.389-.412c-.147-.143-.306-.261-.479-.352-.156-.094-.297-.125-.422-.093zm9.35-4.074c.148.159.295.366.439.623.158.238.286.489.383.751l.482 1.367.547 1.505.536 1.602.481 1.561c.181.687.208 1.361.079 2.022a4.43 4.43 0 0 1-.763 1.859c-.398.564-.92 1.04-1.566 1.425s-1.395.647-2.249.784c-.193.008-.403-.063-.631-.213-.226-.133-.349-.287-.371-.462-.037-.173.025-.325.186-.458.179-.119.361-.206.548-.261.33-.072.662-.186.998-.34a3.92 3.92 0 0 0 .972-.554 4.05 4.05 0 0 0 .773-.796 2.79 2.79 0 0 0 .502-1.029c.076-.3.089-.656.038-1.069a8.42 8.42 0 0 0-.25-1.251c-.099-.407-.218-.787-.358-1.141l-.32-.831c-.097.125-.226.262-.385.41-.143.147-.311.288-.504.425a2.99 2.99 0 0 1-.658.346 2.33 2.33 0 0 1-.73.163c-.272.017-.538-.047-.797-.193-.244-.147-.47-.345-.678-.594-.21-.264-.393-.572-.549-.924a4.55 4.55 0 0 1-.283-1.125c-.085-.957.05-1.828.405-2.613.369-.803 1.028-1.472 1.978-2.008l.304-.086c.141-.033.284-.051.428-.053.143-.017.28-.018.411-.002.147.015.272.048.375.099.19.106.3.278.329.516s-.005.42-.102.545zm-2.601 3.632a4.39 4.39 0 0 0 .121.589c.057.203.179.341.365.415.204.088.437.075.697-.037.276-.115.521-.282.736-.502.201-.202.321-.41.359-.624.052-.232.016-.526-.108-.881l-.403-1.112c-.144-.385-.251-.735-.322-1.048-.179.118-.369.279-.57.481a3.01 3.01 0 0 0-.489.737c-.144.276-.26.58-.348.913a3.18 3.18 0 0 0-.038 1.069zm12.222-3.822a8.7 8.7 0 0 1-1.895 1.103c-.692.278-1.45.468-2.276.57.1.551.314.977.64 1.275.325.283.706.429 1.142.44a2.46 2.46 0 0 0 .76-.117c.264-.081.501-.183.712-.305a4.88 4.88 0 0 0 .599-.437c.175-.15.326-.298.454-.442s.268-.243.423-.294c.153-.067.271-.09.354-.068.233.052.341.281.326.686-.191.539-.503 1.021-.934 1.444-.434.408-.939.696-1.515.863a3.55 3.55 0 0 1-1.581.122c-.557-.077-1.076-.295-1.555-.655-.41-.321-.741-.715-.992-1.184a5.66 5.66 0 0 1-.544-1.481c-.108-.487-.126-.96-.054-1.42.089-.462.255-.878.5-1.246.243-.385.565-.715.967-.99s.886-.463 1.454-.565c.677-.131 1.312-.08 1.905.153s1.033.607 1.322 1.119c.164.286.228.545.192.775-.021.228-.155.446-.404.654zm-2.938-1.284a2.88 2.88 0 0 0-.504.231c-.165.101-.319.225-.462.371-.129.129-.247.281-.355.455a.92.92 0 0 0-.129.524c.27-.033.561-.093.872-.18l.933-.284a7.95 7.95 0 0 0 .825-.367c.258-.128.468-.259.629-.392a.9.9 0 0 0-.782-.46c-.343-.038-.685-.004-1.027.102z" class="F"/><path d="M319.699 350.643c4.271 0 8.849.538 11.635-3.369.999-1.401 2.436-4.274 2.436-7.965 0-3.161-.673-8.21-2.088-11.067-.533-1.075-1.768-2.44-.19-1.399 1.065.703 2.324 2.039 3.571 2.039.769 0-1.205-1.146-1.831-1.647-.48-.385-1.847-.845-2.456-.765-.847.112-1.186 3.707-1.186 4.545" stroke-width="1.4" class="B K L"/><rect x="487.5" y="63.961" width="95" height="31" rx="15.5" class="D"/><path d="M510.071 83.461v-8h3.305c.599 0 1.116.108 1.551.324s.774.521 1.011.922.356.871.356 1.418c0 .555-.121 1.026-.363 1.414s-.586.68-1.032.883-.972.301-1.582.301h-2.089V79.2h1.73c.292 0 .535-.038.73-.113s.348-.195.45-.352.152-.362.152-.609-.051-.452-.152-.613a.92.92 0 0 0-.45-.367c-.197-.083-.441-.125-.73-.125h-.953v6.441h-1.934zm4.504-3.656l1.992 3.656h-2.109l-1.953-3.656h2.07zm5.466 3.77c-.628 0-1.169-.124-1.625-.371a2.57 2.57 0 0 1-1.047-1.066c-.242-.464-.363-1.014-.363-1.652 0-.62.122-1.161.367-1.625s.59-.828 1.035-1.086.97-.391 1.574-.391a3.31 3.31 0 0 1 1.172.199 2.52 2.52 0 0 1 .918.59c.258.26.459.582.602.965s.215.816.215 1.309v.477h-5.215v-1.109h3.437c-.002-.203-.05-.384-.144-.543s-.223-.283-.387-.371-.348-.137-.559-.137-.404.048-.574.144-.303.223-.402.387-.151.345-.156.551v1.129a1.38 1.38 0 0 0 .144.645c.097.182.233.324.41.426a1.25 1.25 0 0 0 .633.152c.169 0 .323-.023.461-.07s.257-.116.356-.207.173-.203.222-.336l1.754.051c-.073.393-.233.736-.48 1.027a2.44 2.44 0 0 1-.965.676c-.399.159-.86.238-1.383.238zm9.062-4.281l-1.754.047a.66.66 0 0 0-.149-.332.8.8 0 0 0-.316-.23 1.08 1.08 0 0 0-.446-.086 1.13 1.13 0 0 0-.566.133c-.154.088-.229.208-.226.359-.003.117.044.219.14.305s.275.155.527.207l1.157.219c.599.115 1.044.305 1.336.57s.442.617.445 1.055c-.003.412-.125.77-.367 1.074s-.568.542-.985.711-.893.25-1.429.25c-.857 0-1.533-.176-2.028-.527s-.773-.828-.843-1.422l1.886-.047c.042.219.15.385.325.5s.397.172.668.172c.244 0 .444-.046.597-.137s.232-.212.235-.363c-.003-.135-.063-.243-.18-.324s-.301-.148-.551-.195l-1.047-.199c-.601-.109-1.049-.311-1.344-.605s-.44-.675-.437-1.133c-.003-.401.104-.743.32-1.027s.524-.505.922-.656.869-.227 1.41-.227c.813 0 1.453.171 1.922.512s.728.805.778 1.398zm3.893 4.281c-.628 0-1.169-.124-1.625-.371a2.57 2.57 0 0 1-1.047-1.066c-.242-.464-.363-1.014-.363-1.652 0-.62.122-1.161.367-1.625s.59-.828 1.035-1.086.97-.391 1.574-.391a3.31 3.31 0 0 1 1.172.199c.355.133.661.329.918.59s.459.582.602.965.215.816.215 1.309v.477h-5.215v-1.109h3.437c-.002-.203-.05-.384-.144-.543s-.223-.283-.387-.371-.348-.137-.558-.137-.405.048-.575.144-.303.223-.402.387-.151.345-.156.551v1.129a1.38 1.38 0 0 0 .144.645c.097.182.233.324.41.426s.388.152.633.152c.17 0 .323-.023.461-.07s.257-.116.356-.207.173-.203.222-.336l1.754.051c-.073.393-.233.736-.48 1.027a2.44 2.44 0 0 1-.965.676c-.399.159-.859.238-1.383.238zm5.515-.012c-.383 0-.723-.064-1.02-.191a1.59 1.59 0 0 1-.699-.586c-.169-.263-.254-.592-.254-.988 0-.333.059-.615.176-.844s.279-.415.484-.559.443-.251.711-.324.555-.126.86-.152l.824-.098c.208-.037.359-.087.453-.152s.144-.163.144-.285v-.02c0-.201-.069-.355-.207-.465s-.324-.164-.558-.164c-.253 0-.456.055-.61.164s-.251.26-.293.453l-1.761-.062c.052-.365.186-.69.402-.977s.518-.516.899-.68.842-.25 1.378-.25c.383 0 .736.046 1.059.137s.604.219.844.391.424.378.554.625.2.53.2.848v4.078H540.3v-.836h-.047c-.107.203-.244.375-.41.516s-.358.246-.582.316a2.48 2.48 0 0 1-.75.105zm.59-1.25c.205 0 .39-.042.554-.125s.3-.198.399-.344.148-.32.148-.516v-.57c-.055.029-.121.055-.199.078l-.25.066-.281.055-.278.043a1.74 1.74 0 0 0-.461.133.73.73 0 0 0-.289.234c-.065.094-.097.206-.097.336 0 .198.07.349.211.453s.324.156.543.156zm4.164 1.148v-6h1.855v1.094h.063c.109-.396.287-.69.535-.883a1.35 1.35 0 0 1 .863-.293 1.97 1.97 0 0 1 .273.02 1.55 1.55 0 0 1 .262.051v1.66a1.83 1.83 0 0 0-.359-.074 3.19 3.19 0 0 0-.391-.027c-.226 0-.431.051-.613.152a1.09 1.09 0 0 0-.426.418 1.24 1.24 0 0 0-.152.625v3.258h-1.91zm7.119.113c-.633 0-1.176-.13-1.629-.391a2.64 2.64 0 0 1-1.039-1.086c-.242-.466-.363-1.005-.363-1.617s.121-1.154.363-1.617a2.66 2.66 0 0 1 1.043-1.09c.453-.26.993-.391 1.621-.391.555 0 1.038.1 1.449.301s.737.484.969.852.358.793.371 1.285h-1.785c-.037-.307-.141-.548-.313-.723s-.39-.262-.664-.262c-.221 0-.415.063-.582.188s-.297.305-.39.547-.137.536-.137.891.045.654.137.898.224.426.39.551.361.184.582.184c.177 0 .334-.038.469-.113s.251-.186.34-.332.144-.328.168-.539h1.785c-.018.495-.142.927-.371 1.297s-.546.657-.957.863-.895.305-1.457.305zm5.673-3.535v3.422h-1.911v-8h1.848v3.102h.067c.135-.37.356-.659.664-.867s.688-.312 1.136-.312c.422 0 .789.094 1.102.281s.555.447.726.785.261.734.258 1.188v3.824h-1.91v-3.449c.003-.333-.081-.594-.25-.781s-.407-.281-.715-.281c-.2 0-.377.044-.531.133a.9.9 0 0 0-.355.371 1.28 1.28 0 0 0-.129.586z" class="F"/><rect x="487.5" y="63.961" width="95" height="31" rx="15.5" class="B C"/><rect x="487.5" y="247.961" width="95" height="31" rx="15.5" class="D"/><path d="M505.049 267.461v-8h1.934v6.43h3.328v1.57h-5.262zm9.068.113c-.628 0-1.17-.123-1.625-.371s-.802-.605-1.047-1.066-.363-1.014-.363-1.652c0-.62.122-1.162.367-1.625s.59-.829 1.035-1.086.97-.391 1.574-.391a3.31 3.31 0 0 1 1.172.199 2.53 2.53 0 0 1 .918.59c.258.261.458.582.602.965s.214.816.214 1.309v.476h-5.214v-1.109h3.437a1.08 1.08 0 0 0-.145-.543.97.97 0 0 0-.386-.371 1.12 1.12 0 0 0-.559-.137c-.213 0-.405.048-.574.144s-.303.223-.402.387-.151.345-.157.551v1.129c0 .245.049.46.145.644s.233.325.41.426.388.153.633.153c.169 0 .323-.024.461-.071s.256-.116.355-.207a.86.86 0 0 0 .223-.336l1.754.051c-.073.393-.233.736-.481 1.027s-.566.515-.964.676-.86.238-1.383.238zm5.514-.011c-.382 0-.722-.064-1.019-.192a1.58 1.58 0 0 1-.699-.586c-.17-.263-.254-.592-.254-.988 0-.333.058-.614.175-.844s.279-.415.485-.558a2.27 2.27 0 0 1 .711-.324c.268-.076.554-.127.859-.153l.824-.097c.209-.037.36-.088.454-.153s.144-.163.144-.285v-.019c0-.201-.069-.356-.207-.465s-.324-.164-.559-.164c-.252 0-.455.054-.609.164a.72.72 0 0 0-.293.453l-1.762-.063c.052-.364.187-.69.403-.976s.518-.516.898-.68.843-.25 1.379-.25c.383 0 .736.046 1.059.137s.604.219.843.39a1.77 1.77 0 0 1 .555.625c.133.248.199.53.199.848v4.078h-1.797v-.836h-.046a1.71 1.71 0 0 1-.411.516c-.164.14-.358.246-.582.316s-.471.106-.75.106zm.59-1.25c.206 0 .391-.042.555-.125s.299-.198.398-.344.149-.32.149-.516v-.57c-.055.029-.121.055-.199.078l-.25.067-.282.054-.277.043c-.18.029-.333.073-.461.133s-.221.138-.289.234-.098.206-.098.336a.53.53 0 0 0 .211.453c.143.105.324.157.543.157zm6.356 1.234c-.443 0-.845-.114-1.207-.344s-.651-.573-.868-1.031-.324-1.027-.324-1.707c0-.706.112-1.286.336-1.742s.517-.793.879-1.012.757-.328 1.176-.328c.315 0 .584.055.808.164s.409.245.555.414a1.93 1.93 0 0 1 .332.528h.039v-3.028h1.91v8h-1.89v-.972h-.059c-.081.184-.195.358-.344.519s-.334.292-.558.391-.483.148-.785.148zm.664-1.488c.231 0 .429-.065.593-.195s.291-.319.379-.559.133-.521.133-.844a2.41 2.41 0 0 0-.133-.847c-.086-.237-.212-.42-.379-.547s-.362-.192-.593-.192c-.237 0-.438.065-.602.196s-.289.313-.375.55-.125.517-.125.84a2.5 2.5 0 0 0 .129.844c.086.24.21.426.371.559a.94.94 0 0 0 .602.195zm6.985 1.515c-.628 0-1.169-.123-1.625-.371s-.802-.605-1.047-1.066-.363-1.014-.363-1.652c0-.62.122-1.162.367-1.625s.59-.829 1.035-1.086.97-.391 1.574-.391c.428 0 .818.066 1.172.199s.661.33.918.59.459.582.602.965a3.7 3.7 0 0 1 .215 1.309v.476h-5.215v-1.109h3.437c-.002-.203-.05-.384-.144-.543a.98.98 0 0 0-.387-.371c-.161-.091-.348-.137-.558-.137s-.405.048-.575.144-.303.223-.402.387-.151.345-.156.551v1.129c0 .245.048.46.144.644a1.04 1.04 0 0 0 .41.426c.177.102.388.153.633.153.169 0 .323-.024.461-.071a.99.99 0 0 0 .356-.207c.099-.091.173-.203.222-.336l1.754.051a2.17 2.17 0 0 1-.48 1.027c-.245.289-.567.515-.965.676s-.859.238-1.383.238zm3.823-.113v-6h1.856v1.094h.062c.11-.396.288-.69.535-.883s.536-.293.864-.293c.088 0 .179.007.273.02a1.56 1.56 0 0 1 .262.05v1.661c-.091-.032-.211-.056-.359-.075a3.24 3.24 0 0 0-.391-.027 1.24 1.24 0 0 0-.613.152c-.18.099-.322.239-.426.418s-.153.386-.153.625v3.258h-1.91zm9.868-4.168l-1.753.047a.66.66 0 0 0-.149-.332c-.081-.099-.186-.176-.316-.23a1.07 1.07 0 0 0-.446-.086c-.221 0-.41.044-.566.132s-.229.209-.227.36c-.002.117.045.219.141.305s.275.154.527.207l1.157.218c.599.115 1.044.305 1.336.571s.442.617.445 1.054c-.003.412-.125.77-.367 1.075s-.568.541-.985.71-.893.25-1.429.25c-.857 0-1.533-.175-2.028-.527s-.773-.828-.843-1.422l1.886-.047c.042.219.15.386.325.5s.397.172.667.172c.245 0 .444-.045.598-.136s.232-.213.235-.364c-.003-.135-.063-.243-.18-.324s-.301-.148-.551-.195l-1.047-.2c-.601-.109-1.049-.311-1.344-.605s-.44-.674-.437-1.133c-.003-.401.104-.743.32-1.027s.524-.505.922-.656.869-.227 1.41-.227c.813 0 1.453.171 1.922.512s.728.804.777 1.398zm3 .746v3.422h-1.911v-8h1.848v3.102h.066a1.74 1.74 0 0 1 .664-.867c.31-.209.689-.313 1.137-.313.422 0 .789.094 1.102.281s.554.447.726.785.261.735.258 1.188v3.824h-1.91v-3.449c.003-.333-.081-.594-.25-.781s-.408-.282-.715-.282a1.05 1.05 0 0 0-.531.133.91.91 0 0 0-.356.371c-.083.162-.126.357-.128.586zm5.083 3.422v-6h1.91v6H556zm.957-6.699c-.269 0-.499-.089-.692-.266a.85.85 0 0 1-.289-.648c0-.25.096-.464.289-.641a.98.98 0 0 1 .692-.269c.27 0 .501.09.691.269s.289.391.289.641a.85.85 0 0 1-.289.648.98.98 0 0 1-.691.266zm2.168 8.949v-8.25h1.891v1.028h.059c.078-.183.189-.359.332-.528a1.67 1.67 0 0 1 .554-.414c.227-.109.498-.164.813-.164.417 0 .806.109 1.168.328s.659.556.883 1.012.336 1.036.336 1.742c0 .68-.108 1.249-.325 1.707s-.502.802-.867 1.031-.764.344-1.207.344c-.302 0-.564-.049-.785-.148s-.408-.229-.559-.391a1.87 1.87 0 0 1-.343-.519h-.039v3.222h-1.911zm1.872-5.25c0 .323.043.604.128.844s.215.426.379.559.366.195.598.195.434-.065.598-.195.287-.319.371-.559a2.5 2.5 0 0 0 .129-.844c0-.323-.043-.603-.129-.84s-.207-.42-.371-.55a.92.92 0 0 0-.598-.196c-.234 0-.434.064-.598.192s-.29.31-.379.547-.128.519-.128.847z" class="F"/><rect x="487.5" y="247.961" width="95" height="31" rx="15.5" class="B C"/><rect x="487.5" y="155.961" width="95" height="31" rx="15.5" class="D"/><path d="M500.576 167.461l1.789 5.86h.066l1.789-5.86h2.164l-2.699 8h-2.574l-2.7-8h2.165zm6.559 8v-6h1.911v6h-1.911zm.957-6.699c-.268 0-.498-.089-.691-.266a.85.85 0 0 1-.289-.648c0-.25.096-.464.289-.641a.98.98 0 0 1 .691-.269c.271 0 .502.09.692.269s.289.391.289.641a.85.85 0 0 1-.289.648.98.98 0 0 1-.692.266zm7.298 2.531l-1.754.047a.65.65 0 0 0-.149-.332c-.08-.099-.186-.176-.316-.23s-.276-.086-.445-.086c-.222 0-.411.044-.567.132s-.229.209-.226.36c-.003.117.044.219.14.305s.275.154.528.207l1.156.218c.599.115 1.044.305 1.336.571s.443.617.445 1.054c-.002.412-.125.77-.367 1.075s-.568.541-.984.71-.894.25-1.43.25c-.857 0-1.533-.175-2.027-.527s-.774-.828-.844-1.422l1.887-.047a.73.73 0 0 0 .324.5c.174.115.397.172.668.172.244 0 .444-.045.597-.136s.232-.213.235-.364c-.003-.135-.063-.243-.18-.324s-.301-.148-.551-.195l-1.047-.2c-.601-.109-1.049-.311-1.343-.605s-.44-.674-.438-1.133c-.002-.401.104-.743.32-1.027s.524-.505.922-.656.869-.227 1.41-.227c.813 0 1.454.171 1.922.512a1.83 1.83 0 0 1 .778 1.398zm4.85 1.578v-3.41h1.906v6h-1.82v-1.117h-.063c-.133.367-.359.659-.68.875s-.701.32-1.152.32c-.409 0-.768-.093-1.078-.281s-.551-.449-.723-.785-.259-.734-.261-1.188v-3.824h1.91v3.449c.002.326.088.582.258.77s.399.281.691.281c.19 0 .361-.041.512-.125s.274-.209.363-.371.137-.362.137-.594zm4.703 2.692c-.383 0-.723-.064-1.019-.192a1.58 1.58 0 0 1-.7-.586c-.169-.263-.254-.592-.254-.988 0-.333.059-.614.176-.844s.279-.415.485-.558.442-.252.711-.324.554-.127.859-.153l.824-.097c.209-.037.36-.088.453-.153s.145-.163.145-.285v-.019c0-.201-.069-.356-.207-.465s-.324-.164-.559-.164c-.252 0-.456.054-.609.164a.72.72 0 0 0-.293.453l-1.762-.063a2.08 2.08 0 0 1 .402-.976c.219-.289.519-.516.899-.68s.842-.25 1.379-.25c.383 0 .736.046 1.058.137s.605.219.844.39a1.77 1.77 0 0 1 .555.625c.133.248.199.53.199.848v4.078h-1.797v-.836h-.047c-.106.203-.243.375-.41.516s-.358.246-.582.316-.471.106-.75.106zm.59-1.25c.206 0 .391-.042.555-.125s.299-.198.398-.344.149-.32.149-.516v-.57a1.1 1.1 0 0 1-.2.078l-.25.067-.281.054-.277.043c-.18.029-.334.073-.461.133s-.222.138-.289.234-.098.206-.098.336c0 .198.07.349.211.453s.324.157.543.157zm5.964-6.852v8h-1.91v-8h1.91zm6.316 8h-2.957v-8h2.953c.816 0 1.517.16 2.106.481s1.047.776 1.367 1.375.481 1.31.481 2.14-.161 1.55-.481 2.149a3.29 3.29 0 0 1-1.363 1.379c-.591.317-1.293.476-2.106.476zm-1.023-1.648h.949c.448 0 .827-.076 1.137-.227s.548-.402.707-.746.242-.807.242-1.383-.081-1.034-.242-1.375-.4-.591-.715-.742-.698-.23-1.156-.23h-.922v4.703zm8.796 1.761c-.627 0-1.169-.123-1.625-.371s-.802-.605-1.047-1.066-.363-1.014-.363-1.652c0-.62.122-1.162.367-1.625s.59-.829 1.035-1.086.97-.391 1.575-.391c.427 0 .817.066 1.171.199s.661.33.918.59.459.582.602.965a3.7 3.7 0 0 1 .215 1.309v.476h-5.215v-1.109h3.437c-.002-.203-.05-.384-.144-.543a.98.98 0 0 0-.387-.371c-.161-.091-.347-.137-.558-.137s-.405.048-.575.144-.303.223-.402.387-.151.345-.156.551v1.129c0 .245.048.46.144.644a1.04 1.04 0 0 0 .41.426c.178.102.389.153.633.153a1.42 1.42 0 0 0 .461-.071.99.99 0 0 0 .356-.207c.099-.091.173-.203.222-.336l1.754.051a2.17 2.17 0 0 1-.48 1.027c-.245.289-.567.515-.965.676s-.859.238-1.383.238zm8.952-4.281l-1.754.047a.65.65 0 0 0-.149-.332c-.08-.099-.186-.176-.316-.23s-.276-.086-.445-.086c-.222 0-.411.044-.567.132s-.229.209-.226.36c-.003.117.044.219.14.305s.275.154.528.207l1.156.218c.599.115 1.044.305 1.336.571s.443.617.445 1.054c-.002.412-.125.77-.367 1.075s-.568.541-.984.71-.894.25-1.43.25c-.857 0-1.533-.175-2.027-.527s-.774-.828-.844-1.422l1.886-.047c.042.219.15.386.325.5s.397.172.668.172c.244 0 .444-.045.597-.136s.232-.213.235-.364c-.003-.135-.063-.243-.18-.324s-.301-.148-.551-.195l-1.047-.2c-.601-.109-1.049-.311-1.343-.605s-.44-.674-.438-1.133c-.002-.401.104-.743.32-1.027s.524-.505.922-.656.869-.227 1.41-.227c.813 0 1.454.171 1.922.512a1.83 1.83 0 0 1 .778 1.398zm.979 4.168v-6h1.91v6h-1.91zm.957-6.699c-.269 0-.499-.089-.692-.266a.85.85 0 0 1-.289-.648c0-.25.096-.464.289-.641a.98.98 0 0 1 .692-.269c.27 0 .501.09.691.269s.289.391.289.641a.85.85 0 0 1-.289.648.98.98 0 0 1-.691.266zm4.855 9.074c-.57 0-1.058-.079-1.464-.238s-.726-.376-.957-.652a1.8 1.8 0 0 1-.418-.938l1.808-.102a.71.71 0 0 0 .188.321c.093.091.214.161.363.211s.328.074.531.074c.32 0 .585-.078.793-.234s.317-.424.317-.809v-1.055h-.067a1.4 1.4 0 0 1-.344.496 1.62 1.62 0 0 1-.574.344 2.26 2.26 0 0 1-.781.125c-.438 0-.839-.101-1.203-.305s-.653-.523-.871-.953-.325-.988-.325-1.668c0-.7.112-1.277.336-1.73s.517-.793.879-1.012.757-.328 1.176-.328c.315 0 .585.055.809.164s.412.245.558.414a1.93 1.93 0 0 1 .332.528h.055v-1.028h1.902v6.024c0 .507-.127.936-.382 1.285s-.612.613-1.071.793-.988.273-1.59.273zm.059-3.847c.232 0 .43-.062.594-.184s.29-.298.379-.527.132-.504.132-.825-.044-.605-.132-.839a1.17 1.17 0 0 0-.379-.547c-.164-.128-.362-.192-.594-.192-.237 0-.438.065-.602.196s-.289.313-.375.55-.125.512-.125.832.043.595.129.825.21.405.371.527.365.184.602.184zm6.002-1.95v3.422h-1.91v-6h1.817v1.102h.066c.133-.367.359-.655.68-.864s.701-.316 1.144-.316c.422 0 .788.095 1.098.285s.555.451.726.789.261.729.258 1.18v3.824h-1.91v-3.449c.003-.333-.082-.594-.254-.781s-.405-.282-.707-.282a1.05 1.05 0 0 0-.531.133.89.89 0 0 0-.352.371c-.08.162-.122.357-.125.586z" class="F"/><rect x="487.5" y="155.961" width="95" height="31" rx="15.5" class="B C"/><rect x="487.5" y="109.961" width="95" height="31" rx="15.5" class="D"/><rect x="501.5" y="120.461" width="67" height="10" rx="5" class="E"/><rect x="487.5" y="109.961" width="95" height="31" rx="15.5" class="B C"/><rect x="487.5" y="201.961" width="95" height="31" rx="15.5" class="D"/><rect x="501.5" y="212.461" width="67" height="10" rx="5" class="E"/><rect x="487.5" y="201.961" width="95" height="31" rx="15.5" class="B C"/><rect x="487.5" y="292.961" width="95" height="31" rx="15.5" class="D"/><rect x="501.5" y="303.461" width="67" height="10" rx="5" class="E"/><g class="B C"><rect x="487.5" y="292.961" width="95" height="31" rx="15.5"/><circle cx="583" cy="66.461" r="12.833" fill="#f5c418"/></g><path d="M583.826 59.961l1.94 3.822h3.307c.182-.005.361.046.514.145a.91.91 0 0 1 .343.41c.07.168.088.353.052.532a.91.91 0 0 1-.258.468l-3.036 2.989 1.682 3.864a.92.92 0 0 1 .048.56c-.043.187-.144.356-.288.482s-.324.205-.515.223-.383-.023-.549-.12L583 71.044l-4.066 2.287c-.166.096-.358.138-.549.119s-.371-.097-.515-.223-.245-.295-.288-.482a.92.92 0 0 1 .048-.56l1.682-3.864-3.036-2.989a.91.91 0 0 1-.258-.468c-.036-.178-.018-.364.052-.532a.91.91 0 0 1 .343-.41c.153-.099.332-.15.514-.145h3.307l1.942-3.822a.93.93 0 0 1 .827-.494c.169.001.336.047.481.136s.263.214.342.364z" class="D"/><circle cx="583" cy="158.461" r="12.833" fill="#f5c418" class="B C"/><path d="M583.826 151.961l1.94 3.823h3.307a.9.9 0 0 1 .514.145.91.91 0 0 1 .395.941.91.91 0 0 1-.258.469l-3.036 2.988 1.682 3.864a.92.92 0 0 1 .048.56c-.043.187-.144.356-.288.482s-.324.205-.515.224-.383-.023-.549-.12L583 163.044l-4.066 2.287c-.166.096-.358.138-.549.12s-.371-.097-.515-.224-.245-.295-.288-.482a.92.92 0 0 1 .048-.56l1.682-3.864-3.036-2.989c-.131-.126-.221-.29-.258-.468s-.018-.364.052-.532.19-.31.343-.409a.9.9 0 0 1 .514-.146h3.307l1.942-3.822a.93.93 0 0 1 .345-.362c.145-.087.312-.132.482-.132a.94.94 0 0 1 .481.136c.145.088.263.214.342.364z" class="D"/><defs><clipPath id="A"><path transform="translate(51 261.739)" d="M0 0h24v36.259H0z" class="D"/></clipPath></defs></svg>