<svg width="219" height="65" viewBox="0 0 219 65" fill="none" xmlns="http://www.w3.org/2000/svg">
<path d="M25.1582 19.9206L47.0677 32.5728L68.9804 19.9206L47.0677 7.27148L25.1582 19.9206Z" fill="white" fill-opacity="0.32"/>
<path d="M47.0677 57.8736V32.5723L25.1582 45.2245L47.0677 57.8736Z" fill="white" fill-opacity="0.32"/>
<path d="M47.0684 32.5723V57.8736L68.981 45.2245L47.0684 32.5723Z" fill="white" fill-opacity="0.32"/>
<path d="M25.1582 19.9199V45.2244L47.0677 32.5722L25.1582 19.9199Z" fill="white" fill-opacity="0.32"/>
<path d="M77.2422 44.067V44.0225C77.2422 39.411 80.6937 35.6361 85.6043 35.6361C86.7817 35.5945 87.9548 35.7996 89.0482 36.2381C90.1417 36.6766 91.1313 37.3388 91.9538 38.1824L90.1229 40.2678C88.8255 39.0553 87.4352 38.247 85.5841 38.247C82.5004 38.247 80.229 40.7973 80.229 43.97V44.0184C80.229 47.1911 82.4802 49.7656 85.5841 49.7656C87.5767 49.7656 88.8498 48.9775 90.2401 47.6801L92.071 49.5312C90.3775 51.2934 88.5265 52.4048 85.4912 52.4048C80.7625 52.4094 77.2422 48.7269 77.2422 44.0669V44.067ZM93.7159 46.0878V46.0433C93.7515 44.3415 94.451 42.7209 95.665 41.5277C96.8789 40.3344 98.5113 39.6629 100.213 39.6566C101.916 39.6503 103.553 40.3096 104.776 41.4938C105.999 42.6781 106.71 44.2934 106.758 45.9949V46.0433C106.755 46.8944 106.581 47.7362 106.248 48.5194C105.915 49.3025 105.429 50.0113 104.819 50.6042C104.208 51.1971 103.485 51.6621 102.693 51.972C101.9 52.2819 101.054 52.4304 100.203 52.4089C99.3586 52.4305 98.5187 52.2829 97.7325 51.9747C96.9464 51.6665 96.2299 51.204 95.6253 50.6145C95.0207 50.025 94.5403 49.3204 94.2124 48.5422C93.8845 47.7641 93.7156 46.9282 93.7159 46.0837V46.0878ZM103.957 46.0878V46.0433C103.957 43.8851 102.401 42.1027 100.203 42.1027C98.0041 42.1027 96.5168 43.8649 96.5168 45.9948V46.0433C96.5168 48.1732 98.0688 49.9596 100.247 49.9596C102.519 49.955 103.957 48.1934 103.957 46.0837V46.0878ZM109.377 39.9041H112.182V42.6605C112.946 40.8296 114.357 39.5767 116.515 39.6697V42.6281H116.349C113.896 42.6281 112.182 44.2448 112.182 47.4781V52.1341H109.377V39.9041ZM118.435 46.0635V46.0191C118.435 42.519 120.916 39.6495 124.412 39.6495C128.304 39.6495 130.277 42.7049 130.277 46.2293C130.277 46.4839 130.252 46.7385 130.228 47.0133H121.244C121.543 49.0059 122.957 50.1213 124.764 50.1213C125.388 50.1243 126.005 49.9959 126.576 49.7445C127.147 49.4932 127.659 49.1244 128.078 48.6623L129.723 50.1213C129.122 50.8634 128.358 51.4565 127.49 51.854C126.622 52.2516 125.674 52.4429 124.719 52.413C121.171 52.4084 118.435 49.8385 118.435 46.0595L118.435 46.0635ZM127.496 45.1623C127.31 43.3556 126.243 41.9289 124.392 41.9289C122.674 41.9289 121.47 43.2506 121.215 45.1623H127.496Z" fill="white" fill-opacity="0.32"/>
<path d="M133.426 35.9113H136.275V49.5357H144.803V52.1304H133.426V35.9113ZM145.684 46.0841V46.0355C145.679 44.3057 146.36 42.6445 147.579 41.4174C148.799 40.1902 150.455 39.4975 152.185 39.4916C153.915 39.4857 155.576 40.1671 156.804 41.3859C158.031 42.6048 158.724 44.2613 158.731 45.9911V46.0355C158.728 46.8874 158.554 47.7302 158.221 48.5143C157.888 49.2985 157.402 50.0082 156.791 50.6019C156.18 51.1956 155.457 51.6612 154.663 51.9716C153.87 52.2819 153.023 52.4307 152.171 52.4092C151.327 52.4308 150.487 52.2831 149.701 51.9749C148.915 51.6667 148.198 51.2042 147.593 50.6147C146.989 50.0252 146.508 49.3206 146.181 48.5425C145.853 47.7643 145.684 46.9284 145.684 46.084V46.0841ZM155.926 46.0841V46.0355C155.926 43.8813 154.374 42.0989 152.171 42.0989C149.968 42.0989 148.489 43.8571 148.489 45.9911V46.0355C148.489 48.1695 150.041 49.9519 152.219 49.9519C154.491 49.9519 155.926 48.1897 155.926 46.084V46.0841ZM161.135 54.426L162.178 52.3163C163.475 53.1587 164.988 53.6092 166.535 53.6137C169.037 53.6137 170.403 52.3163 170.403 49.859V48.9092C169.384 50.2308 168.111 51.1563 166.094 51.1563C163.221 51.1563 160.533 49.0264 160.533 45.4334V45.3889C160.533 41.7514 163.245 39.6417 166.094 39.6417C166.923 39.6288 167.742 39.8108 168.487 40.1731C169.232 40.5353 169.881 41.0677 170.383 41.7272V39.8964H173.183V49.6286C173.183 51.6899 172.654 53.2176 171.631 54.2401C170.52 55.3516 168.802 55.8851 166.604 55.8851C164.682 55.9063 162.791 55.4018 161.135 54.4261V54.426ZM170.431 45.4132V45.3648C170.431 43.3722 168.786 42.0061 166.842 42.0061C164.898 42.0061 163.366 43.348 163.366 45.3648V45.4132C163.363 45.8652 163.451 46.3133 163.626 46.7302C163.801 47.1471 164.058 47.5241 164.384 47.8383C164.709 48.1524 165.094 48.3972 165.517 48.5576C165.94 48.7181 166.39 48.791 166.842 48.7718C168.782 48.7718 170.427 47.4017 170.427 45.4132H170.431ZM176.522 35.3535H179.533V38.021H176.522V35.3535ZM176.635 39.8963H179.444V52.1304H176.639L176.635 39.8963ZM182.314 46.0841V46.0355C182.303 45.1949 182.46 44.3606 182.776 43.5816C183.092 42.8025 183.56 42.0945 184.154 41.4989C184.747 40.9033 185.453 40.4323 186.231 40.1133C187.009 39.7944 187.843 39.634 188.683 39.6416C189.604 39.6061 190.521 39.7771 191.367 40.1422C192.214 40.5072 192.967 41.0571 193.574 41.7514L191.811 43.6267C190.955 42.7254 190.049 42.0989 188.659 42.0989C186.638 42.0989 185.114 43.8571 185.114 45.9911V46.0355C185.114 48.2139 186.622 49.9519 188.776 49.9519C190.098 49.9519 191.072 49.3496 191.953 48.4443L193.642 50.1135C192.8 51.1126 191.672 51.8305 190.41 52.171C189.148 52.5115 187.813 52.4584 186.582 52.0188C185.351 51.5792 184.284 50.7742 183.523 49.7113C182.762 48.6485 182.345 47.3787 182.326 46.0719L182.314 46.0841Z" fill="white" fill-opacity="0.32"/>
</svg>
