<svg width="127" height="49" viewBox="0 0 127 49" fill="none" xmlns="http://www.w3.org/2000/svg">
<g clip-path="url(#clip0_3990_101191)">
<path d="M0.408203 15.2856L16.8403 24.7748L33.2748 15.2856L16.8403 5.79883L0.408203 15.2856Z" fill="#05060F" fill-opacity="0.32"/>
<path d="M16.8403 43.7494V24.7734L0.408203 34.2626L16.8403 43.7494Z" fill="#05060F" fill-opacity="0.32"/>
<path d="M16.8408 24.7734V43.7494L33.2753 34.2626L16.8408 24.7734Z" fill="#05060F" fill-opacity="0.32"/>
<path d="M0.408203 15.2852V34.2635L16.8403 24.7743L0.408203 15.2852Z" fill="#05060F" fill-opacity="0.32"/>
<path d="M39.4707 25.3974V25.3641C39.4707 21.9054 42.0594 19.0743 45.7423 19.0743C46.6253 19.0431 47.5051 19.1969 48.3252 19.5257C49.1453 19.8546 49.8876 20.3513 50.5044 20.9839L49.1312 22.548C48.1582 21.6387 47.1155 21.0324 45.7272 21.0324C43.4143 21.0324 41.7108 22.9451 41.7108 25.3247V25.361C41.7108 27.7405 43.3992 29.6714 45.7272 29.6714C47.2216 29.6714 48.1764 29.0803 49.2191 28.1073L50.5923 29.4956C49.3222 30.8172 47.9339 31.6508 45.6574 31.6508C42.1109 31.6542 39.4707 28.8924 39.4707 25.3974V25.3974ZM51.826 26.913V26.8797C51.8527 25.6033 52.3773 24.3879 53.2878 23.4929C54.1983 22.598 55.4225 22.0944 56.6992 22.0896C57.9758 22.0849 59.2038 22.5794 60.1209 23.4676C61.038 24.3557 61.5716 25.5672 61.6078 26.8434V26.8797C61.6052 27.518 61.4751 28.1493 61.2253 28.7367C60.9755 29.3241 60.611 29.8557 60.1531 30.3003C59.6951 30.745 59.1531 31.0937 58.5586 31.3262C57.9641 31.5586 57.3292 31.67 56.6911 31.6539C56.058 31.67 55.4281 31.5593 54.8385 31.3282C54.2488 31.097 53.7115 30.7501 53.258 30.308C52.8046 29.8659 52.4443 29.3374 52.1984 28.7538C51.9524 28.1702 51.8258 27.5433 51.826 26.91V26.913ZM59.5071 26.913V26.8797C59.5071 25.261 58.3401 23.9242 56.6911 23.9242C55.0421 23.9242 53.9266 25.2458 53.9266 26.8433V26.8796C53.9266 28.4771 55.0906 29.8169 56.7245 29.8169C58.428 29.8134 59.5071 28.4922 59.5071 26.9099V26.913ZM63.572 22.2752H65.6757V24.3425C66.2486 22.9694 67.3065 22.0297 68.9252 22.0994V24.3183H68.8009C66.9609 24.3183 65.6757 25.5308 65.6757 27.9558V31.4477H63.572V22.2752ZM70.365 26.8948V26.8615C70.365 24.2364 72.2262 22.0843 74.8482 22.0843C77.7673 22.0843 79.2465 24.3759 79.2465 27.0191C79.2465 27.2101 79.2283 27.401 79.2102 27.6072H72.4718C72.6961 29.1016 73.757 29.9382 75.112 29.9382C75.5799 29.9404 76.043 29.8441 76.4712 29.6556C76.8995 29.467 77.2832 29.1905 77.5976 28.8439L78.8313 29.9382C78.3808 30.4948 77.8076 30.9395 77.1566 31.2377C76.5055 31.5359 75.7943 31.6793 75.0786 31.6569C72.4172 31.6535 70.3651 29.726 70.3651 26.8918L70.365 26.8948ZM77.161 26.2189C77.0216 24.8639 76.2213 23.7939 74.833 23.7939C73.5448 23.7939 72.6415 24.7851 72.4505 26.2189H77.161Z" fill="#05060F" fill-opacity="0.32"/>
<path d="M81.6084 19.2796H83.7454V29.4979H90.1413V31.444H81.6084V19.2796ZM90.8021 26.9093V26.8728C90.798 25.5755 91.3093 24.3296 92.2237 23.4092C93.138 22.4888 94.3805 21.9693 95.6779 21.9649C96.9752 21.9605 98.2212 22.4715 99.1418 23.3856C100.062 24.2998 100.582 25.5421 100.587 26.8395V26.8728C100.585 27.5118 100.455 28.1438 100.205 28.7319C99.9554 29.32 99.5907 29.8523 99.1324 30.2976C98.6742 30.7429 98.1316 31.0921 97.5366 31.3249C96.9415 31.5576 96.306 31.6692 95.6672 31.6531C95.0341 31.6693 94.4042 31.5585 93.8146 31.3274C93.225 31.0962 92.6876 30.7494 92.2342 30.3072C91.7807 29.8651 91.4204 29.3367 91.1745 28.7531C90.9285 28.1694 90.8019 27.5425 90.8021 26.9092V26.9093ZM98.4833 26.9093V26.8728C98.4833 25.2572 97.3193 23.9204 95.6672 23.9204C94.0152 23.9204 92.9058 25.239 92.9058 26.8395V26.8728C92.9058 28.4733 94.0698 29.8101 95.7036 29.8101C97.4072 29.8101 98.4833 28.4885 98.4833 26.9092V26.9093ZM102.391 33.1657L103.173 31.5834C104.146 32.2152 105.28 32.5531 106.44 32.5564C108.317 32.5564 109.341 31.5834 109.341 29.7404V29.0281C108.577 30.0193 107.622 30.7135 106.11 30.7135C103.955 30.7135 101.939 29.116 101.939 26.4212V26.3879C101.939 23.6598 103.973 22.0775 106.11 22.0775C106.731 22.0678 107.346 22.2043 107.904 22.476C108.463 22.7477 108.95 23.147 109.326 23.6416V22.2685H111.427V29.5677C111.427 31.1136 111.03 32.2594 110.263 33.0263C109.429 33.8599 108.141 34.26 106.492 34.26C105.05 34.2759 103.632 33.8975 102.391 33.1657V33.1657ZM109.362 26.4061V26.3698C109.362 24.8754 108.129 23.8508 106.671 23.8508C105.213 23.8508 104.064 24.8572 104.064 26.3698V26.4061C104.061 26.7451 104.127 27.0812 104.258 27.3939C104.39 27.7065 104.583 27.9893 104.827 28.2249C105.071 28.4605 105.36 28.6441 105.677 28.7644C105.994 28.8848 106.332 28.9394 106.671 28.925C108.126 28.925 109.359 27.8974 109.359 26.4061H109.362ZM113.93 18.8613H116.189V20.862H113.93V18.8613ZM114.015 22.2684H116.122V31.444H114.018L114.015 22.2684ZM118.274 26.9093V26.8728C118.266 26.2424 118.384 25.6166 118.621 25.0324C118.858 24.4481 119.209 23.9171 119.654 23.4704C120.099 23.0237 120.629 22.6704 121.212 22.4312C121.796 22.192 122.421 22.0717 123.051 22.0774C123.742 22.0508 124.43 22.179 125.065 22.4528C125.699 22.7266 126.265 23.139 126.719 23.6597L125.398 25.0662C124.755 24.3902 124.076 23.9204 123.033 23.9204C121.518 23.9204 120.375 25.239 120.375 26.8395V26.8728C120.375 28.5066 121.505 29.8101 123.121 29.8101C124.112 29.8101 124.843 29.3584 125.504 28.6794L126.771 29.9313C126.139 30.6806 125.293 31.219 124.347 31.4744C123.4 31.7298 122.398 31.69 121.475 31.3603C120.552 31.0306 119.752 30.4268 119.181 29.6297C118.611 28.8326 118.298 27.8802 118.283 26.9001L118.274 26.9093Z" fill="#05060F" fill-opacity="0.32"/>
</g>
<defs>
<clipPath id="clip0_3990_101191">
<rect width="126.363" height="48" fill="white" transform="translate(0.408203 0.775391)"/>
</clipPath>
</defs>
</svg>
