<svg width="64" height="65" viewBox="0 0 64 65" fill="none" xmlns="http://www.w3.org/2000/svg">
<path d="M29.0181 2.39222C30.8638 1.32889 33.1361 1.3289 34.9818 2.39222L56.5285 14.8054C58.3794 15.8717 59.52 17.8452 59.52 19.9813V44.9408C59.52 47.0769 58.3794 49.0503 56.5285 50.1166L34.9818 62.5298C33.1361 63.5932 30.8638 63.5932 29.0181 62.5298L7.47147 50.1166C5.6206 49.0503 4.47998 47.0769 4.47998 44.9408L4.47998 19.9813C4.47998 17.8452 5.6206 15.8717 7.47147 14.8054L29.0181 2.39222Z" fill="#DB2323"/>
<path d="M32.4474 32.2625C33.4888 33.3039 35.1772 33.3039 36.2186 32.2625C37.26 31.2211 37.26 29.5327 36.2186 28.4913C35.1772 27.4499 33.4888 27.4499 32.4474 28.4913C31.406 29.5327 31.406 31.2211 32.4474 32.2625Z" fill="white"/>
<path fill-rule="evenodd" clip-rule="evenodd" d="M43.5959 22.1523C43.5328 21.5209 43.0334 21.0215 42.402 20.9583C37.342 20.4519 32.9924 21.968 29.9539 24.3605C29.2295 24.9308 28.5712 25.5591 27.9936 26.2289C26.4225 25.2824 24.5794 25.0124 22.8625 25.7482C20.5977 26.7188 19.0754 29.2143 18.6745 32.8685C18.6331 33.2452 18.754 33.6217 19.007 33.9039C19.2599 34.1861 19.621 34.3473 19.9999 34.3473C22.9716 34.3471 24.5323 33.8471 25.4702 33.6095L30.9056 39.0693C30.4484 40.8626 30.1728 42.665 30.1727 44.52C30.1727 44.9066 30.3404 45.2741 30.6324 45.5273C30.9243 45.7806 31.3119 45.8947 31.6945 45.8401C35.2658 45.3301 37.6693 43.7381 38.6242 41.5099C39.3321 39.8582 39.1402 38.0915 38.2984 36.5852C38.9786 36.0017 39.6162 35.3351 40.1943 34.6006C42.5862 31.5616 44.1019 27.2118 43.5959 22.1523ZM33.6403 39.0148C34.4703 38.8338 35.2923 38.5242 36.0861 38.104C36.4663 38.9095 36.4799 39.7437 36.1731 40.4595C35.8033 41.3225 34.8443 42.2924 32.9032 42.8633C32.9646 42.1149 33.133 41.3973 33.3013 40.6801C33.4305 40.1294 33.5596 39.5789 33.6403 39.0148ZM31.9952 36.5241C34.0446 36.5006 36.1641 35.2247 38.0989 32.9513C39.8965 30.6673 41.1471 27.4124 41.0174 23.5368L41.0092 23.5365L41.0089 23.5284C37.1332 23.3984 33.8786 24.6493 31.5951 26.4472C29.2394 28.3021 28.0368 30.6231 28.0153 32.5441L31.9952 36.5241ZM26.4744 28.4262C26.0499 29.2201 25.7359 30.0426 25.5504 30.8734C24.9545 30.9519 24.374 31.0879 23.793 31.224C23.0699 31.3934 22.3461 31.563 21.5911 31.622C22.1015 29.55 23.0652 28.5625 23.9129 28.1992C24.6476 27.8844 25.5615 27.9237 26.4744 28.4262Z" fill="white"/>
<path d="M25.7264 37.3883C25.7264 38.1247 25.1295 38.7217 24.3931 38.7217C23.9324 38.7217 22.9251 38.774 22.5966 39.1754C22.1145 39.7647 22.2256 40.9268 22.3071 41.7801C22.3243 41.9604 22.3403 42.127 22.349 42.2714C22.4903 42.282 22.6526 42.2995 22.828 42.3185C23.6512 42.4076 24.7618 42.5278 25.336 42.1025C25.7588 41.6797 25.9618 40.9524 25.8964 40.3641C25.8151 39.6323 26.3425 38.973 27.0744 38.8917C27.8062 38.8104 28.4655 39.3378 28.5468 40.0697C28.6191 40.7208 28.5106 41.4971 28.3086 42.1607C28.1306 42.7456 27.7875 43.5539 27.1448 44.0619C26.677 44.4931 26.1022 44.7096 25.6029 44.8276C23.6116 45.2982 20.8097 44.9303 20.2499 44.3704C19.6901 43.8106 19.372 41.0651 19.8184 39.0633C19.9307 38.5597 20.1284 37.9952 20.5073 37.5184C20.9866 36.8764 21.7661 36.535 22.5174 36.3272C23.1803 36.1438 23.8891 36.055 24.3931 36.055C25.1295 36.055 25.7264 36.6519 25.7264 37.3883Z" fill="white"/>
</svg>
