<svg width="65" height="65" viewBox="0 0 65 65" fill="none" xmlns="http://www.w3.org/2000/svg">
<path d="M29.3516 2.39222C31.1973 1.32889 33.4696 1.3289 35.3153 2.39222L56.862 14.8054C58.7129 15.8717 59.8535 17.8452 59.8535 19.9813V44.9408C59.8535 47.0769 58.7129 49.0503 56.862 50.1166L35.3153 62.5298C33.4696 63.5932 31.1973 63.5932 29.3516 62.5298L7.80497 50.1166C5.95409 49.0503 4.81348 47.0769 4.81348 44.9408L4.81348 19.9813C4.81348 17.8452 5.95409 15.8717 7.80497 14.8054L29.3516 2.39222Z" fill="#F5C418"/>
<path fill-rule="evenodd" clip-rule="evenodd" d="M20.3335 20.4511C20.3335 19.72 20.9297 19.1274 21.6652 19.1274H33.6502C34.3857 19.1274 34.9819 19.72 34.9819 20.4511V36.3345C34.9819 37.0655 34.3857 37.6581 33.6502 37.6581H21.6652C20.9297 37.6581 20.3335 37.0655 20.3335 36.3345V20.4511ZM22.9968 21.7747V35.0109H32.3186V21.7747H22.9968Z" fill="white"/>
<path fill-rule="evenodd" clip-rule="evenodd" d="M37.6912 26.0617C37.8834 25.3561 38.6147 24.939 39.3246 25.13L44.6828 26.5718C45.3914 26.7625 45.8111 27.4872 45.6211 28.192L41.1405 44.8127C40.9502 45.5188 40.2199 45.9379 39.5095 45.7487L29.3102 43.0323C28.5998 42.8431 28.1782 42.1173 28.3686 41.4112C28.5589 40.7051 29.2892 40.2861 29.9996 40.4753L38.9126 42.8491L42.7048 28.7821L38.6286 27.6852C37.9187 27.4942 37.499 26.7673 37.6912 26.0617Z" fill="white"/>
</svg>
