<svg width="65" height="65" viewBox="0 0 65 65" fill="none" xmlns="http://www.w3.org/2000/svg">
<path d="M29.6847 2.39222C31.5304 1.32889 33.8026 1.3289 35.6483 2.39222L57.195 14.8054C59.0459 15.8717 60.1865 17.8452 60.1865 19.9813V44.9408C60.1865 47.0769 59.0459 49.0503 57.195 50.1166L35.6483 62.5298C33.8026 63.5932 31.5303 63.5932 29.6846 62.5298L8.13797 50.1166C6.2871 49.0503 5.14648 47.0769 5.14648 44.9408L5.14648 19.9813C5.14648 17.8452 6.2871 15.8717 8.13798 14.8054L29.6847 2.39222Z" fill="#12B823"/>
<path fill-rule="evenodd" clip-rule="evenodd" d="M19.3332 27.5958C19.3332 26.2238 20.4543 25.0934 21.815 25.0934C21.8625 25.0934 21.9099 25.0963 21.957 25.1021L32.5602 26.3999L43.3785 25.1017C43.4246 25.0962 43.4711 25.0934 43.5176 25.0934C44.8784 25.0934 45.9995 26.2238 45.9995 27.5958C45.9995 27.6117 45.9995 27.6285 45.9996 27.646C46.0004 27.9781 46.002 28.6012 45.7302 29.2019C45.4055 29.9194 44.7875 30.4387 43.8909 30.7408L43.8818 30.7439L38.473 32.5171V43.4025C38.473 44.7538 38.0626 45.7596 37.322 46.4015C36.6173 47.0123 35.8014 47.1278 35.3039 47.1278C34.6852 47.1278 33.8582 46.9875 33.15 46.4889C32.9447 46.3444 32.7579 46.1754 32.5944 45.9827C32.4488 46.1639 32.2799 46.327 32.0878 46.4702C31.3744 47.0019 30.512 47.1278 29.8184 47.1278C29.3532 47.1278 28.5287 47.0304 27.8017 46.4402C27.0253 45.8098 26.5743 44.7955 26.5743 43.4025V32.5073L21.4596 30.7683C20.535 30.4893 19.9155 29.9486 19.5965 29.2197C19.3308 28.6127 19.3323 27.9783 19.3331 27.645C19.3331 27.6277 19.3332 27.6113 19.3332 27.5958ZM21.7292 27.5092C21.6972 27.5415 21.6884 27.574 21.6884 27.5958C21.6884 27.7835 21.6894 27.9151 21.7023 28.0381C21.7145 28.1551 21.7342 28.2222 21.7512 28.2609C21.7643 28.291 21.7796 28.3141 21.8127 28.3419C21.8506 28.3735 21.9438 28.4371 22.1457 28.4966C22.161 28.5011 22.1762 28.506 22.1913 28.5111L28.1282 30.5296C28.6071 30.6924 28.9295 31.1451 28.9295 31.6547V43.4025C28.9295 44.26 29.1853 44.5146 29.2789 44.5906C29.4219 44.7068 29.6307 44.7531 29.8184 44.7531C30.2834 44.7531 30.5559 44.6589 30.6878 44.5607C30.754 44.5113 30.9107 44.38 30.9107 43.8603C30.9107 43.8361 30.9114 43.812 30.9129 43.7879L31.2843 37.6544C31.3222 37.0279 31.8372 36.5394 32.4597 36.5394H32.6282C33.2472 36.5394 33.7606 37.0226 33.803 37.6453L34.2211 43.7789C34.2229 43.806 34.2238 43.8331 34.2238 43.8603C34.2238 44.1059 34.2722 44.251 34.3149 44.3346C34.3572 44.4177 34.4161 44.484 34.4984 44.5419C34.6852 44.6734 34.9869 44.7531 35.3039 44.7531C35.4856 44.7531 35.6655 44.7058 35.7867 44.6007C35.8721 44.5267 36.1178 44.2636 36.1178 43.4025V31.6547C36.1178 31.1404 36.4462 30.6846 36.9313 30.5255L43.1484 28.4872C43.3628 28.4145 43.4695 28.3429 43.5183 28.302C43.5618 28.2655 43.5772 28.239 43.5875 28.2162C43.6274 28.1281 43.6443 27.9958 43.6443 27.5958C43.6443 27.574 43.6354 27.5414 43.6035 27.5092C43.5839 27.4895 43.5642 27.4785 43.5469 27.4729L32.698 28.7748C32.6046 28.786 32.5103 28.7859 32.4169 28.7744L21.7852 27.4731C21.768 27.4787 21.7486 27.4897 21.7292 27.5092Z" fill="white"/>
<path fill-rule="evenodd" clip-rule="evenodd" d="M32.6673 22.8405C33.3989 22.8405 33.9921 22.2425 33.9921 21.5048C33.9921 20.7671 33.3989 20.1691 32.6673 20.1691C31.9356 20.1691 31.3425 20.7671 31.3425 21.5048C31.3425 22.2425 31.9356 22.8405 32.6673 22.8405ZM32.6673 25.2152C34.6997 25.2152 36.3473 23.554 36.3473 21.5048C36.3473 19.4556 34.6997 17.7944 32.6673 17.7944C30.6349 17.7944 28.9873 19.4556 28.9873 21.5048C28.9873 23.554 30.6349 25.2152 32.6673 25.2152Z" fill="white"/>
</svg>
