<svg width="24" height="24" viewBox="0 0 24 24" fill="none" xmlns="http://www.w3.org/2000/svg">
<path fill-rule="evenodd" clip-rule="evenodd" d="M5.61381 2.76191C6.23323 2.52089 6.94251 2.35631 7.9805 2.30905C9.02067 2.261 9.35328 2.25 12.0012 2.25C14.6491 2.25 14.9814 2.26178 16.0211 2.30905C17.0583 2.35553 17.7672 2.52089 18.3878 2.76191C19.0281 3.01081 19.5724 3.34387 20.1142 3.88652C20.656 4.42916 20.9892 4.97259 21.2388 5.61367C21.4799 6.23307 21.6445 6.94225 21.6917 7.98027C21.739 9.01985 21.75 9.35221 21.75 12C21.75 14.6478 21.739 14.9794 21.6917 16.0197C21.6452 17.0577 21.4799 17.7665 21.2388 18.3863C20.9892 19.0274 20.6569 19.5717 20.1142 20.1135C19.5715 20.6553 19.0281 20.9885 18.387 21.2381C17.7672 21.4791 17.0583 21.6437 16.0203 21.691C14.9807 21.739 14.6483 21.75 12.0004 21.75C9.3525 21.75 9.02067 21.7382 7.9805 21.691C6.94251 21.6437 6.2344 21.4791 5.61381 21.2381C4.97231 20.9885 4.42917 20.655 3.88658 20.1135C3.34399 19.5719 3.01084 19.0274 2.76193 18.3863C2.5209 17.7665 2.35632 17.0578 2.30905 16.0197C2.261 14.9801 2.25 14.6478 2.25 12C2.25 9.35221 2.261 9.01985 2.30905 7.98027C2.35632 6.94232 2.5209 6.23346 2.76193 5.61367C3.01084 4.9722 3.34392 4.42831 3.88658 3.88652C4.42925 3.34473 4.97231 3.01081 5.61381 2.76191ZM11.9994 7.9375C9.75591 7.9375 7.9375 9.7565 7.9375 12C7.9375 14.2435 9.75591 16.0625 11.9994 16.0625C14.2432 16.0625 16.0625 14.2432 16.0625 12C16.0625 9.75675 14.2432 7.9375 11.9994 7.9375ZM6.3125 12C6.3125 8.85936 8.85812 6.3125 11.9994 6.3125C15.1404 6.3125 17.6875 8.85911 17.6875 12C17.6875 15.1409 15.1404 17.6875 11.9994 17.6875C8.85812 17.6875 6.3125 15.1406 6.3125 12ZM18.0938 7.125C18.7668 7.125 19.3125 6.57935 19.3125 5.90625C19.3125 5.23315 18.7668 4.6875 18.0938 4.6875C17.4207 4.6875 16.875 5.23315 16.875 5.90625C16.875 6.57935 17.4207 7.125 18.0938 7.125Z" fill="white"/>
</svg>
