<svg width="24" height="24" viewBox="0 0 24 24" fill="none" xmlns="http://www.w3.org/2000/svg">
<path d="M21.5551 21.7498V21.749H21.5599V14.6615C21.5599 11.1943 20.8135 8.52344 16.7601 8.52344C14.8114 8.52344 13.5038 9.59276 12.9699 10.6065H12.9136V8.84713H9.07031V21.749H13.0722V15.3605C13.0722 13.6784 13.3911 12.0519 15.4741 12.0519C17.5266 12.0519 17.5572 13.9715 17.5572 15.4684V21.7498H21.5551Z" fill="white"/>
<path d="M2.64844 8.84766H6.65516V21.7495H2.64844V8.84766Z" fill="white"/>
<path d="M4.64874 2.25C3.36765 2.25 2.32812 3.28952 2.32812 4.57061C2.32812 5.8517 3.36765 6.91296 4.64874 6.91296C5.92982 6.91296 6.96935 5.8517 6.96935 4.57061C6.96854 3.28952 5.92902 2.25 4.64874 2.25V2.25Z" fill="white"/>
</svg>
