<svg width="28" height="28" viewBox="0 0 28 28" fill="none" xmlns="http://www.w3.org/2000/svg">
<rect width="28" height="28" rx="14" fill="#0277B7"/>
<path d="M11.1446 18.9034H9.01164V11.8555H11.2373V18.9034H11.1446ZM10.1245 10.9281C9.38259 10.9281 8.82617 10.279 8.82617 9.62984C8.82617 8.88796 9.38259 8.33154 10.1245 8.33154C10.8664 8.33154 11.4228 8.88796 11.4228 9.62984C11.33 10.279 10.7736 10.9281 10.1245 10.9281ZM19.398 18.9034H17.1724V15.4722C17.1724 14.6376 17.1724 13.6175 16.0595 13.6175C14.9467 13.6175 14.7613 14.5448 14.7613 15.4722V18.9961H12.5356V11.8555H14.6685V12.7829C14.9467 12.2264 15.6886 11.67 16.7087 11.67C18.9344 11.67 19.3053 13.1538 19.3053 15.0085V18.9034H19.398Z" fill="white"/>
</svg>
