<svg width="88" height="32" viewBox="0 0 88 32" fill="none" xmlns="http://www.w3.org/2000/svg">
<g clip-path="url(#clip0_1452_4385)">
<path d="M11.9964 0.607106C13.3971 -0.202369 15.1234 -0.202369 16.5241 0.607106L26.2598 6.23343C27.6588 7.0419 28.5205 8.53504 28.5205 10.1508V21.4918C28.5205 23.1075 27.6588 24.6007 26.2598 25.4091L16.5241 31.0355C15.1234 31.8449 13.3971 31.8449 11.9964 31.0355L2.26062 25.4091C0.861654 24.6007 0 23.1075 0 21.4918V10.1508C0 8.53504 0.861654 7.04189 2.26062 6.23343L11.9964 0.607106Z" fill="#05060F"/>
<path fill-rule="evenodd" clip-rule="evenodd" d="M6.46387 11.8377C6.46387 11.6512 6.66579 11.5345 6.82738 11.6278L12.5233 14.9139C12.6734 15.0005 12.7658 15.1605 12.7658 15.3338V23.3599C12.7658 23.5465 12.5639 23.6631 12.4023 23.5699L6.70639 20.2838C6.55632 20.1972 6.46387 20.0371 6.46387 19.8639V17.443C6.46387 17.3502 6.5639 17.2918 6.64469 17.3375L9.99959 19.2337C10.0804 19.2794 10.1804 19.221 10.1804 19.1282V16.6159C10.1804 16.4994 10.1177 16.3919 10.0163 16.3345L6.7101 14.4658C6.55795 14.3798 6.46387 14.2186 6.46387 14.0438V11.8377ZM21.6937 11.6278C21.8553 11.5345 22.0572 11.6512 22.0572 11.8377V14.0438C22.0572 14.2186 21.9631 14.3798 21.811 14.4658L18.5048 16.3345C18.4034 16.3919 18.3407 16.4994 18.3407 16.6159V19.1282C18.3407 19.221 18.4407 19.2794 18.5215 19.2337L21.8764 17.3375C21.9572 17.2918 22.0572 17.3502 22.0572 17.443V19.8639C22.0572 20.0371 21.9648 20.1972 21.8147 20.2838L16.1187 23.5699C15.9572 23.6631 15.7552 23.5465 15.7552 23.3599V15.3338C15.7552 15.1605 15.8477 15.0005 15.9978 14.9139L21.6937 11.6278ZM13.7808 7.20706C14.0782 7.03775 14.4429 7.03775 14.7402 7.20707L19.4276 9.87579C19.5903 9.96843 19.591 10.2027 19.4289 10.2963L17.086 11.6493C16.9873 11.7063 16.8658 11.7071 16.7664 11.6513L14.4186 10.3351C14.3204 10.2801 14.2007 10.2801 14.1025 10.3351L11.7547 11.6513C11.6553 11.7071 11.5338 11.7063 11.4351 11.6493L9.09218 10.2963C8.93004 10.2027 8.93076 9.96843 9.09346 9.87579L13.7808 7.20706Z" fill="white"/>
<path fill-rule="evenodd" clip-rule="evenodd" d="M41.148 22.2937C42.3765 22.2937 42.9016 22.2937 44.1149 22.2937H47.2208C47.31 22.2937 47.3823 22.2214 47.3823 22.1321V12.034C47.3823 11.9447 47.31 11.8724 47.2208 11.8724H44.2765C44.1873 11.8724 44.1149 11.9447 44.1149 12.034V17.9031C44.1149 18.3883 44.0197 18.7295 43.6692 19.003C43.3187 19.2765 42.8808 19.4022 42.2188 19.4022C41.5568 19.4022 40.8319 19.2736 40.5752 19.003C40.3186 18.7324 40.1903 18.339 40.1903 17.8229V12.034C40.1903 11.9447 40.1179 11.8724 40.0287 11.8724H37.0844C36.9952 11.8724 36.9229 11.9447 36.9229 12.034V17.9792C36.9229 19.54 37.2734 20.6792 37.9744 21.3966C38.6755 22.1141 39.7333 22.2937 41.148 22.2937ZM52.45 22.2937C52.5084 22.2937 52.5622 22.2622 52.5908 22.2114L54.1281 19.4799C54.1587 19.4256 54.2366 19.4248 54.2682 19.4785L55.8777 22.2141C55.9068 22.2634 55.9597 22.2937 56.017 22.2937H59.2849C59.4127 22.2937 59.4899 22.1523 59.4208 22.0448L56.2829 17.1615C56.2135 17.0536 56.2146 16.9148 56.2857 16.8079L59.4006 12.1235C59.472 12.0161 59.395 11.8724 59.2661 11.8724H55.885C55.828 11.8724 55.7753 11.9024 55.7462 11.9513L54.3232 14.3417C54.2918 14.3945 54.2152 14.3943 54.1841 14.3413L52.7791 11.9521C52.7501 11.9027 52.6971 11.8724 52.6398 11.8724H49.2212C49.0923 11.8724 49.0153 12.0158 49.0865 12.1232L52.0906 16.6578C52.1611 16.7642 52.1624 16.9021 52.0939 17.0098L48.8905 22.0454C48.822 22.153 48.8993 22.2937 49.0268 22.2937H52.45ZM65.3733 22.5672C66.7054 22.5672 68.0054 22.2441 68.8997 21.7698C68.9666 21.7344 68.9974 21.6561 68.9752 21.5836L68.2955 19.3672C68.2646 19.2662 68.1466 19.2216 68.0526 19.2699C67.3778 19.6165 66.531 19.7148 65.6643 19.7148C63.8512 19.7148 63.2082 18.5087 63.2082 17.0216C63.2082 15.502 63.96 14.4243 65.7488 14.3998C66.3632 14.3998 66.9521 14.4925 67.5227 14.6352C67.6036 14.6555 67.6874 14.6118 67.7158 14.5334C68.1261 13.4024 68.159 13.0761 68.4236 12.2896C68.4509 12.2083 68.4112 12.119 68.3313 12.0881C67.3915 11.7249 66.3752 11.5703 65.3733 11.5703C63.6206 11.5829 62.2811 12.0769 61.3547 13.0524C60.4283 14.0279 59.9651 15.2531 59.9651 17.0404C59.9651 18.8404 60.4283 20.0781 61.3547 21.0662C62.2811 22.0543 63.6206 22.5546 65.3733 22.5672ZM75.5379 22.5672C76.7854 22.5672 78.0731 22.4827 79.1257 21.7538C79.1299 21.7508 79.128 21.7513 79.1326 21.7491C79.1744 21.7288 79.1982 21.6755 79.1823 21.6319L78.4021 19.4968C78.3742 19.4204 78.2935 19.3754 78.215 19.3967C78.2082 19.3985 78.2023 19.4002 78.1975 19.4017C77.492 19.6198 76.7474 19.8484 75.9885 19.8484C74.6571 19.8484 73.4711 19.5414 73.1027 18.4147C73.0861 18.3641 73.1248 18.3133 73.1781 18.3133H79.7892C79.8784 18.3133 79.9508 18.241 79.9508 18.1517V17.0106C79.9508 15.261 79.5063 13.9299 78.6175 13.0173C77.7286 12.1047 76.5018 11.6484 74.937 11.6484C73.0559 11.6484 71.3256 12.5487 70.4114 14.2257C69.9482 15.0753 69.7166 16.0917 69.7166 17.2749C69.7166 18.4077 69.9419 19.0114 70.3926 19.8673C71.4016 21.7835 73.4704 22.5672 75.5379 22.5672ZM73.0941 16.1122C73.0494 16.1122 73.0131 16.0759 73.0145 16.0313C73.0367 15.3024 73.357 14.8128 73.6827 14.5508C74.0202 14.2793 74.4863 14.1328 74.937 14.1328C75.4252 14.1328 75.936 14.3089 76.21 14.5697C76.4744 14.8213 76.9468 15.303 76.9798 16.0313C76.9818 16.0759 76.9454 16.1122 76.9008 16.1122H73.0941ZM84.671 22.5658C84.7608 22.5666 84.834 22.494 84.834 22.4042V7.21628C84.834 7.12703 84.7617 7.05469 84.6724 7.05469H81.7282C81.6389 7.05469 81.5666 7.12703 81.5666 7.21628V22.3787C81.5666 22.4674 81.6381 22.5395 81.7268 22.5403L84.671 22.5658Z" fill="#05060F"/>
</g>
<defs>
<clipPath id="clip0_1452_4385">
<rect width="88" height="32" fill="white"/>
</clipPath>
</defs>
</svg>
