<svg width="219" height="65" viewBox="0 0 219 65" fill="none" xmlns="http://www.w3.org/2000/svg">
<path d="M42.7045 14.666H25.6855V31.6776H42.7045V14.666Z" fill="white" fill-opacity="0.32"/>
<path d="M61.5151 14.666H44.4961V31.6776H61.5151V14.666Z" fill="white" fill-opacity="0.32"/>
<path d="M42.7045 33.4668H25.6855V50.4784H42.7045V33.4668Z" fill="white" fill-opacity="0.2"/>
<path d="M61.5151 33.4668H44.4961V50.4784H61.5151V33.4668Z" fill="white" fill-opacity="0.2"/>
<path d="M95.199 22.1994V44.1655H91.4598V26.9282H91.4099L84.7291 44.1655H82.2363L75.406 26.9282H75.3561V44.1655H71.916V22.1994H77.3005L83.4827 38.4706H83.5824L90.1136 22.1994H95.199V22.1994ZM98.2901 23.8774C98.2901 23.2672 98.4895 22.7587 98.9382 22.3519C99.3869 21.9451 99.8855 21.7418 100.484 21.7418C101.132 21.7418 101.68 21.9451 102.079 22.3519C102.478 22.7587 102.727 23.2672 102.727 23.8774C102.727 24.4875 102.528 24.996 102.079 25.4028C101.63 25.8096 101.132 26.0129 100.484 26.0129C99.8357 26.0129 99.3371 25.8096 98.9382 25.4028C98.5394 24.9451 98.2901 24.4367 98.2901 23.8774ZM102.328 28.4028V44.1655H98.689V28.4028H102.328ZM113.347 41.4706C113.895 41.4706 114.493 41.3689 115.142 41.0638C115.79 40.8096 116.388 40.4536 116.936 40.0468V43.5045C116.338 43.8604 115.69 44.1146 114.942 44.2672C114.194 44.4197 113.397 44.5214 112.499 44.5214C110.206 44.5214 108.361 43.8096 106.965 42.335C105.519 40.8604 104.821 38.979 104.821 36.7418C104.821 34.1994 105.569 32.1146 107.015 30.4875C108.461 28.8604 110.505 28.0468 113.197 28.0468C113.895 28.0468 114.593 28.1485 115.241 28.3011C115.939 28.4536 116.488 28.7079 116.887 28.9112V32.4706C116.338 32.0638 115.74 31.7079 115.191 31.5045C114.593 31.3011 113.995 31.1485 113.397 31.1485C111.951 31.1485 110.804 31.6062 109.907 32.5723C109.009 33.5384 108.61 34.8096 108.61 36.4367C108.61 38.0129 109.059 39.2841 109.907 40.1485C110.754 41.0129 111.901 41.4706 113.347 41.4706ZM127.257 28.1485C127.556 28.1485 127.805 28.1485 128.054 28.1994C128.304 28.2502 128.503 28.3011 128.653 28.3519V32.1146C128.453 31.9621 128.204 31.8096 127.805 31.7079C127.406 31.6062 127.007 31.5045 126.459 31.5045C125.562 31.5045 124.814 31.9112 124.215 32.674C123.617 33.4367 123.268 34.6062 123.268 36.2333V44.1655H119.629V28.4028H123.268V30.8943H123.318C123.667 30.0299 124.166 29.3689 124.814 28.8604C125.512 28.4028 126.309 28.1485 127.257 28.1485ZM128.852 36.5384C128.852 33.9451 129.6 31.8604 130.996 30.335C132.442 28.8096 134.436 28.0468 136.979 28.0468C139.372 28.0468 141.266 28.7587 142.613 30.2333C143.959 31.7079 144.657 33.6909 144.657 36.1824C144.657 38.7248 143.909 40.7587 142.513 42.2841C141.067 43.8096 139.123 44.5723 136.63 44.5723C134.237 44.5723 132.342 43.8604 130.946 42.4367C129.55 40.9621 128.852 38.979 128.852 36.5384ZM132.641 36.3858C132.641 38.0129 132.99 39.2841 133.738 40.1485C134.486 41.0129 135.533 41.4706 136.879 41.4706C138.175 41.4706 139.222 41.0638 139.92 40.1485C140.618 39.2841 140.967 38.0129 140.967 36.2841C140.967 34.6062 140.618 33.335 139.92 32.4197C139.222 31.5553 138.175 31.0977 136.929 31.0977C135.583 31.0977 134.586 31.5553 133.838 32.4706C132.99 33.4367 132.641 34.7079 132.641 36.3858ZM150.091 32.5723C150.091 33.0807 150.241 33.5384 150.59 33.8435C150.939 34.1485 151.637 34.5045 152.783 34.9621C154.229 35.5723 155.276 36.2333 155.824 36.9451C156.423 37.7079 156.722 38.5723 156.722 39.6401C156.722 41.1146 156.173 42.2841 155.027 43.1994C153.93 44.1146 152.384 44.5214 150.49 44.5214C149.842 44.5214 149.144 44.4197 148.346 44.2672C147.548 44.1146 146.9 43.9112 146.352 43.657V39.996C147 40.4536 147.748 40.8604 148.496 41.1146C149.243 41.3689 149.941 41.5214 150.59 41.5214C151.387 41.5214 152.035 41.4197 152.384 41.1655C152.783 40.9112 152.983 40.5553 152.983 39.996C152.983 39.4875 152.783 39.0807 152.384 38.674C151.986 38.318 151.188 37.9112 150.091 37.4536C148.745 36.8943 147.798 36.2333 147.249 35.5214C146.701 34.8096 146.402 33.8943 146.402 32.7757C146.402 31.3519 146.95 30.1824 148.047 29.2672C149.144 28.3519 150.59 27.8943 152.335 27.8943C152.883 27.8943 153.481 27.9451 154.129 28.0977C154.778 28.2502 155.376 28.4028 155.824 28.5553V32.1655C155.326 31.8604 154.778 31.5553 154.129 31.3011C153.481 31.0468 152.833 30.9451 152.235 30.9451C151.537 30.9451 150.988 31.0977 150.639 31.3519C150.29 31.7079 150.091 32.0638 150.091 32.5723ZM158.267 36.5384C158.267 33.9451 159.015 31.8604 160.411 30.335C161.857 28.8096 163.851 28.0468 166.394 28.0468C168.787 28.0468 170.682 28.7587 172.028 30.2333C173.374 31.7079 174.072 33.6909 174.072 36.1824C174.072 38.7248 173.324 40.7587 171.928 42.2841C170.482 43.8096 168.538 44.5723 166.045 44.5723C163.652 44.5723 161.757 43.8604 160.361 42.4367C159.015 40.9621 158.267 38.979 158.267 36.5384ZM162.057 36.3858C162.057 38.0129 162.406 39.2841 163.153 40.1485C163.901 41.0129 164.948 41.4706 166.294 41.4706C167.591 41.4706 168.638 41.0638 169.336 40.1485C170.034 39.2841 170.383 38.0129 170.383 36.2841C170.383 34.6062 170.034 33.335 169.336 32.4197C168.638 31.5553 167.591 31.0977 166.344 31.0977C164.998 31.0977 164.001 31.5553 163.253 32.4706C162.455 33.4367 162.057 34.7079 162.057 36.3858ZM186.187 31.4536H180.753V44.1655H177.063V31.4536H174.471V28.4028H177.063V26.2163C177.063 24.5892 177.612 23.2163 178.659 22.1485C179.706 21.0807 181.052 20.5723 182.697 20.5723C183.146 20.5723 183.545 20.6231 183.894 20.6231C184.243 20.6231 184.542 20.7248 184.791 20.8265V24.0299C184.691 23.979 184.442 23.8774 184.143 23.7757C183.844 23.674 183.495 23.6231 183.096 23.6231C182.348 23.6231 181.75 23.8774 181.351 24.335C180.952 24.7926 180.753 25.5553 180.753 26.4706V28.3519H186.187V24.7926L189.827 23.674V28.3519H193.516V31.4028H189.827V38.7757C189.827 39.7418 190.026 40.4028 190.325 40.8096C190.674 41.2163 191.223 41.4197 191.97 41.4197C192.17 41.4197 192.419 41.3689 192.718 41.2672C193.017 41.1655 193.267 41.0638 193.466 40.9112V43.9621C193.217 44.1146 192.868 44.2163 192.319 44.318C191.771 44.4197 191.272 44.4706 190.724 44.4706C189.178 44.4706 188.032 44.0638 187.284 43.2502C186.536 42.4367 186.137 41.1655 186.137 39.4875L186.187 31.4536Z" fill="white" fill-opacity="0.32"/>
</svg>
