<svg width="143" height="49" viewBox="0 0 143 49" fill="none" xmlns="http://www.w3.org/2000/svg">
<g clip-path="url(#clip0_3990_101177)">
<path d="M12.7642 11.3457H0V24.1044H12.7642V11.3457Z" fill="#05060F" fill-opacity="0.32"/>
<path d="M26.8716 11.3457H14.1074V24.1044H26.8716V11.3457Z" fill="#05060F" fill-opacity="0.32"/>
<path d="M12.7642 25.4453H0V38.204H12.7642V25.4453Z" fill="#05060F" fill-opacity="0.24"/>
<path d="M26.8716 25.4453H14.1074V38.204H26.8716V25.4453Z" fill="#05060F" fill-opacity="0.24"/>
<path d="M68.3343 16.9957V33.4703H65.5299V20.5423H65.4925L60.4819 33.4703H58.6123L53.4895 20.5423H53.4521V33.4703H50.8721V16.9957H54.9104L59.5471 29.1991H59.6219L64.5203 16.9957H68.3343V16.9957ZM70.6526 18.2542C70.6526 17.7966 70.8022 17.4152 71.1387 17.1101C71.4753 16.8051 71.8492 16.6525 72.2979 16.6525C72.784 16.6525 73.1953 16.8051 73.4945 17.1101C73.7936 17.4152 73.9806 17.7966 73.9806 18.2542C73.9806 18.7118 73.831 19.0932 73.4945 19.3983C73.1579 19.7034 72.784 19.8559 72.2979 19.8559C71.8118 19.8559 71.4379 19.7034 71.1387 19.3983C70.8396 19.0551 70.6526 18.6737 70.6526 18.2542ZM73.6814 21.6483V33.4703H70.9518V21.6483H73.6814ZM81.9451 31.4491C82.3565 31.4491 82.8052 31.3728 83.2913 31.144C83.7774 30.9534 84.2261 30.6864 84.6374 30.3813V32.9745C84.1887 33.2415 83.7026 33.4322 83.1417 33.5466C82.5808 33.661 81.9825 33.7373 81.3095 33.7373C79.5894 33.7373 78.2059 33.2034 77.1589 32.0974C76.0745 30.9915 75.551 29.5805 75.551 27.9025C75.551 25.9957 76.1119 24.4322 77.1963 23.2118C78.2807 21.9915 79.8138 21.3813 81.833 21.3813C82.3565 21.3813 82.8799 21.4576 83.366 21.572C83.8895 21.6864 84.3009 21.8771 84.6 22.0296V24.6991C84.1887 24.394 83.74 24.1271 83.3287 23.9745C82.8799 23.822 82.4312 23.7076 81.9825 23.7076C80.8981 23.7076 80.0381 24.0508 79.3651 24.7754C78.692 25.5 78.3929 26.4534 78.3929 27.6737C78.3929 28.8559 78.7294 29.8093 79.3651 30.4576C80.0007 31.1059 80.8608 31.4491 81.9451 31.4491ZM92.3776 21.4576C92.602 21.4576 92.7889 21.4576 92.9759 21.4957C93.1628 21.5339 93.3124 21.572 93.4246 21.6101V24.4322C93.275 24.3178 93.0881 24.2034 92.7889 24.1271C92.4898 24.0508 92.1906 23.9745 91.7793 23.9745C91.1063 23.9745 90.5454 24.2796 90.0967 24.8517C89.648 25.4237 89.3862 26.3008 89.3862 27.5212V33.4703H86.6566V21.6483H89.3862V23.5169H89.4236C89.6854 22.8686 90.0593 22.3728 90.5454 21.9915C91.0689 21.6483 91.6672 21.4576 92.3776 21.4576ZM93.5742 27.75C93.5742 25.8051 94.135 24.2415 95.182 23.0974C96.2664 21.9534 97.7621 21.3813 99.6691 21.3813C101.464 21.3813 102.885 21.9152 103.894 23.0212C104.904 24.1271 105.428 25.6144 105.428 27.483C105.428 29.3898 104.867 30.9152 103.82 32.0593C102.735 33.2034 101.277 33.7754 99.4074 33.7754C97.6125 33.7754 96.1916 33.2415 95.1446 32.1737C94.0977 31.0678 93.5742 29.5805 93.5742 27.75ZM96.416 27.6356C96.416 28.8559 96.6777 29.8093 97.2386 30.4576C97.7995 31.1059 98.5847 31.4491 99.5943 31.4491C100.567 31.4491 101.352 31.144 101.875 30.4576C102.399 29.8093 102.661 28.8559 102.661 27.5593C102.661 26.3008 102.399 25.3474 101.875 24.661C101.352 24.0127 100.567 23.6695 99.6317 23.6695C98.6221 23.6695 97.8743 24.0127 97.3134 24.6991C96.6777 25.4237 96.416 26.3771 96.416 27.6356ZM109.503 24.7754C109.503 25.1567 109.615 25.5 109.877 25.7288C110.139 25.9576 110.662 26.2245 111.523 26.5678C112.607 27.0254 113.392 27.5212 113.803 28.0551C114.252 28.6271 114.476 29.2754 114.476 30.0762C114.476 31.1822 114.065 32.0593 113.205 32.7457C112.383 33.4322 111.223 33.7373 109.802 33.7373C109.316 33.7373 108.793 33.661 108.195 33.5466C107.596 33.4322 107.11 33.2796 106.699 33.0889V30.3432C107.185 30.6864 107.746 30.9915 108.307 31.1822C108.868 31.3728 109.391 31.4873 109.877 31.4873C110.476 31.4873 110.962 31.411 111.223 31.2203C111.523 31.0296 111.672 30.7627 111.672 30.3432C111.672 29.9618 111.523 29.6567 111.223 29.3517C110.924 29.0847 110.326 28.7796 109.503 28.4364C108.494 28.0169 107.783 27.5212 107.372 26.9873C106.961 26.4534 106.736 25.7669 106.736 24.9279C106.736 23.8601 107.148 22.983 107.97 22.2966C108.793 21.6101 109.877 21.2669 111.186 21.2669C111.597 21.2669 112.046 21.3051 112.532 21.4195C113.018 21.5339 113.467 21.6483 113.803 21.7627V24.4703C113.43 24.2415 113.018 24.0127 112.532 23.822C112.046 23.6313 111.56 23.5551 111.111 23.5551C110.588 23.5551 110.176 23.6695 109.915 23.8601C109.653 24.1271 109.503 24.394 109.503 24.7754ZM115.636 27.75C115.636 25.8051 116.197 24.2415 117.244 23.0974C118.328 21.9534 119.824 21.3813 121.731 21.3813C123.525 21.3813 124.946 21.9152 125.956 23.0212C126.966 24.1271 127.489 25.6144 127.489 27.483C127.489 29.3898 126.928 30.9152 125.881 32.0593C124.797 33.2034 123.338 33.7754 121.469 33.7754C119.674 33.7754 118.253 33.2415 117.206 32.1737C116.197 31.0678 115.636 29.5805 115.636 27.75ZM118.477 27.6356C118.477 28.8559 118.739 29.8093 119.3 30.4576C119.861 31.1059 120.646 31.4491 121.656 31.4491C122.628 31.4491 123.413 31.144 123.937 30.4576C124.46 29.8093 124.722 28.8559 124.722 27.5593C124.722 26.3008 124.46 25.3474 123.937 24.661C123.413 24.0127 122.628 23.6695 121.693 23.6695C120.684 23.6695 119.936 24.0127 119.375 24.6991C118.777 25.4237 118.477 26.3771 118.477 27.6356ZM136.575 23.9364H132.5V33.4703H129.733V23.9364H127.788V21.6483H129.733V20.0084C129.733 18.7881 130.144 17.7584 130.929 16.9576C131.714 16.1567 132.724 15.7754 133.958 15.7754C134.294 15.7754 134.594 15.8135 134.855 15.8135C135.117 15.8135 135.341 15.8898 135.528 15.9661V18.3686C135.454 18.3305 135.267 18.2542 135.042 18.1779C134.818 18.1017 134.556 18.0635 134.257 18.0635C133.696 18.0635 133.247 18.2542 132.948 18.5974C132.649 18.9406 132.5 19.5127 132.5 20.1991V21.6101H136.575V18.9406L139.305 18.1017V21.6101H142.072V23.8983H139.305V29.4279C139.305 30.1525 139.455 30.6483 139.679 30.9534C139.941 31.2584 140.352 31.411 140.913 31.411C141.062 31.411 141.249 31.3728 141.474 31.2966C141.698 31.2203 141.885 31.144 142.035 31.0296V33.3178C141.848 33.4322 141.586 33.5084 141.175 33.5847C140.763 33.661 140.389 33.6991 139.978 33.6991C138.819 33.6991 137.959 33.394 137.398 32.7839C136.837 32.1737 136.538 31.2203 136.538 29.9618L136.575 23.9364Z" fill="#05060F" fill-opacity="0.32"/>
</g>
<defs>
<clipPath id="clip0_3990_101177">
<rect width="142.072" height="48" fill="white" transform="translate(0 0.775391)"/>
</clipPath>
</defs>
</svg>
