<svg width="168" height="80" viewBox="0 0 168 80" fill="none" xmlns="http://www.w3.org/2000/svg">
<path d="M31.2841 26H18V39.2784H31.2841V26Z" fill="#05060F" fill-opacity="0.32"/>
<path d="M45.9667 26H32.6826V39.2784H45.9667V26Z" fill="#05060F" fill-opacity="0.24"/>
<path d="M31.2841 40.6758H18V53.9541H31.2841V40.6758Z" fill="#05060F" fill-opacity="0.6"/>
<path d="M45.9667 40.6758H32.6826V53.9541H45.9667V40.6758Z" fill="#05060F" fill-opacity="0.06"/>
<path d="M72.2594 31.8794V49.025H69.3407V35.5705H69.3018L64.0872 49.025H62.1414L56.81 35.5705H56.7711V49.025H54.0859V31.8794H58.2888L63.1143 44.5798H63.1921L68.29 31.8794H72.2594ZM74.6721 33.1891C74.6721 32.7129 74.8278 32.316 75.178 31.9985C75.5283 31.681 75.9174 31.5222 76.3844 31.5222C76.8903 31.5222 77.3184 31.681 77.6297 31.9985C77.941 32.316 78.1356 32.7129 78.1356 33.1891C78.1356 33.6654 77.9799 34.0623 77.6297 34.3798C77.2794 34.6973 76.8903 34.8561 76.3844 34.8561C75.8785 34.8561 75.4893 34.6973 75.178 34.3798C74.8667 34.0226 74.6721 33.6257 74.6721 33.1891ZM77.8243 36.7214V49.025H74.9834V36.7214H77.8243ZM86.4245 46.9215C86.8526 46.9215 87.3196 46.8421 87.8255 46.604C88.3314 46.4055 88.7984 46.1277 89.2264 45.8102V48.509C88.7595 48.7868 88.2536 48.9853 87.6698 49.1043C87.0861 49.2234 86.4635 49.3028 85.763 49.3028C83.9729 49.3028 82.533 48.7471 81.4434 47.5962C80.3148 46.4452 79.77 44.9767 79.77 43.2304C79.77 41.246 80.3538 39.6187 81.4823 38.3487C82.6108 37.0786 84.2064 36.4436 86.3078 36.4436C86.8526 36.4436 87.3974 36.523 87.9033 36.6421C88.4481 36.7611 88.8762 36.9596 89.1875 37.1183V39.8965C88.7595 39.579 88.2925 39.3012 87.8644 39.1425C87.3974 38.9837 86.9304 38.8646 86.4635 38.8646C85.3349 38.8646 84.4399 39.2218 83.7394 39.9759C83.0389 40.73 82.7276 41.7222 82.7276 42.9923C82.7276 44.2226 83.0778 45.2148 83.7394 45.8896C84.4009 46.5643 85.296 46.9215 86.4245 46.9215ZM97.2819 36.523C97.5154 36.523 97.71 36.523 97.9046 36.5627C98.0991 36.6024 98.2548 36.6421 98.3715 36.6818V39.6187C98.2159 39.4997 98.0213 39.3806 97.71 39.3012C97.3987 39.2218 97.0873 39.1425 96.6593 39.1425C95.9588 39.1425 95.3751 39.46 94.9081 40.0553C94.4411 40.6506 94.1687 41.5635 94.1687 42.8335V49.025H91.3279V36.7214H94.1687V38.6662H94.2076C94.48 37.9915 94.8692 37.4755 95.3751 37.0786C95.9199 36.7214 96.5425 36.523 97.2819 36.523ZM98.5272 43.0717C98.5272 41.0475 99.1109 39.4203 100.201 38.2296C101.329 37.039 102.886 36.4436 104.87 36.4436C106.738 36.4436 108.217 36.9993 109.268 38.1502C110.319 39.3012 110.863 40.8491 110.863 42.7938C110.863 44.7783 110.28 46.3658 109.19 47.5565C108.061 48.7471 106.544 49.3425 104.598 49.3425C102.73 49.3425 101.251 48.7868 100.162 47.6755C99.072 46.5246 98.5272 44.9767 98.5272 43.0717ZM101.485 42.9526C101.485 44.2226 101.757 45.2148 102.341 45.8896C102.925 46.5643 103.742 46.9215 104.793 46.9215C105.804 46.9215 106.622 46.604 107.166 45.8896C107.711 45.2148 107.984 44.2226 107.984 42.8732C107.984 41.5635 107.711 40.5713 107.166 39.8569C106.622 39.1822 105.804 38.825 104.831 38.825C103.781 38.825 103.002 39.1821 102.419 39.8965C101.757 40.6506 101.485 41.6429 101.485 42.9526ZM115.105 39.9759C115.105 40.3728 115.222 40.73 115.494 40.9681C115.767 41.2063 116.311 41.4841 117.207 41.8413C118.335 42.3176 119.152 42.8335 119.58 43.3892C120.047 43.9845 120.281 44.6592 120.281 45.4927C120.281 46.6436 119.853 47.5565 118.958 48.2709C118.102 48.9853 116.895 49.3028 115.416 49.3028C114.911 49.3028 114.366 49.2234 113.743 49.1043C113.12 48.9853 112.615 48.8265 112.186 48.6281V45.7705C112.692 46.1277 113.276 46.4452 113.86 46.6436C114.444 46.8421 114.988 46.9612 115.494 46.9612C116.117 46.9612 116.623 46.8818 116.895 46.6833C117.207 46.4849 117.362 46.2071 117.362 45.7705C117.362 45.3736 117.207 45.0561 116.895 44.7386C116.584 44.4608 115.961 44.1432 115.105 43.786C114.054 43.3495 113.315 42.8335 112.887 42.2779C112.459 41.7222 112.225 41.0078 112.225 40.1347C112.225 39.0234 112.653 38.1106 113.51 37.3962C114.366 36.6818 115.494 36.3246 116.856 36.3246C117.284 36.3246 117.751 36.3642 118.257 36.4833C118.763 36.6024 119.23 36.7214 119.58 36.8405V39.6584C119.191 39.4203 118.763 39.1822 118.257 38.9837C117.751 38.7853 117.245 38.7059 116.778 38.7059C116.234 38.7059 115.806 38.825 115.533 39.0234C115.261 39.3012 115.105 39.579 115.105 39.9759ZM121.487 43.0717C121.487 41.0475 122.071 39.4203 123.161 38.2296C124.289 37.039 125.846 36.4436 127.83 36.4436C129.698 36.4436 131.177 36.9993 132.228 38.1502C133.279 39.3012 133.823 40.8491 133.823 42.7938C133.823 44.7783 133.24 46.3658 132.15 47.5565C131.021 48.7471 129.504 49.3425 127.558 49.3425C125.69 49.3425 124.211 48.7868 123.122 47.6755C122.071 46.5246 121.487 44.9767 121.487 43.0717ZM124.445 42.9526C124.445 44.2226 124.717 45.2148 125.301 45.8896C125.885 46.5643 126.702 46.9215 127.753 46.9215C128.764 46.9215 129.582 46.604 130.126 45.8896C130.671 45.2148 130.944 44.2226 130.944 42.8732C130.944 41.5635 130.671 40.5713 130.126 39.8569C129.582 39.1822 128.764 38.825 127.791 38.825C126.741 38.825 125.962 39.1821 125.379 39.8965C124.756 40.6506 124.445 41.6429 124.445 42.9526ZM143.28 39.1028H139.038V49.025H136.158V39.1028H134.135V36.7214H136.158V35.0148C136.158 33.7448 136.586 32.6732 137.404 31.8397C138.221 31.0063 139.271 30.6094 140.556 30.6094C140.906 30.6094 141.217 30.6491 141.49 30.6491C141.762 30.6491 141.996 30.7284 142.19 30.8078V33.3082C142.112 33.2685 141.918 33.1891 141.684 33.1098C141.451 33.0304 141.178 32.9907 140.867 32.9907C140.283 32.9907 139.816 33.1891 139.505 33.5463C139.194 33.9035 139.038 34.4989 139.038 35.2133V36.6818H143.28V33.9035L146.121 33.0304V36.6818H149V39.0631H146.121V44.818C146.121 45.572 146.276 46.088 146.51 46.4055C146.782 46.723 147.21 46.8818 147.794 46.8818C147.95 46.8818 148.144 46.8421 148.378 46.7627C148.611 46.6833 148.806 46.604 148.961 46.4849V48.8662C148.767 48.9853 148.494 49.0647 148.066 49.144C147.638 49.2234 147.249 49.2631 146.821 49.2631C145.615 49.2631 144.72 48.9456 144.136 48.3106C143.552 47.6755 143.241 46.6833 143.241 45.3736L143.28 39.1028Z" fill="#05060F" fill-opacity="0.32"/>
</svg>
