<svg width="314" height="360" viewBox="0 0 314 360" fill="none" xmlns="http://www.w3.org/2000/svg">
<path d="M154.002 1.7298C155.857 0.65929 158.143 0.659293 159.998 1.72981L309.998 88.2683C311.856 89.3398 313 91.3211 313 93.4654L313 266.535C313 268.679 311.856 270.66 309.998 271.732L159.998 358.27C158.143 359.341 155.857 359.341 154.002 358.27L4.00166 271.732C2.14431 270.66 1 268.679 1 266.535L1 93.4654C1 91.3211 2.14432 89.3398 4.00167 88.2683L154.002 1.7298Z" fill="white"/>
<path fill-rule="evenodd" clip-rule="evenodd" d="M160.989 2.29521C158.52 0.874259 155.48 0.874263 153.011 2.29521L5.01056 87.4427C2.5294 88.8701 1 91.5145 1 94.377V264.623C1 267.486 2.52941 270.13 5.01057 271.557L153.011 356.705C155.48 358.126 158.52 358.126 160.989 356.705L308.989 271.557C311.471 270.13 313 267.486 313 264.623V94.3769C313 91.5145 311.471 88.8701 308.989 87.4427L160.989 2.29521ZM155.854 3.29726L4.49569 90.3766L59.7566 122.193L155.854 66.9063V3.29726ZM155.854 69.5441L62.0482 123.512L117.309 155.329L155.854 133.153V69.5441ZM158.146 133.153V69.544L252.128 123.614L196.765 155.371L158.146 133.153ZM155.854 135.791L119.601 156.648L155.854 177.52V135.791ZM116.148 157.298L60.8663 125.47V233.529L116.148 201.701L116.148 157.298ZM118.44 200.381L118.44 158.618L154.709 179.5L118.44 200.381ZM117.308 203.671L62.0474 235.487L155.854 289.456V225.847L117.308 203.671ZM155.854 223.209L119.6 202.352L155.854 181.479V223.209ZM158.146 225.847V289.456L251.952 235.487L196.692 203.671L158.146 225.847ZM194.4 202.352L158.146 223.209V181.479L194.4 202.352ZM197.852 201.701L253.134 233.529V125.673L197.852 157.384V201.701ZM195.56 158.699V200.381L159.294 179.501L195.56 158.699ZM194.469 156.688L158.146 177.524V135.791L194.469 156.688ZM255.426 124.358V234.849L310.708 266.677V92.6473L255.426 124.358ZM309.787 90.5394L158.146 3.29716V66.9062L254.424 122.297L309.787 90.5394ZM309.505 268.623L254.244 236.807L158.146 292.094V355.703L309.505 268.623ZM155.854 355.703V292.094L59.7558 236.807L4.49489 268.623L155.854 355.703ZM3.29243 266.677L58.5738 234.849V124.15L3.29243 92.3221V266.677Z" fill="#05060F" stroke="#05060F" stroke-width="2"/>
</svg>
