<?xml version="1.0" encoding="utf-8"?>
<!-- Generator: Adobe Illustrator 24.1.0, SVG Export Plug-In . SVG Version: 6.00 Build 0)  -->
<svg version="1.1" id="Layer_1" xmlns="http://www.w3.org/2000/svg" xmlns:xlink="http://www.w3.org/1999/xlink" x="0px" y="0px"
	 viewBox="0 0 56 56" style="enable-background:new 0 0 56 56;" xml:space="preserve">
<style type="text/css">
	.st0{fill-rule:evenodd;clip-rule:evenodd;fill:#FFFFFF;}
</style>
<g>
	<g>
		<path class="st0" d="M23.1,9.7c-2,0-3.7,1.6-3.7,3.7c0,2,1.6,3.7,3.7,3.7h3.7v-3.7C26.8,11.4,25.1,9.7,23.1,9.7
			C23.1,9.7,23.1,9.7,23.1,9.7L23.1,9.7z M23.1,19.5h-9.7c-2,0-3.7,1.6-3.7,3.7c0,2,1.6,3.7,3.7,3.7h9.7c2,0,3.7-1.6,3.7-3.7
			C26.8,21.1,25.1,19.5,23.1,19.5L23.1,19.5z"/>
		<path class="st0" d="M46.3,23.1c0-2-1.6-3.7-3.7-3.7c-2,0-3.7,1.6-3.7,3.7v3.7h3.7C44.6,26.8,46.3,25.1,46.3,23.1z M36.5,23.1
			v-9.7c0-2-1.6-3.7-3.7-3.7c-2,0-3.7,1.6-3.7,3.7v9.7c0,2,1.6,3.7,3.7,3.7C34.9,26.8,36.5,25.1,36.5,23.1z"/>
		<path class="st0" d="M32.9,46.3c2,0,3.7-1.6,3.7-3.7c0-2-1.6-3.7-3.7-3.7h-3.7v3.7C29.2,44.6,30.9,46.3,32.9,46.3z M32.9,36.5h9.7
			c2,0,3.7-1.6,3.7-3.7c0-2-1.6-3.7-3.7-3.7h-9.7c-2,0-3.7,1.6-3.7,3.7C29.2,34.9,30.9,36.5,32.9,36.5L32.9,36.5z"/>
		<path class="st0" d="M9.7,32.9c0,2,1.6,3.7,3.7,3.7c2,0,3.7-1.6,3.7-3.7v-3.7h-3.7C11.4,29.2,9.7,30.9,9.7,32.9z M19.5,32.9v9.7
			c0,2,1.6,3.7,3.7,3.7c2,0,3.7-1.6,3.7-3.7v-9.7c0-2-1.6-3.7-3.7-3.7C21.1,29.2,19.5,30.9,19.5,32.9C19.5,32.9,19.5,32.9,19.5,32.9
			z"/>
	</g>
</g>
</svg>
