<svg width="218" height="65" viewBox="0 0 218 65" fill="none" xmlns="http://www.w3.org/2000/svg">
<path d="M99.7253 45.1268L99.0617 45.7085H99.7253V45.1268ZM99.7253 44.2531V43.5485L97.419 45.7066H98.1529L99.7253 44.2531ZM99.7253 41.9695L95.9396 45.6708V45.7066H96.5102L99.7253 42.6774V41.9695ZM99.7253 41.0985V40.3939L95.9396 44.0952V44.7998L99.7253 41.0985ZM99.7253 39.5189V38.8143L95.9396 42.5156V43.2202L99.7253 39.5189ZM99.7253 37.9413V37.2366L95.9396 40.9379V41.6426L99.7253 37.9413ZM99.7253 36.3636V35.6557L95.9396 39.357V40.0617L99.7253 36.3636ZM99.7253 34.784V34.0807L95.9396 37.782V38.4866L99.7253 34.7853V34.784ZM99.7253 33.2071V32.5024L95.9396 36.205V36.9097L99.7253 33.2071ZM99.7253 31.6294V30.9248L95.9396 34.6261V35.3307L99.7253 31.6294ZM99.7253 30.0518V29.3471L95.9396 33.0452V33.7498L99.7253 30.0511V30.0518ZM99.7253 28.4741V27.765L95.9396 31.4656V32.1703L99.7253 28.4741ZM99.7253 26.8946V26.1906L95.9396 29.8847V30.5894L99.7253 26.8946ZM99.4852 25.5724H98.7501L95.9383 28.3136V29.0189L99.4852 25.5724ZM97.8426 25.5724H97.11L95.9403 26.736V27.4425L97.8432 25.5724H97.8426ZM95.9396 25.8604L96.1999 25.5704H95.9396V25.8604ZM99.7104 26.2933V30.0375C100.542 29.1463 101.866 28.4611 103.211 28.4611C105.463 28.4611 106.915 30.2546 106.915 32.2489C106.915 34.4135 105.286 36.0074 103.121 36.0074C101.814 36.0074 100.499 35.2859 99.7097 34.3921V38.2097C100.85 39.0366 102.078 39.424 103.507 39.424C105.642 39.424 107.686 38.5139 108.961 37.0897C110.086 35.8371 110.768 34.1288 110.768 32.2489C110.768 28.1764 107.628 25.0446 103.711 25.0446C102.18 25.0446 100.806 25.5022 99.7104 26.2933ZM41.3917 30.3463C40.6526 30.07 40.1471 29.769 40.1471 29.2847C40.1471 28.7407 40.6702 28.3792 41.3917 28.2401V25.0556C41.5296 25.0478 41.6675 25.0426 41.8067 25.0426C38.9624 25.0426 36.2957 26.6937 36.2957 29.3419C36.2957 32.3711 39.5395 32.9912 41.5992 33.7414L41.391 33.6699V30.3463H41.3917ZM41.4177 36.2954C39.965 36.2954 38.4537 35.7818 37.4752 34.9284L35.6113 37.572C37.2996 38.7668 39.4055 39.4227 41.3917 39.4227V36.2902L41.4177 36.2954ZM174.198 33.6192L169.99 25.3306H165.753L172.183 37.7482L174.198 33.6192ZM57.1869 33.6192L52.979 25.3306H48.7412L55.1715 37.7482L57.1869 33.6192ZM160.142 32.2476V39.138H163.994V32.2476H160.142ZM149.77 32.2476V39.138H153.621V32.2476H149.77ZM77.7242 39.138H81.5756V32.2476H77.7242V39.138ZM87.8003 39.138H91.6523V32.2476H87.801V39.138H87.8003ZM67.6482 39.138H71.4995V32.2476H67.6482V39.138ZM135.074 32.2437C135.091 30.1811 136.626 28.4936 138.866 28.4936C141.106 28.4936 142.64 30.1824 142.659 32.2444H146.511C146.492 28.2765 143.208 25.0751 138.866 25.0751C134.526 25.0751 131.241 28.2746 131.221 32.2437H135.074ZM117.885 18.9219H114.033V39.138H117.885V18.9219ZM172.394 45.9016L172.059 46.2234H172.243L172.394 45.9016ZM173.153 44.3038L173.766 43.0063L170.416 46.2221H171.15L173.153 44.3045V44.3038ZM174.523 41.4086L175.136 40.1104L168.774 46.2221H169.507L174.523 41.4086ZM175.895 38.5185L176.508 37.2249L169.125 44.3188L168.505 45.6169L175.895 38.5185ZM177.265 35.6232L177.878 34.3297L170.512 41.4086L169.892 42.7067L177.265 35.6232ZM178.635 32.728L179.248 31.4344L171.897 38.497L171.277 39.7952L178.635 32.728ZM180.007 29.8327L180.62 28.5392L173.308 35.5641L172.675 36.8785L180.007 29.8321V29.8327ZM181.377 26.9375L181.99 25.6439L174.687 32.661L174.196 33.7186L174.091 33.9344L181.377 26.9375ZM181.41 25.3091H180.676L176.002 29.8132L175.415 31.0782L181.41 25.3091ZM179.767 25.3091H179.034L177.317 26.9687L176.729 28.2336L179.767 25.3091ZM178.041 25.4066L178.123 25.3286H178.077L178.041 25.4066ZM55.3822 45.9023L55.0459 46.224H55.2294L55.3829 45.9023H55.3822ZM56.1402 44.3045L56.753 43.007L53.4013 46.2234H54.1351L56.1402 44.3038V44.3045ZM57.5122 41.4092L58.1244 40.1111L51.7618 46.2227H52.4957L57.5116 41.4092H57.5122ZM58.8823 38.5191L59.4952 37.2256L52.1112 44.3194L51.4918 45.6175L58.8823 38.5191ZM60.2537 35.6239L60.8666 34.3303L53.4982 41.4092L52.8788 42.7073L60.255 35.6232L60.2537 35.6239ZM61.6264 32.7286L62.2386 31.4351L54.8872 38.4977L54.2678 39.7958L61.6258 32.7286H61.6264ZM62.9959 29.8334L63.612 28.5398L56.2996 35.5628L55.6672 36.8772L62.9959 29.8327V29.8334ZM64.3699 26.9381L64.9828 25.6445L57.6788 32.6617L57.1889 33.7193L57.0828 33.9351L64.3693 26.9381H64.3699ZM64.4005 25.3098H63.6666L58.989 29.8139L58.4022 31.0788L64.4005 25.3098ZM62.7597 25.3098H62.0259L60.3084 26.9693L59.7216 28.2343L62.7597 25.3098ZM61.0318 25.4073L61.1138 25.3293H61.0683L61.0318 25.4073ZM145.624 35.6596L142.648 38.5191C143.897 37.8749 144.931 36.8813 145.624 35.6596ZM146.233 34.2036C146.318 33.9091 146.384 33.6101 146.431 33.3072L140.17 39.3232C140.488 39.2745 140.803 39.2075 141.113 39.1224L146.233 34.2029V34.2036ZM146.511 32.1943H145.891L138.434 39.385C138.577 39.3915 138.72 39.4097 138.864 39.4097H139.164L146.507 32.3308C146.507 32.2931 146.509 32.3243 146.511 32.193V32.1943ZM144.984 32.1943H144.25L142.035 34.3485C141.744 34.7935 141.358 35.1686 140.905 35.4471L136.996 39.2108C137.198 39.2563 137.403 39.2712 137.612 39.3018L144.984 32.1943ZM142.657 32.1943C142.657 32.4348 142.636 32.6747 142.592 32.9119L143.338 32.1937H142.657V32.1943ZM139.469 35.9645C139.267 35.9922 139.064 36.0061 138.861 36.0061C138.805 36.0061 138.751 36.0061 138.695 36.0016L135.753 38.8279C135.927 38.8981 136.105 38.9638 136.286 39.021L139.469 35.9639V35.9645ZM137.898 35.8969C137.709 35.8524 137.524 35.7937 137.345 35.7214L134.671 38.2903C134.82 38.3813 134.977 38.4684 135.133 38.5504L137.898 35.8969ZM136.754 35.4178C136.608 35.3255 136.47 35.2228 136.339 35.1104L133.729 37.6182C133.86 37.7294 133.995 37.834 134.135 37.9354L136.754 35.4178ZM135.9 34.6612C135.791 34.5279 135.693 34.3866 135.605 34.2387L132.918 36.8206C133.028 36.95 133.142 37.0722 133.265 37.1911L135.9 34.6612ZM135.319 33.6406C135.252 33.4616 135.198 33.2775 135.159 33.0901L132.242 35.8917C132.332 36.036 132.426 36.1797 132.528 36.3253L135.319 33.6406ZM135.071 32.2743V32.1943H134.395L131.709 34.7996C131.776 34.9687 131.849 35.1331 131.927 35.295L135.071 32.2743ZM133.484 32.1943H132.751L131.348 33.5691C131.385 33.7635 131.432 33.9416 131.486 34.1295L133.484 32.1943ZM131.217 32.1943C131.217 32.4543 131.227 32.5798 131.243 32.7709L131.843 32.1943H131.217ZM91.748 31.9044L91.2965 32.1924H91.748V31.9044ZM91.625 31.0333C91.6101 30.8123 91.5879 30.5848 91.5567 30.3794L89.659 32.1937H90.3928L91.625 31.0333ZM91.4142 29.6566C91.3689 29.4665 91.3155 29.2785 91.2542 29.093L88.013 32.1937H88.7469L91.4142 29.6566ZM90.9985 28.5028C90.9241 28.3424 90.8411 28.1862 90.75 28.0347L87.7574 30.9105C87.7821 31.112 87.7957 31.333 87.7971 31.5774L90.9985 28.5028ZM90.3948 27.5056C90.2943 27.3691 90.1845 27.2397 90.0663 27.1182L87.3774 29.6995C87.4711 29.8555 87.5466 30.018 87.6025 30.1902L90.3935 27.5043L90.3948 27.5056ZM89.2218 26.3511L86.5733 28.8947C86.7217 28.9851 86.8576 29.0897 86.9832 29.2067L89.62 26.6748C89.4905 26.5682 89.3597 26.4558 89.2218 26.3511ZM88.2108 25.7466L85.3581 28.4865C85.5623 28.5106 85.7634 28.5548 85.9592 28.6165L88.6838 25.9982C88.5299 25.9074 88.3721 25.8235 88.2108 25.7466ZM81.5763 32.1221L81.4429 32.2496H81.5763V32.1221ZM87.0365 25.3013L83.4226 28.7673C83.7487 28.6329 84.091 28.5418 84.4407 28.4963L87.5811 25.4781C87.4005 25.4111 87.2171 25.3521 87.0313 25.3013H87.0365ZM81.5574 31.2407C81.5437 31.0132 81.5236 30.7831 81.4989 30.5777L79.8022 32.1924H80.536L81.5574 31.2407ZM86.2936 25.1109C86.0769 25.0714 85.8585 25.0416 85.6391 25.0218L78.1614 32.1937H78.8953L86.2942 25.1089L86.2936 25.1109ZM77.8238 31.7926L84.781 25.0589C84.4882 25.0771 84.1974 25.1128 83.9092 25.1668L77.7633 31.1126C77.7769 31.2882 77.8218 31.4741 77.8218 31.6814V31.7926H77.8231H77.8238ZM82.586 25.5431C81.9289 25.8064 81.3147 26.1574 80.7631 26.5897L77.3846 29.834C77.4679 29.9991 77.5343 30.1727 77.5818 30.3495L82.586 25.5431ZM79.2713 26.4428L76.628 28.9838C76.7679 29.0813 76.8974 29.1911 77.0125 29.314L79.6558 26.7834C79.5334 26.6638 79.4053 26.5501 79.2719 26.4428H79.2713ZM78.7521 26.0703C78.6025 25.9754 78.4529 25.8857 78.298 25.8025L75.4726 28.5145C75.6665 28.5489 75.8564 28.6029 76.0405 28.6731L78.7521 26.0703ZM77.1491 25.328L73.7037 28.6386C73.9992 28.5451 74.3051 28.4879 74.6145 28.4683L77.6884 25.5158C77.5115 25.4456 77.3306 25.3839 77.1485 25.328H77.1491ZM71.6036 31.4585V30.7538L69.9525 32.1924H70.6863L71.6036 31.4585ZM76.4224 25.1239C76.2083 25.0812 75.9923 25.0484 75.7751 25.0257L68.3033 32.193H69.0371L76.4218 25.1245L76.4224 25.1239ZM67.682 25.6926L68.0274 25.3065H67.682V25.6926ZM74.9007 25.0517C74.6229 25.0667 74.3478 25.1011 74.0745 25.1518L67.6859 31.2986V32.0032L74.9001 25.0517H74.9007ZM72.7031 25.5782C72.2301 25.7941 71.8743 26.0801 71.333 26.4382V26.1633L67.682 29.7222V30.4275L72.7031 25.5789V25.5782ZM71.3122 25.3085H70.5796L67.6826 28.1452V28.8492L71.3128 25.3085H71.3122ZM69.6701 25.3085H68.9363L67.682 26.5669V27.2735L69.6701 25.3085ZM164.077 32.1078C164.077 32.0363 164.032 31.9427 164.032 31.8725L163.623 32.1976H164.079V32.1078H164.077ZM163.95 31.0353C163.931 30.813 163.909 30.5868 163.878 30.3866L161.983 32.1924H162.716L163.95 31.0353ZM163.737 29.6605C163.693 29.4697 163.64 29.281 163.579 29.0949L160.337 32.1956H161.07L163.737 29.6605ZM163.325 28.506C163.25 28.3471 163.166 28.1922 163.075 28.0419L160.08 30.9209C160.11 31.1367 160.128 31.3558 160.134 31.5729L163.325 28.506ZM162.713 27.5173C162.647 27.4325 162.578 27.3495 162.508 27.2683C162.467 27.2215 162.425 27.1773 162.382 27.1318L159.68 29.7274C159.773 29.8808 159.851 30.0427 159.909 30.211L162.713 27.5173ZM161.535 26.3628L158.873 28.9201C159.019 29.0098 159.153 29.1125 159.277 29.2301V29.2334L161.928 26.6866C161.806 26.5699 161.676 26.4613 161.54 26.3615L161.535 26.3628ZM161.002 26.0014C160.85 25.9092 160.694 25.8238 160.534 25.7453L157.666 28.4995C157.866 28.5275 158.064 28.573 158.257 28.6354L161.002 26.0014ZM153.666 31.5176V30.813L152.129 32.1924H152.864L153.666 31.5176ZM159.361 25.2935L155.867 28.6581C156.167 28.5629 156.477 28.5017 156.791 28.4754L159.914 25.4749C159.734 25.4067 159.551 25.3468 159.365 25.2955H159.361V25.2935ZM158.622 25.1044C158.406 25.0699 158.186 25.0322 157.964 25.0192L150.486 32.1924H151.22L158.622 25.1044ZM157.046 25.0615C156.758 25.081 156.471 25.1187 156.189 25.1759L149.748 31.359V32.0636L157.046 25.0615ZM154.863 25.6107C154.386 25.8286 153.94 26.1067 153.535 26.4382V26.2224L149.749 29.7814V30.486L154.863 25.6107ZM153.533 25.3494V25.3085H152.759L149.748 28.2018V28.9064L153.533 25.3494ZM151.852 25.3085H151.118L149.749 26.6241V27.3307L151.852 25.3085ZM149.749 25.7518L150.21 25.3085H149.749V25.7518ZM128.249 38.8481V38.1434L127.207 39.0853H127.944L128.249 38.8481ZM128.249 37.2685V36.5645L125.565 39.0834H126.298L128.249 37.2691V37.2685ZM128.249 34.9869L124.467 38.6849V39.0814H124.66L128.252 35.6915L128.249 34.9869ZM128.249 34.1139V33.4092L124.463 37.1105V37.8152L128.249 34.1139ZM128.249 32.5343V32.1091C128.249 32.0142 128.281 31.9245 128.28 31.8329L124.463 35.5296V36.2291L128.249 32.5343ZM128.237 31.0008C128.218 30.7798 128.209 30.5679 128.179 30.3664L124.463 33.9533V34.6579L128.237 31.0008ZM128.017 29.6312C127.97 29.4395 127.932 29.2568 127.868 29.0832L124.46 32.3724V33.0771L128.017 29.6312ZM127.566 28.4572C127.489 28.2995 127.404 28.1455 127.313 27.9957L124.333 30.8585C124.364 31.0743 124.387 31.2901 124.394 31.5079L127.566 28.4572ZM126.947 27.4757C126.891 27.4042 126.831 27.3359 126.772 27.267C126.72 27.2074 126.666 27.1489 126.612 27.0915L123.916 29.6832C124.011 29.8334 124.091 29.9939 124.154 30.1603L126.947 27.4757ZM126.157 26.654C126.027 26.5429 125.897 26.4382 125.759 26.3316L123.093 28.8934C123.243 28.9818 123.381 29.0852 123.507 29.2009L126.157 26.654ZM125.221 25.9774C125.067 25.8868 124.91 25.8027 124.75 25.7251L121.862 28.493C122.067 28.5177 122.268 28.56 122.463 28.6204L125.221 25.9774ZM124.12 25.4573C123.939 25.3899 123.755 25.3309 123.568 25.2805L120.016 28.6945C120.324 28.5892 120.644 28.519 120.967 28.4852L124.12 25.4573ZM122.872 25.1258C122.661 25.0911 122.448 25.0671 122.234 25.0537L117.976 29.1651V29.8711L122.872 25.1258ZM121.287 25.068C121.003 25.0914 120.721 25.133 120.442 25.1954L117.976 27.5875V28.2921L121.287 25.068ZM117.976 26.7178L119.061 25.6744C118.675 25.8578 118.246 26.0768 117.976 26.3238V26.7178ZM46.8415 36.5313C46.9658 36.2316 47.0473 35.9158 47.0835 35.5933L43.344 39.188C43.7409 39.0905 44.1247 38.956 44.4943 38.7876L46.8415 36.532V36.5313ZM47.0868 34.7171C47.0868 34.6976 47.0835 34.6781 47.0803 34.6586C47.0703 34.5653 47.0567 34.4725 47.0393 34.3804L47.0237 34.29C47.0118 34.2298 46.9981 34.17 46.9827 34.1106L41.4528 39.4201C41.715 39.4201 41.9791 39.4058 42.229 39.3778L47.0868 34.7171ZM46.7752 33.4625C46.7517 33.4138 46.7121 33.3631 46.6867 33.3156C46.6782 33.2994 46.6607 33.2831 46.6529 33.2669C46.6015 33.1785 46.578 33.0914 46.5182 33.0088L41.4528 37.9036V38.6095L46.7752 33.4632V33.4625ZM43.1775 34.7606C43.1775 34.7658 43.1775 34.771 43.184 34.7756C43.2029 34.8211 43.2198 34.8672 43.2295 34.9147L43.2399 34.9557C43.2517 35.0109 43.2569 35.0662 43.2569 35.1221C43.2569 35.163 43.2536 35.2059 43.2484 35.2469L46.0771 32.5297C45.9836 32.4334 45.8854 32.3416 45.783 32.2548L45.7401 32.2203L45.6998 32.1898L43.1209 34.6644C43.1411 34.6937 43.1599 34.7281 43.1768 34.7606H43.1775ZM42.3291 36.1582C42.0531 36.2467 41.7648 36.291 41.4749 36.2895L41.4528 36.3272V37.0319L42.3298 36.1589L42.3291 36.1582ZM44.9197 31.6743L44.8859 31.6567C44.8267 31.6242 44.7649 31.593 44.7057 31.5618L42.1919 33.978L42.214 33.9878C42.2628 34.0105 42.3122 34.0352 42.3584 34.0593L42.4235 34.0918C42.4846 34.1249 42.5438 34.1574 42.5998 34.1906L42.6427 34.2185C42.6492 34.2218 42.6557 34.2263 42.6616 34.2315L45.1702 31.8218C45.0879 31.7707 45.0044 31.7215 44.9197 31.6743ZM43.6043 31.0762L41.4561 33.1668V33.664C41.4561 33.6822 41.5309 33.7017 41.5842 33.7193L44.1267 31.2771C43.951 31.2069 43.776 31.1399 43.601 31.0756H43.6043V31.0762ZM44.3193 28.7823C44.4773 28.8674 44.627 28.9591 44.7701 29.054L45.1461 28.6926L46.5032 26.684L44.3193 28.7823ZM42.9335 30.8455C42.7462 30.7837 42.5777 30.7265 42.3994 30.6693L41.4548 31.5924V32.2977L42.9335 30.8455ZM46.1727 26.1262C46.0152 26.039 45.8539 25.9588 45.6894 25.8857L43.1567 28.3181C43.3421 28.3669 43.5262 28.428 43.7045 28.4982L46.1727 26.1256V26.1262ZM41.7371 30.447C41.6445 30.4076 41.5496 30.374 41.4528 30.3463V30.7207L41.7371 30.4477V30.447ZM44.4982 25.4515L41.6317 28.2044C41.6656 28.2044 41.6994 28.1959 41.7339 28.1927H41.7391C41.8562 28.1816 41.9785 28.1764 42.1014 28.1764C42.1964 28.1764 42.2901 28.1816 42.3838 28.1894L45.0459 25.6309C44.869 25.5659 44.6868 25.5074 44.4982 25.4515ZM43.8105 25.2695C43.6115 25.2246 43.411 25.1867 43.2094 25.1557L41.4528 26.8608V27.5667L43.8105 25.2701V25.2695ZM41.4528 25.991V25.2812L41.6727 25.0472H41.8224C42.0026 25.0472 42.1984 25.0556 42.3818 25.0667L41.4535 25.9917L41.4528 25.991Z" fill="white" fill-opacity="0.32"/>
</svg>
