<svg width="111" height="49" viewBox="0 0 111 49" fill="none" xmlns="http://www.w3.org/2000/svg">
<path d="M48.7095 34.1908L48.2118 34.6271H48.7095V34.1908ZM48.7095 33.5355V33.0071L46.9798 34.6256H47.5302L48.7095 33.5355ZM48.7095 31.8229L45.8702 34.5988V34.6256H46.2982L48.7095 32.3538V31.8229ZM48.7095 31.1696V30.6411L45.8702 33.4171V33.9455L48.7095 31.1696ZM48.7095 29.9849V29.4564L45.8702 32.2324V32.7609L48.7095 29.9849ZM48.7095 28.8017V28.2732L45.8702 31.0492V31.5776L48.7095 28.8017ZM48.7095 27.6184V27.0875L45.8702 29.8635V30.392L48.7095 27.6184ZM48.7095 26.4337V25.9062L45.8702 28.6822V29.2107L48.7095 26.4347V26.4337ZM48.7095 25.251V24.7225L45.8702 27.4995V28.0279L48.7095 25.251ZM48.7095 24.0678V23.5393L45.8702 26.3153V26.8437L48.7095 24.0678ZM48.7095 22.8845V22.3561L45.8702 25.1296V25.6581L48.7095 22.8841V22.8845ZM48.7095 21.7013V21.1694L45.8702 23.9449V24.4734L48.7095 21.7013ZM48.7095 20.5166V19.9886L45.8702 22.7592V23.2877L48.7095 20.5166ZM48.5295 19.525H47.9781L45.8693 21.5809V22.1099L48.5295 19.525ZM47.2974 19.525H46.748L45.8707 20.3977V20.9276L47.2979 19.525H47.2974ZM45.8702 19.741L46.0654 19.5235H45.8702V19.741ZM48.6983 20.0657V22.8738C49.3223 22.2054 50.3153 21.6916 51.3238 21.6916C53.0126 21.6916 54.1016 23.0366 54.1016 24.5324C54.1016 26.1558 52.8798 27.3513 51.256 27.3513C50.2758 27.3513 49.2901 26.8101 48.6978 26.1398V29.003C49.5531 29.6231 50.4739 29.9137 51.5458 29.9137C53.1467 29.9137 54.6798 29.2312 55.6362 28.163C56.4798 27.2235 56.9916 25.9423 56.9916 24.5324C56.9916 21.478 54.6364 19.1291 51.6991 19.1291C50.5505 19.1291 49.52 19.4723 48.6983 20.0657ZM4.95928 23.1054C4.40499 22.8982 4.02587 22.6725 4.02587 22.3093C4.02587 21.9012 4.41817 21.6301 4.95928 21.5258V19.1374C5.06272 19.1316 5.16616 19.1277 5.27058 19.1277C3.13735 19.1277 1.13733 20.366 1.13733 22.3522C1.13733 24.624 3.57014 25.0891 5.11493 25.6517L4.95879 25.5981V23.1054H4.95928ZM4.9788 27.5672C3.88925 27.5672 2.75579 27.1821 2.02194 26.542L0.624023 28.5247C1.8902 29.4208 3.46963 29.9127 4.95928 29.9127V27.5633L4.9788 27.5672ZM104.564 25.5601L101.408 19.3436H98.23L103.053 28.6569L104.564 25.5601ZM16.8057 25.5601L13.6498 19.3436H10.4714L15.2941 28.6569L16.8057 25.5601ZM94.0221 24.5314V29.6992H96.9111V24.5314H94.0221ZM86.243 24.5314V29.6992H89.1316V24.5314H86.243ZM32.2087 29.6992H35.0972V24.5314H32.2087V29.6992ZM39.7658 29.6992H42.6548V24.5314H39.7662V29.6992H39.7658ZM24.6516 29.6992H27.5402V24.5314H24.6516V29.6992ZM75.2212 24.5285C75.2339 22.9816 76.3854 21.7159 78.0653 21.7159C79.7453 21.7159 80.8953 22.9825 80.9095 24.529H83.7985C83.7843 21.5531 81.3218 19.152 78.0653 19.152C74.8099 19.152 72.3463 21.5516 72.3312 24.5285H75.2212ZM62.3291 14.5371H59.4401V29.6992H62.3291V14.5371ZM103.211 34.7719L102.96 35.0132H103.098L103.211 34.7719ZM103.78 33.5736L104.24 32.6005L101.727 35.0123H102.278L103.78 33.5741V33.5736ZM104.808 31.4021L105.267 30.4285L100.496 35.0123H101.046L104.808 31.4021ZM105.837 29.2346L106.296 28.2644L100.759 33.5848L100.294 34.5584L105.837 29.2346ZM106.864 27.0631L107.324 26.093L101.799 31.4021L101.334 32.3757L106.864 27.0631ZM107.892 24.8917L108.352 23.9215L102.838 29.2185L102.374 30.1921L107.892 24.8917ZM108.921 22.7202L109.381 21.7501L103.896 27.0188L103.422 28.0045L108.921 22.7198V22.7202ZM109.949 20.5488L110.408 19.5786L104.931 24.8415L104.563 25.6347L104.484 25.7965L109.949 20.5488ZM109.973 19.3275H109.423L105.917 22.7056L105.477 23.6543L109.973 19.3275ZM108.741 19.3275H108.191L106.903 20.5722L106.462 21.5209L108.741 19.3275ZM107.447 19.4007L107.508 19.3422H107.473L107.447 19.4007ZM15.4522 34.7724L15.2 35.0137H15.3375L15.4527 34.7724H15.4522ZM16.0206 33.5741L16.4803 32.6009L13.9665 35.0132H14.5168L16.0206 33.5736V33.5741ZM17.0497 31.4026L17.5088 30.429L12.7369 35.0127H13.2873L17.0492 31.4026H17.0497ZM18.0773 29.2351L18.5369 28.2649L12.9989 33.5853L12.5344 34.5589L18.0773 29.2351ZM19.1058 27.0636L19.5655 26.0934L14.0392 31.4026L13.5747 32.3762L19.1068 27.0631L19.1058 27.0636ZM20.1354 24.8922L20.5945 23.922L15.0809 29.219L14.6164 30.1926L20.1349 24.8922H20.1354ZM21.1625 22.7207L21.6245 21.7506L16.1402 27.0178L15.6659 28.0036L21.1625 22.7202V22.7207ZM22.193 20.5493L22.6526 19.5791L17.1746 24.842L16.8072 25.6352L16.7277 25.797L22.1925 20.5493H22.193ZM22.2159 19.328H21.6655L18.1573 22.7061L17.7172 23.6548L22.2159 19.328ZM20.9853 19.328H20.435L19.1468 20.5727L18.7067 21.5214L20.9853 19.328ZM19.6894 19.4012L19.7509 19.3427H19.7167L19.6894 19.4012ZM83.1334 27.0904L80.9017 29.2351C81.8382 28.7519 82.6137 28.0067 83.1334 27.0904ZM83.5901 25.9984C83.6541 25.7775 83.7038 25.5533 83.7385 25.3261L79.0431 29.8381C79.2817 29.8016 79.5179 29.7514 79.7501 29.6875L83.5901 25.9979V25.9984ZM83.7985 24.4914H83.3335L77.7408 29.8844C77.8482 29.8893 77.9555 29.903 78.0639 29.903H78.2888L83.7956 24.5938C83.7956 24.5655 83.797 24.5889 83.7985 24.4905V24.4914ZM82.6533 24.4914H82.1029L80.442 26.1071C80.2238 26.4408 79.9343 26.7221 79.5945 26.931L76.6625 29.7538C76.8143 29.7879 76.9675 29.7991 77.1246 29.822L82.6533 24.4914ZM80.908 24.4914C80.908 24.6718 80.8929 24.8517 80.8597 25.0297L81.4189 24.4909H80.908V24.4914ZM78.5171 27.3191C78.3661 27.3399 78.2139 27.3503 78.0614 27.3503C78.0195 27.3503 77.9785 27.3503 77.9365 27.3469L75.7306 29.4666C75.8609 29.5193 75.9945 29.5685 76.1302 29.6114L78.5171 27.3186V27.3191ZM77.3388 27.2684C77.1974 27.235 77.0588 27.191 76.9241 27.1367L74.9187 29.0635C75.0309 29.1317 75.1485 29.197 75.2656 29.2585L77.3388 27.2684ZM76.481 26.9091C76.3718 26.8399 76.2677 26.7628 76.1697 26.6785L74.2126 28.5594C74.3107 28.6427 74.4117 28.7212 74.5166 28.7973L76.481 26.9091ZM75.8404 26.3416C75.7589 26.2416 75.685 26.1357 75.6193 26.0247L73.6037 27.9612C73.6866 28.0582 73.772 28.1498 73.8643 28.239L75.8404 26.3416ZM75.4051 25.5762C75.3542 25.4419 75.3141 25.3038 75.2851 25.1632L73.0967 27.2645C73.1646 27.3727 73.2348 27.4805 73.3114 27.5897L75.4051 25.5762ZM75.2187 24.5514V24.4914H74.7118L72.6971 26.4454C72.7474 26.5722 72.802 26.6955 72.8606 26.8169L75.2187 24.5514ZM74.0287 24.4914H73.4788L72.4268 25.5225C72.4546 25.6683 72.4893 25.8019 72.5302 25.9428L74.0287 24.4914ZM72.3282 24.4914C72.3282 24.6864 72.3361 24.7805 72.3478 24.9239L72.7981 24.4914H72.3282ZM42.7265 24.274L42.3879 24.49H42.7265V24.274ZM42.6343 23.6207C42.6231 23.4549 42.6065 23.2843 42.5831 23.1303L41.1598 24.4909H41.7102L42.6343 23.6207ZM42.4762 22.5881C42.4422 22.4456 42.4022 22.3046 42.3562 22.1654L39.9253 24.4909H40.4757L42.4762 22.5881ZM42.1644 21.7228C42.1086 21.6025 42.0464 21.4853 41.978 21.3717L39.7336 23.5286C39.7521 23.6797 39.7623 23.8455 39.7633 24.0288L42.1644 21.7228ZM41.7116 20.9749C41.6362 20.8725 41.5539 20.7754 41.4652 20.6843L39.4486 22.6203C39.5189 22.7373 39.5755 22.8592 39.6174 22.9884L41.7106 20.9739L41.7116 20.9749ZM40.8319 20.1091L38.8455 22.0167C38.9568 22.0845 39.0587 22.163 39.1529 22.2508L41.1305 20.3518C41.0334 20.2719 40.9353 20.1875 40.8319 20.1091ZM40.0736 19.6557L37.9341 21.7106C38.0873 21.7286 38.238 21.7618 38.3849 21.8081L40.4284 19.8443C40.3129 19.7763 40.1946 19.7133 40.0736 19.6557ZM35.0977 24.4373L34.9977 24.5329H35.0977V24.4373ZM39.1929 19.3217L36.4825 21.9212C36.727 21.8204 36.9838 21.7521 37.2461 21.7179L39.6013 19.4543C39.4659 19.404 39.3284 19.3598 39.189 19.3217H39.1929ZM35.0836 23.7762C35.0733 23.6056 35.0582 23.433 35.0397 23.279L33.7671 24.49H34.3175L35.0836 23.7762ZM38.6357 19.1789C38.4732 19.1492 38.3094 19.1269 38.1449 19.1121L32.5366 24.4909H33.087L38.6362 19.1774L38.6357 19.1789ZM32.2834 24.1901L37.5013 19.1398C37.2817 19.1535 37.0636 19.1803 36.8474 19.2208L32.238 23.6802C32.2482 23.8118 32.2819 23.9512 32.2819 24.1068V24.1901H32.2829H32.2834ZM35.855 19.5031C35.3622 19.7005 34.9016 19.9638 34.4878 20.288L31.954 22.7212C32.0165 22.8451 32.0662 22.9752 32.1018 23.1078L35.855 19.5031ZM33.369 20.1778L31.3865 22.0835C31.4914 22.1567 31.5885 22.2391 31.6749 22.3312L33.6574 20.4333C33.5656 20.3435 33.4695 20.2583 33.3695 20.1778H33.369ZM32.9796 19.8984C32.8674 19.8273 32.7552 19.76 32.6391 19.6976L30.52 21.7315C30.6654 21.7574 30.8079 21.7978 30.9459 21.8505L32.9796 19.8984ZM31.7774 19.3417L29.1933 21.8247C29.415 21.7545 29.6443 21.7116 29.8764 21.6969L32.1819 19.4826C32.0491 19.4299 31.9135 19.3836 31.7769 19.3417H31.7774ZM27.6183 23.9395V23.4111L26.3799 24.49H26.9303L27.6183 23.9395ZM31.2324 19.1886C31.0717 19.1566 30.9097 19.132 30.7469 19.115L25.143 24.4905H25.6934L31.2319 19.1891L31.2324 19.1886ZM24.677 19.6152L24.9361 19.3256H24.677V19.6152ZM30.0911 19.1345C29.8827 19.1457 29.6763 19.1715 29.4714 19.2096L24.6799 23.8196V24.3481L30.0906 19.1345H30.0911ZM28.4429 19.5294C28.0881 19.6912 27.8212 19.9058 27.4153 20.1744V19.9682L24.677 22.6374V23.1663L28.4429 19.5299V19.5294ZM27.3997 19.3271H26.8503L24.6775 21.4546V21.9826L27.4001 19.3271H27.3997ZM26.1681 19.3271H25.6177L24.677 20.2709V20.8009L26.1681 19.3271ZM96.9736 24.4266C96.9736 24.373 96.9394 24.3028 96.9394 24.2501L96.633 24.4939H96.975V24.4266H96.9736ZM96.8779 23.6222C96.8638 23.4554 96.8472 23.2858 96.8243 23.1356L95.4024 24.49H95.9523L96.8779 23.6222ZM96.7184 22.5911C96.6852 22.448 96.6456 22.3065 96.5998 22.1669L94.168 24.4924H94.7179L96.7184 22.5911ZM96.4095 21.7252C96.353 21.606 96.2903 21.4898 96.2217 21.3771L93.9753 23.5364C93.9982 23.6982 94.0118 23.8625 94.0158 24.0254L96.4095 21.7252ZM95.9499 20.9837C95.9005 20.9201 95.8494 20.8578 95.7967 20.797C95.766 20.7619 95.7342 20.7287 95.702 20.6946L93.6752 22.6413C93.7454 22.7563 93.804 22.8777 93.8474 23.004L95.9499 20.9837ZM95.0667 20.1178L93.0701 22.0358C93.1799 22.103 93.2804 22.1801 93.3736 22.2683V22.2707L95.3615 20.3606C95.2698 20.2731 95.1725 20.1917 95.0702 20.1169L95.0667 20.1178ZM94.6671 19.8468C94.5529 19.7776 94.4357 19.7135 94.3158 19.6547L92.165 21.7203C92.3153 21.7413 92.4636 21.7754 92.6081 21.8222L94.6671 19.8468ZM89.1647 23.9839V23.4554L88.0123 24.49H88.5636L89.1647 23.9839ZM93.4366 19.3158L90.8154 21.8393C91.0407 21.7679 91.2733 21.722 91.5088 21.7023L93.8513 19.4519C93.716 19.4007 93.5784 19.3558 93.439 19.3173H93.4366V19.3158ZM92.8823 19.174C92.7203 19.1481 92.5554 19.1199 92.3885 19.1101L86.7802 24.49H87.3306L92.8823 19.174ZM91.7 19.1418C91.4844 19.1564 91.2687 19.1847 91.0569 19.2276L86.2264 23.865V24.3934L91.7 19.1418ZM90.0625 19.5538C89.7054 19.7172 89.3707 19.9258 89.0667 20.1744V20.0125L86.2274 22.6817V23.2102L90.0625 19.5538ZM89.0652 19.3578V19.3271H88.4846L86.2264 21.497V22.0255L89.0652 19.3578ZM87.8044 19.3271H87.254L86.2274 20.3138V20.8438L87.8044 19.3271ZM86.2274 19.6596L86.5734 19.3271H86.2274V19.6596ZM70.1023 29.4818V28.9533L69.3206 29.6597H69.8735L70.1023 29.4818ZM70.1023 28.2971V27.7691L68.0891 29.6582H68.639L70.1023 28.2976V28.2971ZM70.1023 26.5858L67.2655 29.3594V29.6568H67.4109L70.1047 27.1143L70.1023 26.5858ZM70.1023 25.9311V25.4026L67.263 28.1786V28.7071L70.1023 25.9311ZM70.1023 24.7464V24.4276C70.1023 24.3564 70.1262 24.2891 70.1252 24.2204L67.263 26.9929V27.5175L70.1023 24.7464ZM70.093 23.5963C70.0789 23.4306 70.0725 23.2716 70.0496 23.1205L67.263 25.8107V26.3392L70.093 23.5963ZM69.9286 22.5691C69.893 22.4253 69.8647 22.2883 69.8164 22.1581L67.2606 24.625V25.1535L69.9286 22.5691ZM69.59 21.6886C69.5322 21.5703 69.4689 21.4548 69.4002 21.3425L67.165 23.4896C67.1889 23.6514 67.2055 23.8133 67.2108 23.9766L69.59 21.6886ZM69.1255 20.9525C69.0835 20.8988 69.0386 20.8477 68.9942 20.796C68.9552 20.7512 68.9151 20.7074 68.8742 20.6643L66.8522 22.6081C66.9234 22.7207 66.9835 22.8412 67.0308 22.966L69.1255 20.9525ZM68.5331 20.3362C68.436 20.2529 68.338 20.1744 68.2345 20.0944L66.2355 22.0158C66.3477 22.0821 66.4511 22.1596 66.5458 22.2464L68.5331 20.3362ZM67.831 19.8287C67.7159 19.7608 67.598 19.6977 67.4777 19.6396L65.3123 21.7155C65.4655 21.734 65.6163 21.7657 65.7632 21.811L67.831 19.8287ZM67.0054 19.4387C66.8696 19.3881 66.7316 19.3439 66.5917 19.3061L63.9276 21.8666C64.1583 21.7876 64.3984 21.735 64.6409 21.7096L67.0054 19.4387ZM66.0696 19.1901C65.911 19.1641 65.7513 19.146 65.5909 19.1359L62.3979 22.2196V22.749L66.0696 19.1901ZM64.881 19.1467C64.6677 19.1642 64.456 19.1954 64.2467 19.2422L62.3979 21.0363V21.5648L64.881 19.1467ZM62.3979 20.384L63.2113 19.6015C62.9214 19.739 62.5999 19.9033 62.3979 20.0886V20.384ZM9.04667 27.7442C9.1399 27.5194 9.20101 27.2826 9.22818 27.0407L6.42356 29.7367C6.72119 29.6636 7.00907 29.5627 7.28622 29.4364L9.04667 27.7447V27.7442ZM9.23062 26.3835C9.23062 26.3689 9.22818 26.3543 9.22574 26.3396C9.21828 26.2697 9.20802 26.2001 9.195 26.131L9.18329 26.0632C9.17438 26.0181 9.16413 25.9732 9.15255 25.9287L5.00515 29.9108C5.20178 29.9108 5.39988 29.9001 5.58725 29.8791L9.23062 26.3835ZM8.9969 25.4426C8.97933 25.406 8.94957 25.368 8.93054 25.3324C8.9242 25.3202 8.91102 25.308 8.90517 25.2958C8.86662 25.2295 8.84906 25.1642 8.80417 25.1023L5.00515 28.7734V29.3028L8.9969 25.4431V25.4426ZM6.29865 26.4162C6.29865 26.4201 6.29865 26.424 6.30353 26.4274C6.31768 26.4615 6.33036 26.4961 6.33768 26.5317L6.34549 26.5624C6.35427 26.6039 6.35817 26.6453 6.35817 26.6873C6.35817 26.718 6.35574 26.7501 6.35183 26.7809L8.47335 24.743C8.40321 24.6707 8.32961 24.6019 8.25281 24.5368L8.2206 24.5109L8.19035 24.488L6.2562 26.344C6.27132 26.366 6.28547 26.3918 6.29816 26.4162H6.29865ZM5.66239 27.4644C5.45536 27.5307 5.23915 27.564 5.02174 27.5628L5.00515 27.5911V28.1196L5.66287 27.4649L5.66239 27.4644ZM7.60532 24.1014L7.57995 24.0882C7.53555 24.0639 7.4892 24.0405 7.44479 24.0171L5.55943 25.8292L5.57602 25.8365C5.61262 25.8536 5.6497 25.8721 5.68434 25.8901L5.73314 25.9145C5.779 25.9394 5.8234 25.9638 5.86537 25.9886L5.89757 26.0096C5.90245 26.012 5.90733 26.0154 5.91172 26.0193L7.79318 24.2121C7.73143 24.1737 7.6688 24.1368 7.60532 24.1014ZM6.61873 23.6529L5.00759 25.2208V25.5937C5.00759 25.6074 5.0637 25.622 5.10371 25.6352L7.01054 23.8035C6.8788 23.7509 6.74754 23.7007 6.61629 23.6524H6.61873V23.6529ZM7.15496 21.9324C7.27353 21.9963 7.38576 22.065 7.4931 22.1362L7.77512 21.8651L8.79294 20.3587L7.15496 21.9324ZM6.11567 23.4798C5.97515 23.4335 5.84878 23.3906 5.71508 23.3477L5.00661 24.04V24.5689L6.11567 23.4798ZM8.54508 19.9404C8.42692 19.875 8.30596 19.8148 8.18254 19.76L6.28303 21.5843C6.42209 21.6209 6.56018 21.6667 6.69387 21.7194L8.54508 19.9399V19.9404ZM5.21837 23.181C5.14892 23.1514 5.07771 23.1262 5.00515 23.1054V23.3862L5.21837 23.1814V23.181ZM7.28914 19.4343L5.13933 21.499C5.1647 21.499 5.19007 21.4927 5.21593 21.4902H5.21983C5.30766 21.4819 5.39939 21.478 5.49161 21.478C5.56285 21.478 5.63311 21.4819 5.70337 21.4878L7.69998 19.5689C7.56727 19.5201 7.43064 19.4762 7.28914 19.4343ZM6.7734 19.2978C6.62415 19.2642 6.47378 19.2357 6.32256 19.2125L5.00515 20.4913V21.0207L6.7734 19.2983V19.2978ZM5.00515 19.839V19.3066L5.17007 19.1311H5.28229C5.41745 19.1311 5.56431 19.1374 5.70191 19.1457L5.00563 19.8394L5.00515 19.839Z" fill="#05060F" fill-opacity="0.32"/>
</svg>
