<svg width="122" height="49" viewBox="0 0 122 49" fill="none" xmlns="http://www.w3.org/2000/svg">
<path d="M0.0712891 24.9349V21.858H3.14791V24.9349H0.0712891ZM11.1554 24.9349V21.858H14.2323V24.9349H11.1554ZM20.6647 24.9349V21.858H23.7416V24.9349H20.6647ZM30.1739 24.9349V21.858H33.2506V24.9349H30.1739ZM45.2555 19.6504C44.9406 18.0933 44.5323 16.9449 44.0302 16.2045C43.2304 15.0219 42.2095 14.4305 40.9673 14.4305C40.21 14.4305 39.572 14.6602 39.0528 15.1197C38.4233 15.6814 38.1084 16.4216 38.1084 17.3404C38.1084 18.3104 38.4486 19.0762 39.1293 19.6376C39.5464 19.9866 40.3503 20.3652 41.5415 20.7735C43.2857 21.3778 44.4557 21.9011 45.0512 22.3434C46.319 23.2794 46.9529 24.5813 46.9529 26.249C46.9529 27.8485 46.434 29.1844 45.3958 30.2566C44.4429 31.252 43.2645 31.7497 41.8605 31.7497C41.1116 31.7497 40.4184 31.6135 39.7801 31.3413C39.5077 31.2307 39.0612 30.9799 38.4402 30.5884C38.2358 30.4609 38.0359 30.3972 37.8403 30.3972C37.6107 30.3972 37.4023 30.5159 37.2152 30.7546C37.1302 30.8736 37.0152 31.0651 36.8706 31.3291H36.0664V25.0109H36.8962C37.2023 26.6104 37.6238 27.8314 38.1596 28.6739C39.0615 30.0948 40.2484 30.805 41.7202 30.805C42.5797 30.805 43.2942 30.5544 43.8643 30.052C44.5876 29.4053 44.9491 28.5165 44.9491 27.3846C44.9491 26.0403 44.3876 25.0449 43.2645 24.3982C42.9071 24.1939 41.9245 23.8196 40.3162 23.2751C39.1762 22.8923 38.2827 22.4156 37.636 21.8458C36.6831 21.0119 36.2067 19.8632 36.2067 18.3998C36.2067 16.8171 36.7256 15.5665 37.7638 14.6474C38.606 13.8901 39.6314 13.5117 40.8395 13.5117C41.4947 13.5117 42.1414 13.6392 42.7796 13.8944C43.0433 14.005 43.456 14.2306 44.0174 14.5708C44.1961 14.673 44.3577 14.7239 44.5023 14.7239C44.7663 14.7239 45.03 14.4515 45.2939 13.9072H46.0085V19.6504H45.2555ZM47.6549 19.3058H53.1047V20.11H52.6323C51.9262 20.11 51.5729 20.3015 51.5729 20.6842C51.5729 20.8373 51.6326 21.0716 51.7516 21.3862L54.3678 28.2269L56.6397 21.8967C56.8015 21.4543 56.8821 21.1097 56.8821 20.8629C56.8821 20.3608 56.4994 20.11 55.7337 20.11H55.1592V19.3058H59.4474V20.11H59.1665C58.8941 20.11 58.6688 20.2014 58.4902 20.3844C58.3115 20.5675 58.1371 20.8801 57.9669 21.3225L53.6408 32.9619C53.2324 34.0425 52.7813 34.8211 52.288 35.2975C51.7775 35.7908 51.1477 36.0376 50.3991 36.0376C49.7612 36.0376 49.2251 35.8546 48.7911 35.4887C48.2635 35.0379 47.9998 34.4762 47.9998 33.8042C47.9998 33.3871 48.1188 33.0384 48.3572 32.7576C48.6124 32.4427 48.9614 32.2852 49.4041 32.2852C49.8889 32.2852 50.2591 32.4639 50.5141 32.8213C50.6672 33.0341 50.7437 33.2765 50.7437 33.5489C50.7437 33.9404 50.6037 34.2678 50.3229 34.5315C50.1526 34.6933 49.9274 34.7952 49.6465 34.8379C49.8421 35.0591 50.1101 35.17 50.4507 35.17C50.9527 35.17 51.3907 34.9698 51.7653 34.5699C52.1055 34.2041 52.4842 33.4342 52.901 32.2596L53.1818 31.4429L49.5956 21.7942C49.3147 21.0626 49.0766 20.6074 48.8811 20.4287C48.6596 20.2159 48.3237 20.1097 47.8726 20.1097H47.6558V19.3058H47.6549ZM68.0367 19.3058V23.1092H67.2453C66.8198 20.9054 65.8032 19.8038 64.1952 19.8038C63.6166 19.8038 63.1486 19.9781 62.7915 20.3271C62.4169 20.6845 62.2298 21.1225 62.2298 21.6417C62.2298 22.2372 62.4894 22.7096 63.0083 23.0585C63.2636 23.2285 63.7275 23.4244 64.3992 23.6456C65.846 24.1051 66.8157 24.5178 67.3094 24.8834C68.2619 25.6066 68.7387 26.5554 68.7387 27.7292C68.7387 28.9207 68.326 29.8949 67.5006 30.6522C66.8029 31.2817 65.9054 31.5963 64.8075 31.5963C64.1865 31.5963 63.6122 31.4857 63.0846 31.2645C62.7871 31.1455 62.3913 30.9327 61.8977 30.6265C61.7702 30.5497 61.6681 30.5116 61.5915 30.5116C61.4213 30.5116 61.2554 30.784 61.0935 31.3285H60.3534V26.8997H61.0935C61.3913 27.9804 61.7149 28.7717 62.0636 29.2735C62.7528 30.2604 63.6675 30.754 64.8075 30.754C65.4627 30.754 65.9819 30.5288 66.3649 30.0776C66.7308 29.6606 66.9138 29.1757 66.9138 28.6227C66.9138 27.8229 66.5561 27.2015 65.8416 26.7594C65.4589 26.5298 64.6885 26.2277 63.5313 25.8534C62.4935 25.5129 61.7254 25.058 61.2277 24.4878C60.73 23.918 60.4812 23.2032 60.4812 22.3437C60.4812 21.3312 60.8386 20.5145 61.5534 19.8934C62.2001 19.332 63.0168 19.0512 64.0037 19.0512C64.8803 19.0512 65.7057 19.2852 66.4799 19.7531C66.633 19.8466 66.7607 19.8934 66.8626 19.8934C67.0329 19.8934 67.1603 19.6979 67.2453 19.3064H68.0367V19.3058ZM73.18 20.1993V27.4358C73.18 28.3634 73.244 29.0479 73.3715 29.4909C73.5671 30.1629 73.9798 30.4991 74.6096 30.4991C75.1879 30.4991 75.6006 30.2054 75.8474 29.6184C76.0855 29.0567 76.2051 28.3721 76.2051 27.5636V27.2062H77.0727V27.6911C77.0727 30.2945 76.0433 31.5963 73.9841 31.5963C72.9632 31.5963 72.2062 31.3029 71.7123 30.7159C71.3464 30.2735 71.1252 29.7415 71.0487 29.1207C70.9977 28.6527 70.9721 28.0913 70.9721 27.4361V20.1993H69.0833V19.4592C70.2658 19.1955 71.0871 18.7191 71.5467 18.0299C72.0231 17.2726 72.3168 16.1876 72.4271 14.7754H73.18V19.3061H76.69V20.1996L73.18 20.1993ZM87.449 25.228H80.3018C80.3103 26.9125 80.4846 28.1588 80.8251 28.9673C81.3016 30.1076 82.1182 30.6778 83.2754 30.6778C84.1774 30.6778 84.9306 30.3201 85.5345 29.6056C85.8666 29.2138 86.1981 28.6739 86.5302 27.9844L87.3087 28.3931C86.2112 30.5966 84.7306 31.6985 82.8671 31.6985C81.4974 31.6985 80.3743 31.2305 79.498 30.2945C78.4089 29.1288 77.8643 27.4443 77.8643 25.2405C77.8643 23.2154 78.4089 21.5949 79.498 20.378C80.3571 19.4167 81.3909 18.9359 82.599 18.9359C84.3945 18.9359 85.7432 19.8378 86.6448 21.6414C87.1297 22.6031 87.3978 23.7984 87.449 25.228ZM85.0368 24.3089C85.0368 23.2454 84.9219 22.3688 84.6922 21.6796C84.2752 20.463 83.62 19.8544 82.7265 19.8544C81.7227 19.8544 81.012 20.6033 80.5952 22.1007C80.4252 22.7049 80.3356 23.4407 80.3272 24.3086H85.0368V24.3089ZM102.547 31.3285V23.9771C102.547 22.4625 102.441 21.484 102.228 21.0416C101.939 20.463 101.488 20.1737 100.875 20.1737C100.143 20.1737 99.5515 20.5864 99.1006 21.4115C98.8538 21.8626 98.6923 22.356 98.6155 22.8921C98.5561 23.2835 98.5267 24.0236 98.5267 25.113V28.4056C98.5351 29.3841 98.6411 29.9842 98.8454 30.2054C99.0154 30.4094 99.3521 30.5157 99.8541 30.5244H100.224V31.3288H96.3185V24.3857C96.3185 23.1945 96.2929 22.4203 96.2417 22.0629C96.0633 20.7951 95.5153 20.1612 94.5964 20.1612C93.8563 20.1612 93.2728 20.5823 92.8473 21.4246C92.6348 21.8329 92.4899 22.2628 92.4133 22.7136C92.3283 23.1732 92.2859 23.973 92.2859 25.1133V28.4059C92.2943 29.3844 92.3921 29.9845 92.5801 30.2057C92.7588 30.4097 93.1028 30.5159 93.6133 30.5247H93.9841V31.3291H88.3297V30.5247H88.7508C89.2357 30.5162 89.5678 30.4097 89.7462 30.2057C89.9589 29.9932 90.0695 29.3931 90.0783 28.4059V22.2032C90.0698 21.2247 89.9592 20.6289 89.7462 20.4164C89.5678 20.2121 89.2357 20.11 88.7508 20.11H88.4572V19.3058L92.1205 19.1271V21.2456C92.2899 20.8201 92.5289 20.4415 92.835 20.1097C93.4896 19.4036 94.2722 19.0503 95.1835 19.0503C96.1529 19.0503 96.9309 19.4033 97.5179 20.1097C97.7732 20.4161 98.0113 20.8498 98.2325 21.4115C98.99 19.8376 100.067 19.0506 101.462 19.0506C102.015 19.0506 102.526 19.1719 102.994 19.4144C103.462 19.6568 103.831 19.9906 104.104 20.4161C104.41 20.8926 104.597 21.4371 104.665 22.0498C104.725 22.5431 104.755 23.0876 104.755 23.6834V28.4056C104.764 29.3841 104.87 29.9842 105.074 30.2054C105.244 30.4094 105.581 30.5157 106.083 30.5244H106.376V31.3288L102.547 31.3285ZM115.285 19.3058V23.1092H114.493C114.068 20.9054 113.051 19.8038 111.443 19.8038C110.864 19.8038 110.396 19.9781 110.039 20.3271C109.664 20.6845 109.477 21.1225 109.477 21.6417C109.477 22.2372 109.737 22.7096 110.256 23.0585C110.512 23.2285 110.975 23.4244 111.647 23.6456C113.093 24.1051 114.063 24.5178 114.557 24.8834C115.509 25.6066 115.986 26.5554 115.986 27.7292C115.986 28.9207 115.574 29.8949 114.749 30.6522C114.051 31.2817 113.153 31.5963 112.055 31.5963C111.434 31.5963 110.86 31.4857 110.333 31.2645C110.035 31.1455 109.639 30.9327 109.145 30.6265C109.018 30.5497 108.915 30.5116 108.839 30.5116C108.669 30.5116 108.503 30.784 108.342 31.3285H107.601V26.8997H108.342C108.639 27.9804 108.963 28.7717 109.312 29.2735C110.001 30.2604 110.915 30.754 112.055 30.754C112.71 30.754 113.229 30.5288 113.612 30.0776C113.978 29.6606 114.162 29.1757 114.162 28.6227C114.162 27.8229 113.804 27.2015 113.09 26.7594C112.707 26.5298 111.936 26.2277 110.779 25.8534C109.741 25.5129 108.973 25.058 108.476 24.4878C107.977 23.918 107.729 23.2032 107.729 22.3437C107.729 21.3312 108.087 20.5145 108.802 19.8934C109.448 19.332 110.265 19.0512 111.252 19.0512C112.129 19.0512 112.954 19.2852 113.728 19.7531C113.881 19.8466 114.009 19.8934 114.111 19.8934C114.281 19.8934 114.409 19.6979 114.494 19.3064H115.285V19.3058ZM118.317 24.9349V21.858H121.394V24.9349H118.317Z" fill="#05060F" fill-opacity="0.32"/>
<path d="M8.58045 14.7608V27.9317C8.58045 28.8846 8.6308 29.4719 8.7318 29.6931C8.90642 30.212 9.49404 30.4801 10.4944 30.4973H11.1553V31.3396H3.4025V30.4973H4.06346C4.78874 30.4973 5.28468 30.3654 5.55069 30.1017C5.73463 29.9399 5.84901 29.6975 5.89528 29.3741C5.95 29.0423 5.97794 28.5615 5.97794 27.932V14.7608H5.39935C4.49071 14.7608 3.67346 15.0076 2.94847 15.501C1.85589 16.2495 1.22229 17.7513 1.04795 20.006L0.22168 19.9676L0.373313 13.918H14.2677L14.378 19.9676L13.5378 20.006C13.3451 18.5764 13.0238 17.4661 12.5739 16.675C12.1699 15.9687 11.6652 15.4669 11.0593 15.1692C10.5176 14.9055 9.8334 14.7693 9.00741 14.7608H8.58045Z" fill="#05060F" fill-opacity="0.32"/>
</svg>
