<svg width="218" height="65" viewBox="0 0 218 65" fill="none" xmlns="http://www.w3.org/2000/svg">
<path d="M28.3184 32.7856V28.683H32.4205V32.7856H28.3184ZM43.0972 32.7856V28.683H47.1997V32.7856H43.0972ZM55.7762 32.7856V28.683H59.8787V32.7856H55.7762ZM68.4552 32.7856V28.683H72.5574V32.7856H68.4552ZM88.564 25.7396C88.1441 23.6635 87.5997 22.1322 86.9303 21.145C85.8639 19.5683 84.5026 18.7798 82.8464 18.7798C81.8366 18.7798 80.986 19.086 80.2937 19.6987C79.4543 20.4477 79.0345 21.4345 79.0345 22.6596C79.0345 23.953 79.4881 24.974 80.3958 25.7225C80.9519 26.1878 82.0237 26.6927 83.612 27.2371C85.9376 28.0427 87.4976 28.7405 88.2916 29.3303C89.982 30.5783 90.8272 32.3141 90.8272 34.5377C90.8272 36.6704 90.1353 38.4516 88.751 39.8812C87.4805 41.2084 85.9093 41.872 84.0373 41.872C83.0388 41.872 82.1145 41.6904 81.2635 41.3275C80.9002 41.1801 80.305 40.8456 79.4768 40.3236C79.2044 40.1536 78.9378 40.0687 78.6771 40.0687C78.3709 40.0687 78.093 40.227 77.8435 40.5452C77.7302 40.7039 77.5769 40.9593 77.384 41.3112H76.3118V32.8869H77.4182C77.8264 35.0196 78.3883 36.6475 79.1028 37.771C80.3053 39.6655 81.8879 40.6123 83.8503 40.6123C84.9962 40.6123 85.9489 40.2782 86.7091 39.6084C87.6734 38.7462 88.1554 37.561 88.1554 36.0519C88.1554 34.2594 87.4068 32.9323 85.9093 32.07C85.4328 31.7976 84.1227 31.2985 81.9783 30.5725C80.4582 30.0622 79.2669 29.4266 78.4046 28.6667C77.1341 27.5549 76.4989 26.0233 76.4989 24.0721C76.4989 21.9619 77.1908 20.2944 78.575 19.0689C79.698 18.0592 81.0652 17.5547 82.676 17.5547C83.5495 17.5547 84.4118 17.7247 85.2628 18.065C85.6144 18.2124 86.1646 18.5132 86.9132 18.9668C87.1515 19.103 87.3668 19.1709 87.5597 19.1709C87.9117 19.1709 88.2633 18.8077 88.6152 18.0821H89.5679V25.7396H88.564ZM91.7632 25.2802H99.0295V26.3524H98.3997C97.4583 26.3524 96.9872 26.6077 96.9872 27.118C96.9872 27.3221 97.0667 27.6345 97.2255 28.054L100.714 37.1749L103.743 28.7346C103.959 28.1448 104.066 27.6853 104.066 27.3563C104.066 26.6869 103.556 26.3524 102.535 26.3524H101.769V25.2802H107.486V26.3524H107.112C106.749 26.3524 106.448 26.4742 106.21 26.7183C105.972 26.9624 105.739 27.3792 105.512 27.969L99.7443 43.4882C99.1999 44.9291 98.5984 45.9671 97.9407 46.6024C97.26 47.2602 96.4202 47.5892 95.4222 47.5892C94.5715 47.5892 93.8567 47.3451 93.2781 46.8574C92.5746 46.2563 92.223 45.5073 92.223 44.6113C92.223 44.0552 92.3817 43.5903 92.6995 43.2158C93.0399 42.7959 93.5051 42.586 94.0954 42.586C94.7419 42.586 95.2355 42.8243 95.5754 43.3008C95.7796 43.5845 95.8816 43.9077 95.8816 44.2709C95.8816 44.7929 95.695 45.2294 95.3205 45.581C95.0935 45.7968 94.7931 45.9326 94.4186 45.9897C94.6794 46.2846 95.0368 46.4324 95.4908 46.4324C96.1602 46.4324 96.7443 46.1654 97.2437 45.6322C97.6973 45.1445 98.2022 44.118 98.7579 42.5518L99.1324 41.463L94.3507 28.598C93.9762 27.6225 93.6588 27.0155 93.398 26.7773C93.1027 26.4936 92.6549 26.352 92.0534 26.352H91.7643V25.2802H91.7632ZM118.939 25.2802V30.3513H117.884C117.316 27.4129 115.961 25.9441 113.817 25.9441C113.045 25.9441 112.421 26.1766 111.945 26.6418C111.446 27.1184 111.196 27.7024 111.196 28.3947C111.196 29.1887 111.542 29.8185 112.234 30.2838C112.575 30.5104 113.193 30.7716 114.089 31.0665C116.018 31.6792 117.311 32.2295 117.969 32.7169C119.239 33.6812 119.875 34.9463 119.875 36.5113C119.875 38.1 119.325 39.3989 118.224 40.4086C117.294 41.248 116.097 41.6675 114.633 41.6675C113.805 41.6675 113.04 41.52 112.336 41.2251C111.939 41.0664 111.412 40.7827 110.754 40.3745C110.584 40.272 110.447 40.2212 110.345 40.2212C110.118 40.2212 109.897 40.5844 109.681 41.3104H108.695V35.4054H109.681C110.078 36.8462 110.51 37.9014 110.975 38.5704C111.894 39.8863 113.113 40.5444 114.633 40.5444C115.507 40.5444 116.199 40.2441 116.71 39.6426C117.198 39.0865 117.442 38.44 117.442 37.7027C117.442 36.6363 116.965 35.8078 116.012 35.2183C115.502 34.9121 114.475 34.5093 112.932 34.0103C111.548 33.5563 110.524 32.9497 109.86 32.1895C109.197 31.4297 108.865 30.4766 108.865 29.3307C108.865 27.9806 109.341 26.8918 110.294 26.0636C111.157 25.3151 112.246 24.9406 113.562 24.9406C114.73 24.9406 115.831 25.2526 116.863 25.8766C117.067 26.0012 117.238 26.0636 117.373 26.0636C117.6 26.0636 117.77 25.8029 117.884 25.2809H118.939V25.2802ZM125.797 26.4715V36.1202C125.797 37.3569 125.882 38.2696 126.052 38.8602C126.313 39.7563 126.863 40.2045 127.703 40.2045C128.474 40.2045 129.024 39.8129 129.353 39.0302C129.671 38.2813 129.83 37.3686 129.83 36.2905V35.814H130.987V36.4605C130.987 39.9317 129.614 41.6675 126.869 41.6675C125.508 41.6675 124.498 41.2763 123.84 40.4936C123.352 39.9037 123.057 39.1944 122.955 38.3666C122.887 37.7426 122.853 36.9941 122.853 36.1206V26.4715H120.334V25.4847C121.911 25.1331 123.006 24.4978 123.619 23.5789C124.254 22.5692 124.646 21.1225 124.793 19.2396H125.797V25.2805H130.477V26.4719L125.797 26.4715ZM144.822 33.1764H135.292C135.304 35.4224 135.536 37.0841 135.99 38.1621C136.625 39.6825 137.714 40.4427 139.257 40.4427C140.46 40.4427 141.464 39.9658 142.269 39.0131C142.712 38.4908 143.154 37.771 143.597 36.8517L144.635 37.3965C143.172 40.3345 141.198 41.8037 138.713 41.8037C136.887 41.8037 135.389 41.1797 134.221 39.9317C132.768 38.3775 132.042 36.1314 132.042 33.193C132.042 30.4929 132.768 28.3322 134.221 26.7098C135.366 25.428 136.745 24.7869 138.355 24.7869C140.749 24.7869 142.548 25.9895 143.75 28.3943C144.396 29.6765 144.754 31.2702 144.822 33.1764ZM141.606 31.9509C141.606 30.5329 141.452 29.3641 141.146 28.4452C140.59 26.8231 139.717 26.0116 138.525 26.0116C137.187 26.0116 136.239 27.0101 135.684 29.0067C135.457 29.8123 135.337 30.7933 135.326 31.9505H141.606V31.9509ZM164.952 41.3104V31.5085C164.952 29.489 164.811 28.1844 164.527 27.5945C164.142 26.8231 163.54 26.4373 162.724 26.4373C161.748 26.4373 160.959 26.9876 160.357 28.0878C160.028 28.6892 159.813 29.347 159.711 30.0618C159.631 30.5837 159.592 31.5706 159.592 33.0231V37.4132C159.603 38.7178 159.745 39.518 160.017 39.8129C160.244 40.085 160.693 40.2266 161.362 40.2382H161.855V41.3108H156.648V32.0533C156.648 30.465 156.614 29.4328 156.546 28.9562C156.308 27.2658 155.577 26.4207 154.352 26.4207C153.365 26.4207 152.587 26.9822 152.02 28.1052C151.736 28.6497 151.543 29.2228 151.441 29.8239C151.328 30.4367 151.271 31.5031 151.271 33.0235V37.4136C151.282 38.7182 151.413 39.5184 151.663 39.8133C151.902 40.0853 152.36 40.227 153.041 40.2386H153.535V41.3112H145.996V40.2386H146.558C147.204 40.2274 147.647 40.0853 147.885 39.8133C148.169 39.53 148.316 38.7299 148.328 37.4136V29.1433C148.316 27.8386 148.169 27.0443 147.885 26.761C147.647 26.4886 147.204 26.3524 146.558 26.3524H146.166V25.2802L151.051 25.0419V27.8666C151.277 27.2992 151.595 26.7944 152.003 26.352C152.876 25.4105 153.92 24.9394 155.135 24.9394C156.427 24.9394 157.465 25.4102 158.247 26.352C158.588 26.7606 158.905 27.3388 159.2 28.0878C160.21 25.9891 161.646 24.9398 163.506 24.9398C164.243 24.9398 164.924 25.1016 165.549 25.4249C166.172 25.7481 166.665 26.1933 167.028 26.7606C167.437 27.3958 167.686 28.1219 167.777 28.9388C167.856 29.5965 167.897 30.3226 167.897 31.1169V37.4132C167.908 38.7178 168.05 39.518 168.322 39.8129C168.549 40.085 168.998 40.2266 169.667 40.2382H170.058V41.3108L164.952 41.3104ZM181.936 25.2802V30.3513H180.881C180.314 27.4129 178.958 25.9441 176.813 25.9441C176.042 25.9441 175.418 26.1766 174.941 26.6418C174.442 27.1184 174.193 27.7024 174.193 28.3947C174.193 29.1887 174.54 29.8185 175.232 30.2838C175.572 30.5104 176.189 30.7716 177.086 31.0665C179.014 31.6792 180.308 32.2295 180.965 32.7169C182.236 33.6812 182.871 34.9463 182.871 36.5113C182.871 38.1 182.322 39.3989 181.221 40.4086C180.291 41.248 179.094 41.6675 177.63 41.6675C176.802 41.6675 176.037 41.52 175.333 41.2251C174.937 41.0664 174.408 40.7827 173.75 40.3745C173.58 40.272 173.444 40.2212 173.342 40.2212C173.115 40.2212 172.894 40.5844 172.679 41.3104H171.692V35.4054H172.679C173.076 36.8462 173.507 37.9014 173.972 38.5704C174.891 39.8863 176.11 40.5444 177.63 40.5444C178.503 40.5444 179.195 40.2441 179.706 39.6426C180.194 39.0865 180.439 38.44 180.439 37.7027C180.439 36.6363 179.962 35.8078 179.01 35.2183C178.499 34.9121 177.471 34.5093 175.929 34.0103C174.545 33.5563 173.52 32.9497 172.858 32.1895C172.193 31.4297 171.863 30.4766 171.863 29.3307C171.863 27.9806 172.339 26.8918 173.292 26.0636C174.155 25.3151 175.243 24.9406 176.559 24.9406C177.728 24.9406 178.829 25.2526 179.861 25.8766C180.065 26.0012 180.235 26.0636 180.371 26.0636C180.598 26.0636 180.768 25.8029 180.881 25.2809H181.936V25.2802ZM185.979 32.7856V28.683H190.082V32.7856H185.979Z" fill="white" fill-opacity="0.32"/>
<path d="M39.6646 19.2215V36.7827C39.6646 38.0532 39.7317 38.8363 39.8664 39.1312C40.0992 39.8231 40.8827 40.1805 42.2164 40.2034H43.0977V41.3264H32.7606V40.2034H33.6419C34.6089 40.2034 35.2702 40.0276 35.6249 39.676C35.8701 39.4603 36.0226 39.137 36.0843 38.7059C36.1573 38.2635 36.1945 37.6224 36.1945 36.783V19.2215H35.4231C34.2116 19.2215 33.1219 19.5505 32.1552 20.2083C30.6985 21.2064 29.8537 23.2088 29.6212 26.2151L28.5195 26.1638L28.7217 18.0977H47.2476L47.3947 26.1638L46.2744 26.2151C46.0175 24.3089 45.589 22.8285 44.9891 21.7737C44.4505 20.8319 43.7776 20.1629 42.9697 19.7659C42.2475 19.4143 41.3352 19.2327 40.2338 19.2215H39.6646Z" fill="white" fill-opacity="0.32"/>
</svg>
