<svg width="135" height="64" viewBox="0 0 135 64" fill="none" xmlns="http://www.w3.org/2000/svg">
<path d="M27.3439 26.7168C29.7897 28.4698 32.7859 29.5013 36.022 29.5013V23.2574C35.4096 23.2576 34.7987 23.1935 34.1996 23.0662V27.981C30.9637 27.981 27.9679 26.9496 25.5214 25.1967V37.9386C25.5214 44.3127 20.368 49.4796 14.0112 49.4796C11.6394 49.4796 9.43483 48.7606 7.60352 47.5275C9.69366 49.6704 12.6085 50.9997 15.8333 50.9997C22.1904 50.9997 27.3441 45.8328 27.3441 39.4584V26.7168H27.3439ZM29.5921 20.4175C28.3422 19.0483 27.5215 17.2788 27.3439 15.3226V14.5195H25.6168C26.0516 17.0059 27.5343 19.1301 29.5921 20.4175ZM11.6242 42.6362C10.9258 41.7181 10.5484 40.595 10.5501 39.4401C10.5501 36.5249 12.9073 34.1611 15.8154 34.1611C16.3573 34.161 16.896 34.2442 17.4125 34.4085V28.0251C16.8089 27.9422 16.1998 27.907 15.5908 27.9199V32.8884C15.074 32.7241 14.535 32.6406 13.9929 32.6411C11.0848 32.6411 8.72776 35.0046 8.72776 37.9203C8.72776 39.9819 9.90595 41.7667 11.6242 42.6362Z" fill="#05060F" fill-opacity="0.16"/>
<path d="M25.5207 25.1966C27.9672 26.9495 30.963 27.9809 34.1989 27.9809V23.0661C32.3926 22.6803 30.7936 21.7339 29.5914 20.4175C27.5335 19.1299 26.0509 17.0058 25.6161 14.5195H21.0797V39.4581C21.0694 42.3655 18.7163 44.7196 15.8144 44.7196C14.1044 44.7196 12.5852 43.9023 11.6231 42.6362C9.90499 41.7667 8.7268 39.9818 8.7268 37.9204C8.7268 35.005 11.0838 32.6413 13.9919 32.6413C14.5491 32.6413 15.0861 32.7282 15.5899 32.8885V27.92C9.34482 28.0494 4.32227 33.1658 4.32227 39.4583C4.32227 42.5994 5.573 45.447 7.60295 47.5277C9.43426 48.7606 11.6388 49.4797 14.0106 49.4797C20.3675 49.4797 25.5208 44.3126 25.5208 37.9386V25.1966H25.5207Z" fill="#05060F" fill-opacity="0.32"/>
<path d="M34.1989 23.0666V21.7376C32.5702 21.7401 30.9734 21.2827 29.5915 20.4178C30.8148 21.7607 32.4256 22.6867 34.1989 23.0666ZM25.6162 14.52C25.5747 14.2824 25.5429 14.0432 25.5208 13.8031V13H19.2571V37.9389C19.2471 40.8458 16.8941 43.1999 13.992 43.1999C13.14 43.1999 12.3355 42.9971 11.6231 42.6368C12.5853 43.9027 14.1044 44.7199 15.8145 44.7199C18.7161 44.7199 21.0696 42.3661 21.0797 39.4587V14.52H25.6162ZM15.5902 27.9204V26.5057C15.0668 26.434 14.5392 26.398 14.0108 26.3982C7.65346 26.3981 2.5 31.5653 2.5 37.9389C2.5 41.9348 4.5254 45.4564 7.60315 47.5279C5.5732 45.4474 4.32247 42.5996 4.32247 39.4586C4.32247 33.1662 9.34489 28.0498 15.5902 27.9204Z" fill="#05060F" fill-opacity="0.16"/>
<path d="M106.776 44.2543C111.325 44.2543 115.012 40.5849 115.012 36.059C115.012 31.5333 111.325 27.8633 106.776 27.8633H105.535C110.084 27.8633 113.771 31.5331 113.771 36.059C113.771 40.5849 110.084 44.2543 105.535 44.2543H106.776Z" fill="#05060F" fill-opacity="0.16"/>
<path d="M105.423 27.8633H104.182C99.6334 27.8633 95.9453 31.5331 95.9453 36.059C95.9453 40.5849 99.6334 44.2543 104.182 44.2543H105.423C100.873 44.2543 97.186 40.5849 97.186 36.059C97.1859 31.5333 100.873 27.8633 105.423 27.8633Z" fill="#05060F" fill-opacity="0.16"/>
<path d="M42.8086 24.1602V28.3142H47.659V44.1432H52.5114V28.4264H56.4598L57.8136 24.1603H42.8086V24.1602ZM82.5213 24.1602V28.3142H87.3717V44.1432H92.2241V28.4264H96.1723L97.526 24.1603H82.5213V24.1602ZM58.717 26.5175C58.717 25.2159 59.7759 24.1602 61.0843 24.1602C62.3937 24.1602 63.4539 25.2159 63.4539 26.5175C63.4539 27.8193 62.3944 28.875 61.0843 28.875C59.7759 28.8744 58.717 27.8193 58.717 26.5175ZM58.717 30.5595H63.4539V44.1432H58.717V30.5595ZM65.485 24.1602V44.143H70.2238V38.9794L71.6906 37.631L76.3156 44.2552H81.3921L74.7352 34.6006L80.7148 28.7622H74.9612L70.2238 33.4771V24.1602H65.485ZM116.592 24.1602V44.143H121.331V38.9794L122.797 37.631L127.423 44.2552H132.501L125.844 34.6006L131.823 28.7622H126.07L121.331 33.4771V24.1602H116.592Z" fill="#05060F" fill-opacity="0.32"/>
<path d="M105.536 44.2543C110.085 44.2543 113.773 40.5849 113.773 36.059C113.773 31.5333 110.085 27.8633 105.536 27.8633H105.424C100.875 27.8633 97.1875 31.5331 97.1875 36.059C97.1875 40.5849 100.875 44.2543 105.424 44.2543H105.536ZM101.475 36.059C101.475 33.8575 103.269 32.0742 105.481 32.0742C107.692 32.0742 109.485 33.8575 109.485 36.059C109.485 38.2606 107.692 40.0449 105.481 40.0449C103.269 40.0445 101.475 38.2606 101.475 36.059Z" fill="#05060F" fill-opacity="0.32"/>
</svg>
