<svg width="24" height="24" viewBox="0 0 24 24" fill="none" xmlns="http://www.w3.org/2000/svg">
<path d="M15.3329 3.75366V3.75H16.2614L16.6007 3.8196C16.8268 3.86478 17.0322 3.92399 17.2167 3.99725C17.4012 4.07052 17.5798 4.15599 17.7524 4.25367C17.925 4.35134 18.0815 4.45087 18.222 4.5522C18.3613 4.65233 18.4863 4.75856 18.597 4.87089C18.7065 4.98444 18.8773 5.01375 19.1094 4.9588C19.3416 4.90385 19.5916 4.82754 19.8594 4.72986C20.1272 4.63219 20.3921 4.5223 20.654 4.40019C20.9159 4.27808 21.0754 4.20055 21.1325 4.16759C21.1885 4.13341 21.2183 4.11509 21.2218 4.11264L21.2254 4.10715L21.2432 4.09799L21.2611 4.08883L21.2789 4.07967L21.2968 4.07052L21.3004 4.06502L21.3057 4.06136L21.3111 4.05769L21.3147 4.0522L21.3325 4.04671L21.3504 4.04304L21.3468 4.07052L21.3414 4.09799L21.3325 4.12546L21.3236 4.15293L21.3147 4.17125L21.3057 4.18956L21.2968 4.21704C21.2909 4.23535 21.2849 4.25977 21.2789 4.2903C21.273 4.32083 21.2164 4.44292 21.1093 4.6566C21.0022 4.87028 20.8683 5.08701 20.7076 5.30679C20.5468 5.52657 20.4028 5.69262 20.2755 5.80496C20.1469 5.91851 20.0618 5.99787 20.0201 6.04306C19.9784 6.08945 19.9279 6.13218 19.8683 6.17126L19.779 6.2317L19.7612 6.24086L19.7433 6.25002L19.7398 6.25551L19.7344 6.25918L19.729 6.26284L19.7255 6.26833L19.7076 6.27749L19.6898 6.28665L19.6862 6.29214L19.6808 6.29581L19.6755 6.29947L19.6719 6.30496L19.6684 6.31046L19.663 6.31412L19.6576 6.31778L19.654 6.32328H19.7433L20.2433 6.21339C20.5766 6.14013 20.895 6.05161 21.1986 5.94782L21.6807 5.78298L21.7343 5.76467L21.7611 5.75551L21.7789 5.74635L21.7968 5.73719L21.8146 5.72804L21.8325 5.71888L21.8682 5.71338L21.9039 5.70972V5.74635L21.895 5.75001L21.8861 5.75551L21.8825 5.761L21.8771 5.76467L21.8718 5.76833L21.8682 5.77382L21.8646 5.77932L21.8593 5.78298L21.8539 5.78664L21.8503 5.79214L21.8468 5.79763L21.8414 5.8013L21.8325 5.81961L21.8236 5.83793L21.8182 5.84159C21.8158 5.84525 21.7402 5.94903 21.5914 6.15295C21.4426 6.35808 21.3623 6.46185 21.3504 6.46431C21.3385 6.46797 21.3218 6.48628 21.3004 6.51925C21.2801 6.55343 21.154 6.68958 20.9218 6.92768C20.6897 7.16578 20.4624 7.37761 20.2397 7.56321C20.016 7.75003 19.9029 7.97957 19.9005 8.25186C19.8969 8.52293 19.8832 8.82941 19.8594 9.17129C19.8356 9.51317 19.7909 9.88252 19.7255 10.2794C19.66 10.6762 19.5588 11.1249 19.4219 11.6255C19.285 12.1261 19.1184 12.6145 18.9219 13.0907C18.7255 13.5669 18.5202 13.9943 18.3059 14.3728C18.0916 14.7513 17.8952 15.0718 17.7167 15.3343C17.5381 15.5968 17.3566 15.8441 17.1721 16.0761C16.9876 16.3081 16.7542 16.5694 16.4721 16.86C16.1888 17.1494 16.0341 17.3081 16.0079 17.3362C15.9805 17.363 15.8638 17.4632 15.6579 17.6365C15.4531 17.8111 15.2329 17.9857 14.9972 18.1604C14.7627 18.3338 14.5472 18.4784 14.3508 18.5944C14.1544 18.7104 13.9175 18.8429 13.6401 18.9919C13.364 19.1421 13.0652 19.2812 12.7438 19.4095C12.4224 19.5377 12.0831 19.6567 11.726 19.7666C11.3688 19.8765 11.0236 19.962 10.6903 20.023C10.357 20.0841 9.97906 20.136 9.55646 20.1787L8.92257 20.2428V20.252H7.76193V20.2428L7.61015 20.2336C7.50898 20.2275 7.42564 20.2214 7.36017 20.2153C7.29471 20.2092 7.04768 20.1756 6.61914 20.1146C6.1906 20.0535 5.85431 19.9925 5.61027 19.9314C5.36625 19.8704 5.00317 19.7544 4.52106 19.5835C4.03894 19.4125 3.62647 19.2397 3.28363 19.0651C2.94199 18.8917 2.72772 18.7819 2.64081 18.7355C2.55511 18.6903 2.45868 18.6341 2.35155 18.567L2.19084 18.4662L2.18729 18.4607L2.18191 18.4571L2.17656 18.4534L2.17299 18.4479L2.15513 18.4388L2.13727 18.4296L2.13372 18.4241L2.12835 18.4204L2.12299 18.4168L2.11942 18.4113L2.11587 18.4058L2.11049 18.4021H2.10156V18.3655L2.11942 18.3692L2.13727 18.3747L2.21763 18.3838C2.27119 18.3899 2.41703 18.3991 2.6551 18.4113C2.89319 18.4235 3.14614 18.4235 3.41398 18.4113C3.68182 18.3991 3.95563 18.3716 4.23536 18.3289C4.51511 18.2861 4.84545 18.2129 5.22637 18.1091C5.60731 18.0053 5.95729 17.882 6.27632 17.7391C6.59416 17.595 6.82032 17.4876 6.95485 17.4168C7.08816 17.3472 7.29172 17.2177 7.56551 17.0285L7.9762 16.7446L7.97977 16.7391L7.98513 16.7354L7.9905 16.7318L7.99405 16.7263L7.99763 16.7208L8.00298 16.7171L8.00836 16.7135L8.01191 16.708L8.02977 16.7025L8.04762 16.6988L8.05119 16.6805L8.05655 16.6622L8.06193 16.6585L8.06548 16.653L7.92263 16.6439C7.8274 16.6378 7.73514 16.6317 7.64586 16.6256C7.55658 16.6195 7.41672 16.592 7.22625 16.5431C7.03579 16.4943 6.83045 16.421 6.61021 16.3234C6.38999 16.2257 6.17572 16.1097 5.96739 15.9754C5.75909 15.8411 5.60849 15.7293 5.51564 15.6402C5.42398 15.5523 5.30494 15.4277 5.15852 15.2666C5.01329 15.1042 4.8871 14.9375 4.77997 14.7666C4.67283 14.5956 4.57046 14.3984 4.47286 14.175L4.32464 13.8416L4.31571 13.8142L4.30678 13.7867L4.30143 13.7684L4.29786 13.7501L4.32464 13.7537L4.35142 13.7592L4.54784 13.7867C4.6788 13.805 4.88414 13.8111 5.16387 13.805C5.44362 13.7989 5.63706 13.7867 5.74419 13.7684C5.85133 13.7501 5.91681 13.7379 5.94061 13.7318L5.97632 13.7226L6.02096 13.7134L6.0656 13.7043L6.06917 13.6988L6.07453 13.6951L6.07991 13.6915L6.08346 13.686L6.04775 13.6768L6.01203 13.6677L5.97632 13.6585L5.94061 13.6493L5.9049 13.6402C5.8811 13.6341 5.83944 13.6219 5.77991 13.6036C5.72039 13.5852 5.55969 13.5181 5.29779 13.4021C5.03592 13.2861 4.82759 13.1731 4.67283 13.0633C4.51769 12.953 4.36976 12.8325 4.23 12.7024C4.09072 12.5706 3.93777 12.4009 3.7711 12.1933C3.60445 11.9857 3.45566 11.7446 3.3247 11.4698C3.19376 11.1951 3.09555 10.9326 3.03008 10.6823C2.96486 10.4334 2.92184 10.179 2.90153 9.92221L2.86937 9.53759L2.88723 9.54125L2.90508 9.54675L2.92294 9.5559L2.9408 9.56506L2.95865 9.57422L2.97651 9.58338L3.25328 9.71158C3.4378 9.79706 3.66695 9.87032 3.94073 9.93136C4.21454 9.99241 4.37821 10.026 4.43178 10.0321L4.51213 10.0413H4.67283L4.66928 10.0358L4.6639 10.0321L4.65855 10.0284L4.65498 10.0229L4.65142 10.0174L4.64605 10.0138L4.64069 10.0101L4.63712 10.0046L4.61926 9.99547L4.60141 9.98631L4.59785 9.98082L4.59248 9.97715L4.58712 9.97349L4.58355 9.96799L4.5657 9.95884L4.54784 9.94968L4.54429 9.94419C4.54071 9.94173 4.48952 9.90266 4.39071 9.82697C4.29309 9.75004 4.19072 9.65054 4.08358 9.52843C3.97645 9.40632 3.86931 9.27812 3.76217 9.14381C3.65484 9.0092 3.55924 8.86518 3.47648 8.71341C3.39316 8.56079 3.30506 8.36663 3.21221 8.13098C3.12055 7.89655 3.05091 7.66029 3.00329 7.42219C2.95569 7.18409 2.9289 6.94905 2.92294 6.71705C2.91699 6.48506 2.92294 6.28665 2.9408 6.12181C2.95865 5.95698 2.99436 5.77077 3.04793 5.5632C3.1015 5.35563 3.17889 5.13585 3.28006 4.90385L3.43184 4.55587L3.44077 4.52839L3.44969 4.50092L3.45507 4.49726L3.45862 4.49176L3.46219 4.48627L3.46755 4.48261L3.47292 4.48627L3.47648 4.49176L3.48005 4.49726L3.48541 4.50092L3.49078 4.50458L3.49433 4.51008L3.4979 4.51557L3.50326 4.51924L3.51219 4.53755L3.52112 4.55587L3.52649 4.55953L3.53005 4.56502L3.7711 4.83975C3.93181 5.0229 4.12228 5.22743 4.3425 5.45331C4.56273 5.67919 4.68474 5.79641 4.70854 5.80496C4.73236 5.81472 4.76211 5.8428 4.79782 5.88921C4.83354 5.93439 4.95258 6.04245 5.15494 6.21339C5.35733 6.38432 5.62218 6.58275 5.94954 6.80863C6.27691 7.03451 6.63998 7.25735 7.03876 7.47713C7.43755 7.69692 7.8661 7.89532 8.32439 8.07238C8.7827 8.24943 9.10411 8.36542 9.28862 8.42036C9.47314 8.47531 9.78859 8.54551 10.235 8.63099C10.6814 8.71646 11.0177 8.77141 11.2439 8.79582C11.47 8.82024 11.6248 8.83429 11.7081 8.83795L11.8331 8.84161L11.8295 8.81414L11.8242 8.78667L11.7885 8.55773C11.7647 8.40511 11.7528 8.19142 11.7528 7.9167C11.7528 7.64197 11.7736 7.38862 11.8152 7.15662C11.8569 6.92462 11.9194 6.68958 12.0027 6.45149C12.0861 6.21339 12.1676 6.02229 12.2474 5.87822C12.3283 5.73536 12.4343 5.57236 12.5652 5.38921C12.6962 5.20605 12.8658 5.0168 13.0741 4.82144C13.2824 4.62607 13.5205 4.45207 13.7883 4.29945C14.0562 4.14683 14.3032 4.03083 14.5294 3.95147C14.7555 3.87211 14.946 3.8202 15.1008 3.79579C15.2555 3.77137 15.3329 3.75733 15.3329 3.75366Z" fill="white"/>
</svg>
