<svg width="262" height="46" viewBox="0 0 262 46" fill="none" xmlns="http://www.w3.org/2000/svg">
<path d="M10 10H220" stroke="#F8DB46" stroke-width="8"/>
<circle cx="10" cy="10.0007" r="7" fill="white" stroke="#F8DB46" stroke-width="6"/>
<circle cx="222" cy="10.0007" r="7" fill="#F8DB46" stroke="#F8DB46" stroke-width="6"/>
<path d="M252.225 24.8827L252.984 31.7108L255.76 34.4872L250.487 39.7611L247.71 36.9847L240.882 36.226C237.841 35.8881 235.315 33.7274 234.51 30.7757L229.911 13.9114L246.775 18.5108C249.727 19.3158 251.888 21.8419 252.225 24.8827Z" fill="white"/>
<path d="M252.984 31.7108L251.577 31.8671L251.632 32.3605L251.983 32.7116L252.984 31.7108ZM252.225 24.8827L250.819 25.039L252.225 24.8827ZM246.775 18.5108L247.147 17.1453L246.775 18.5108ZM229.911 13.9114L230.283 12.546C229.793 12.4124 229.269 12.5515 228.91 12.9107C228.551 13.2698 228.412 13.7938 228.545 14.2838L229.911 13.9114ZM234.51 30.7757L233.145 31.1481L234.51 30.7757ZM240.882 36.226L241.038 34.8194L240.882 36.226ZM247.71 36.9847L248.711 35.9839L248.36 35.6329L247.866 35.578L247.71 36.9847ZM255.76 34.4872L256.761 35.488L257.762 34.4872L256.761 33.4864L255.76 34.4872ZM250.487 39.7611L249.486 40.7619L250.487 41.7626L251.487 40.7619L250.487 39.7611ZM254.391 31.5545L253.632 24.7264L250.819 25.039L251.577 31.8671L254.391 31.5545ZM247.147 17.1453L230.283 12.546L229.538 15.2769L246.403 19.8762L247.147 17.1453ZM228.545 14.2838L233.145 31.1481L235.876 30.4033L231.276 13.539L228.545 14.2838ZM240.726 37.6327L247.554 38.3913L247.866 35.578L241.038 34.8194L240.726 37.6327ZM228.91 14.9122L241.436 27.4377L243.437 25.4361L230.912 12.9107L228.91 14.9122ZM256.761 33.4864L253.985 30.71L251.983 32.7116L254.76 35.488L256.761 33.4864ZM246.709 37.9855L249.486 40.7619L251.487 38.7603L248.711 35.9839L246.709 37.9855ZM251.487 40.7619L256.761 35.488L254.76 33.4864L249.486 38.7603L251.487 40.7619ZM233.145 31.1481C234.103 34.6599 237.108 37.2307 240.726 37.6327L241.038 34.8194C238.575 34.5456 236.528 32.7949 235.876 30.4033L233.145 31.1481ZM253.632 24.7264C253.23 21.1085 250.659 18.1031 247.147 17.1453L246.403 19.8762C248.794 20.5285 250.545 22.5752 250.819 25.039L253.632 24.7264Z" fill="#05060F"/>
<circle cx="243.093" cy="27.0974" r="2.7969" transform="rotate(-45 243.093 27.0974)" fill="#05060F"/>
</svg>
